G75*
%MOIN*%
%OFA0B0*%
%FSLAX25Y25*%
%IPPOS*%
%LPD*%
%AMOC8*
5,1,8,0,0,1.08239X$1,22.5*
%
%ADD10R,7.87402X0.35433*%
%ADD11R,0.39370X5.03937*%
%ADD12R,0.35433X4.88189*%
%ADD13C,0.54458*%
%ADD14C,0.12756*%
%ADD15OC8,0.06457*%
%ADD16C,0.06457*%
%ADD17R,0.15157X0.15157*%
%ADD18R,0.10394X0.05866*%
%ADD19OC8,0.07157*%
%ADD20OC8,0.06157*%
%ADD21C,0.06157*%
%ADD22C,0.06157*%
%ADD23OC8,0.07244*%
D10*
X0414170Y0026591D03*
X0414170Y0487220D03*
D11*
X0788186Y0252969D03*
D12*
X0038186Y0252969D03*
D13*
X0068090Y0055870D03*
X0067465Y0457745D03*
X0756215Y0458370D03*
X0756527Y0054932D03*
D14*
X0040154Y0028559D03*
X0067713Y0056118D03*
X0188973Y0028559D03*
X0337792Y0028559D03*
X0486611Y0028559D03*
X0635430Y0028559D03*
X0756690Y0056118D03*
X0784249Y0028559D03*
X0784249Y0142732D03*
X0784249Y0256906D03*
X0784249Y0371079D03*
X0756690Y0457693D03*
X0784249Y0485252D03*
X0635430Y0485252D03*
X0486611Y0485252D03*
X0337792Y0485252D03*
X0188973Y0485252D03*
X0067713Y0457693D03*
X0040154Y0485252D03*
X0040154Y0371079D03*
X0040154Y0256906D03*
X0040154Y0142732D03*
D15*
X0732580Y0345990D03*
D16*
X0722580Y0345990D03*
D17*
X0679288Y0409425D03*
X0679288Y0433756D03*
X0280902Y0434307D03*
X0280902Y0409307D03*
X0255902Y0409307D03*
D18*
X0545720Y0394287D03*
X0559347Y0394287D03*
X0575651Y0394287D03*
X0593082Y0394287D03*
X0609765Y0394204D03*
X0609765Y0374952D03*
X0593082Y0375035D03*
X0575651Y0375035D03*
X0559347Y0375035D03*
X0545720Y0375035D03*
D19*
X0446886Y0237181D03*
X0436886Y0227181D03*
X0456886Y0227181D03*
D20*
X0247831Y0223047D03*
X0247831Y0233047D03*
X0247831Y0243047D03*
X0247831Y0253047D03*
X0247831Y0263047D03*
X0247831Y0273047D03*
X0212398Y0282417D03*
X0212398Y0292417D03*
X0140705Y0374780D03*
X0130705Y0374780D03*
X0076719Y0351905D03*
X0066719Y0351905D03*
X0066719Y0341905D03*
X0076719Y0341905D03*
X0076719Y0331905D03*
X0066719Y0331905D03*
X0066719Y0321905D03*
X0076719Y0321905D03*
X0076719Y0311905D03*
X0066719Y0311905D03*
X0066719Y0301905D03*
X0076719Y0301905D03*
X0076719Y0291905D03*
X0066719Y0291905D03*
X0066719Y0281905D03*
X0076719Y0281905D03*
X0076719Y0271905D03*
X0066719Y0271905D03*
X0066719Y0261905D03*
X0076719Y0261905D03*
X0076719Y0251905D03*
X0066719Y0251905D03*
X0066719Y0241905D03*
X0076719Y0241905D03*
X0076719Y0231905D03*
X0066719Y0231905D03*
X0066719Y0221905D03*
X0076719Y0221905D03*
X0076719Y0211905D03*
X0066719Y0211905D03*
X0066719Y0201905D03*
X0076719Y0201905D03*
X0076719Y0191905D03*
X0066719Y0191905D03*
X0066719Y0181905D03*
X0076719Y0181905D03*
X0076719Y0171905D03*
X0066719Y0171905D03*
X0076719Y0161905D03*
X0205627Y0381787D03*
X0215627Y0381787D03*
X0215627Y0391787D03*
X0205627Y0391787D03*
X0205627Y0401787D03*
X0215627Y0401787D03*
X0315902Y0404307D03*
X0325902Y0404307D03*
X0335902Y0404307D03*
X0345902Y0404307D03*
X0355902Y0404307D03*
X0355902Y0414307D03*
X0345902Y0414307D03*
X0335902Y0414307D03*
X0325902Y0414307D03*
X0315902Y0414307D03*
X0365902Y0414307D03*
X0375902Y0414307D03*
X0385902Y0414307D03*
X0395902Y0414307D03*
X0395902Y0404307D03*
X0385902Y0404307D03*
X0375902Y0404307D03*
X0365902Y0404307D03*
X0405902Y0404307D03*
X0405902Y0414307D03*
X0425902Y0414307D03*
X0435902Y0414307D03*
X0435902Y0404307D03*
X0425902Y0404307D03*
X0445902Y0404307D03*
X0455902Y0404307D03*
X0455902Y0414307D03*
X0445902Y0414307D03*
X0475902Y0414307D03*
X0475902Y0404307D03*
X0485902Y0404307D03*
X0495902Y0404307D03*
X0505902Y0404307D03*
X0515902Y0404307D03*
X0515902Y0414307D03*
X0505902Y0414307D03*
X0495902Y0414307D03*
X0485902Y0414307D03*
X0525902Y0414307D03*
X0525902Y0404307D03*
X0545902Y0404307D03*
X0555902Y0404307D03*
X0565902Y0404307D03*
X0565902Y0414307D03*
X0555902Y0414307D03*
X0545902Y0414307D03*
X0575902Y0414307D03*
X0585902Y0414307D03*
X0595902Y0414307D03*
X0605902Y0414307D03*
X0605902Y0404307D03*
X0595902Y0404307D03*
X0585902Y0404307D03*
X0575902Y0404307D03*
X0625902Y0404307D03*
X0635902Y0404307D03*
X0645902Y0404307D03*
X0645902Y0414307D03*
X0635902Y0414307D03*
X0625902Y0414307D03*
D21*
X0731957Y0267181D02*
X0737957Y0267181D01*
X0737957Y0257181D02*
X0731957Y0257181D01*
X0731957Y0247181D02*
X0737957Y0247181D01*
D22*
X0066719Y0161905D03*
D23*
X0091453Y0410449D03*
X0091453Y0420449D03*
M02*
