G75*
%MOIN*%
%OFA0B0*%
%FSLAX25Y25*%
%IPPOS*%
%LPD*%
%AMOC8*
5,1,8,0,0,1.08239X$1,22.5*
%
%ADD10C,0.01600*%
%ADD11C,0.00000*%
D10*
X0024406Y0012811D02*
X0024406Y0501000D01*
X0799997Y0501000D01*
X0799997Y0012811D01*
X0024406Y0012811D01*
D11*
X0033855Y0028559D02*
X0033857Y0028717D01*
X0033863Y0028875D01*
X0033873Y0029033D01*
X0033887Y0029191D01*
X0033905Y0029348D01*
X0033926Y0029505D01*
X0033952Y0029661D01*
X0033982Y0029817D01*
X0034015Y0029972D01*
X0034053Y0030125D01*
X0034094Y0030278D01*
X0034139Y0030430D01*
X0034188Y0030581D01*
X0034241Y0030730D01*
X0034297Y0030878D01*
X0034357Y0031024D01*
X0034421Y0031169D01*
X0034489Y0031312D01*
X0034560Y0031454D01*
X0034634Y0031594D01*
X0034712Y0031731D01*
X0034794Y0031867D01*
X0034878Y0032001D01*
X0034967Y0032132D01*
X0035058Y0032261D01*
X0035153Y0032388D01*
X0035250Y0032513D01*
X0035351Y0032635D01*
X0035455Y0032754D01*
X0035562Y0032871D01*
X0035672Y0032985D01*
X0035785Y0033096D01*
X0035900Y0033205D01*
X0036018Y0033310D01*
X0036139Y0033412D01*
X0036262Y0033512D01*
X0036388Y0033608D01*
X0036516Y0033701D01*
X0036646Y0033791D01*
X0036779Y0033877D01*
X0036914Y0033961D01*
X0037050Y0034040D01*
X0037189Y0034117D01*
X0037330Y0034189D01*
X0037472Y0034259D01*
X0037616Y0034324D01*
X0037762Y0034386D01*
X0037909Y0034444D01*
X0038058Y0034499D01*
X0038208Y0034550D01*
X0038359Y0034597D01*
X0038511Y0034640D01*
X0038664Y0034679D01*
X0038819Y0034715D01*
X0038974Y0034746D01*
X0039130Y0034774D01*
X0039286Y0034798D01*
X0039443Y0034818D01*
X0039601Y0034834D01*
X0039758Y0034846D01*
X0039917Y0034854D01*
X0040075Y0034858D01*
X0040233Y0034858D01*
X0040391Y0034854D01*
X0040550Y0034846D01*
X0040707Y0034834D01*
X0040865Y0034818D01*
X0041022Y0034798D01*
X0041178Y0034774D01*
X0041334Y0034746D01*
X0041489Y0034715D01*
X0041644Y0034679D01*
X0041797Y0034640D01*
X0041949Y0034597D01*
X0042100Y0034550D01*
X0042250Y0034499D01*
X0042399Y0034444D01*
X0042546Y0034386D01*
X0042692Y0034324D01*
X0042836Y0034259D01*
X0042978Y0034189D01*
X0043119Y0034117D01*
X0043258Y0034040D01*
X0043394Y0033961D01*
X0043529Y0033877D01*
X0043662Y0033791D01*
X0043792Y0033701D01*
X0043920Y0033608D01*
X0044046Y0033512D01*
X0044169Y0033412D01*
X0044290Y0033310D01*
X0044408Y0033205D01*
X0044523Y0033096D01*
X0044636Y0032985D01*
X0044746Y0032871D01*
X0044853Y0032754D01*
X0044957Y0032635D01*
X0045058Y0032513D01*
X0045155Y0032388D01*
X0045250Y0032261D01*
X0045341Y0032132D01*
X0045430Y0032001D01*
X0045514Y0031867D01*
X0045596Y0031731D01*
X0045674Y0031594D01*
X0045748Y0031454D01*
X0045819Y0031312D01*
X0045887Y0031169D01*
X0045951Y0031024D01*
X0046011Y0030878D01*
X0046067Y0030730D01*
X0046120Y0030581D01*
X0046169Y0030430D01*
X0046214Y0030278D01*
X0046255Y0030125D01*
X0046293Y0029972D01*
X0046326Y0029817D01*
X0046356Y0029661D01*
X0046382Y0029505D01*
X0046403Y0029348D01*
X0046421Y0029191D01*
X0046435Y0029033D01*
X0046445Y0028875D01*
X0046451Y0028717D01*
X0046453Y0028559D01*
X0046451Y0028401D01*
X0046445Y0028243D01*
X0046435Y0028085D01*
X0046421Y0027927D01*
X0046403Y0027770D01*
X0046382Y0027613D01*
X0046356Y0027457D01*
X0046326Y0027301D01*
X0046293Y0027146D01*
X0046255Y0026993D01*
X0046214Y0026840D01*
X0046169Y0026688D01*
X0046120Y0026537D01*
X0046067Y0026388D01*
X0046011Y0026240D01*
X0045951Y0026094D01*
X0045887Y0025949D01*
X0045819Y0025806D01*
X0045748Y0025664D01*
X0045674Y0025524D01*
X0045596Y0025387D01*
X0045514Y0025251D01*
X0045430Y0025117D01*
X0045341Y0024986D01*
X0045250Y0024857D01*
X0045155Y0024730D01*
X0045058Y0024605D01*
X0044957Y0024483D01*
X0044853Y0024364D01*
X0044746Y0024247D01*
X0044636Y0024133D01*
X0044523Y0024022D01*
X0044408Y0023913D01*
X0044290Y0023808D01*
X0044169Y0023706D01*
X0044046Y0023606D01*
X0043920Y0023510D01*
X0043792Y0023417D01*
X0043662Y0023327D01*
X0043529Y0023241D01*
X0043394Y0023157D01*
X0043258Y0023078D01*
X0043119Y0023001D01*
X0042978Y0022929D01*
X0042836Y0022859D01*
X0042692Y0022794D01*
X0042546Y0022732D01*
X0042399Y0022674D01*
X0042250Y0022619D01*
X0042100Y0022568D01*
X0041949Y0022521D01*
X0041797Y0022478D01*
X0041644Y0022439D01*
X0041489Y0022403D01*
X0041334Y0022372D01*
X0041178Y0022344D01*
X0041022Y0022320D01*
X0040865Y0022300D01*
X0040707Y0022284D01*
X0040550Y0022272D01*
X0040391Y0022264D01*
X0040233Y0022260D01*
X0040075Y0022260D01*
X0039917Y0022264D01*
X0039758Y0022272D01*
X0039601Y0022284D01*
X0039443Y0022300D01*
X0039286Y0022320D01*
X0039130Y0022344D01*
X0038974Y0022372D01*
X0038819Y0022403D01*
X0038664Y0022439D01*
X0038511Y0022478D01*
X0038359Y0022521D01*
X0038208Y0022568D01*
X0038058Y0022619D01*
X0037909Y0022674D01*
X0037762Y0022732D01*
X0037616Y0022794D01*
X0037472Y0022859D01*
X0037330Y0022929D01*
X0037189Y0023001D01*
X0037050Y0023078D01*
X0036914Y0023157D01*
X0036779Y0023241D01*
X0036646Y0023327D01*
X0036516Y0023417D01*
X0036388Y0023510D01*
X0036262Y0023606D01*
X0036139Y0023706D01*
X0036018Y0023808D01*
X0035900Y0023913D01*
X0035785Y0024022D01*
X0035672Y0024133D01*
X0035562Y0024247D01*
X0035455Y0024364D01*
X0035351Y0024483D01*
X0035250Y0024605D01*
X0035153Y0024730D01*
X0035058Y0024857D01*
X0034967Y0024986D01*
X0034878Y0025117D01*
X0034794Y0025251D01*
X0034712Y0025387D01*
X0034634Y0025524D01*
X0034560Y0025664D01*
X0034489Y0025806D01*
X0034421Y0025949D01*
X0034357Y0026094D01*
X0034297Y0026240D01*
X0034241Y0026388D01*
X0034188Y0026537D01*
X0034139Y0026688D01*
X0034094Y0026840D01*
X0034053Y0026993D01*
X0034015Y0027146D01*
X0033982Y0027301D01*
X0033952Y0027457D01*
X0033926Y0027613D01*
X0033905Y0027770D01*
X0033887Y0027927D01*
X0033873Y0028085D01*
X0033863Y0028243D01*
X0033857Y0028401D01*
X0033855Y0028559D01*
X0061414Y0056118D02*
X0061416Y0056276D01*
X0061422Y0056434D01*
X0061432Y0056592D01*
X0061446Y0056750D01*
X0061464Y0056907D01*
X0061485Y0057064D01*
X0061511Y0057220D01*
X0061541Y0057376D01*
X0061574Y0057531D01*
X0061612Y0057684D01*
X0061653Y0057837D01*
X0061698Y0057989D01*
X0061747Y0058140D01*
X0061800Y0058289D01*
X0061856Y0058437D01*
X0061916Y0058583D01*
X0061980Y0058728D01*
X0062048Y0058871D01*
X0062119Y0059013D01*
X0062193Y0059153D01*
X0062271Y0059290D01*
X0062353Y0059426D01*
X0062437Y0059560D01*
X0062526Y0059691D01*
X0062617Y0059820D01*
X0062712Y0059947D01*
X0062809Y0060072D01*
X0062910Y0060194D01*
X0063014Y0060313D01*
X0063121Y0060430D01*
X0063231Y0060544D01*
X0063344Y0060655D01*
X0063459Y0060764D01*
X0063577Y0060869D01*
X0063698Y0060971D01*
X0063821Y0061071D01*
X0063947Y0061167D01*
X0064075Y0061260D01*
X0064205Y0061350D01*
X0064338Y0061436D01*
X0064473Y0061520D01*
X0064609Y0061599D01*
X0064748Y0061676D01*
X0064889Y0061748D01*
X0065031Y0061818D01*
X0065175Y0061883D01*
X0065321Y0061945D01*
X0065468Y0062003D01*
X0065617Y0062058D01*
X0065767Y0062109D01*
X0065918Y0062156D01*
X0066070Y0062199D01*
X0066223Y0062238D01*
X0066378Y0062274D01*
X0066533Y0062305D01*
X0066689Y0062333D01*
X0066845Y0062357D01*
X0067002Y0062377D01*
X0067160Y0062393D01*
X0067317Y0062405D01*
X0067476Y0062413D01*
X0067634Y0062417D01*
X0067792Y0062417D01*
X0067950Y0062413D01*
X0068109Y0062405D01*
X0068266Y0062393D01*
X0068424Y0062377D01*
X0068581Y0062357D01*
X0068737Y0062333D01*
X0068893Y0062305D01*
X0069048Y0062274D01*
X0069203Y0062238D01*
X0069356Y0062199D01*
X0069508Y0062156D01*
X0069659Y0062109D01*
X0069809Y0062058D01*
X0069958Y0062003D01*
X0070105Y0061945D01*
X0070251Y0061883D01*
X0070395Y0061818D01*
X0070537Y0061748D01*
X0070678Y0061676D01*
X0070817Y0061599D01*
X0070953Y0061520D01*
X0071088Y0061436D01*
X0071221Y0061350D01*
X0071351Y0061260D01*
X0071479Y0061167D01*
X0071605Y0061071D01*
X0071728Y0060971D01*
X0071849Y0060869D01*
X0071967Y0060764D01*
X0072082Y0060655D01*
X0072195Y0060544D01*
X0072305Y0060430D01*
X0072412Y0060313D01*
X0072516Y0060194D01*
X0072617Y0060072D01*
X0072714Y0059947D01*
X0072809Y0059820D01*
X0072900Y0059691D01*
X0072989Y0059560D01*
X0073073Y0059426D01*
X0073155Y0059290D01*
X0073233Y0059153D01*
X0073307Y0059013D01*
X0073378Y0058871D01*
X0073446Y0058728D01*
X0073510Y0058583D01*
X0073570Y0058437D01*
X0073626Y0058289D01*
X0073679Y0058140D01*
X0073728Y0057989D01*
X0073773Y0057837D01*
X0073814Y0057684D01*
X0073852Y0057531D01*
X0073885Y0057376D01*
X0073915Y0057220D01*
X0073941Y0057064D01*
X0073962Y0056907D01*
X0073980Y0056750D01*
X0073994Y0056592D01*
X0074004Y0056434D01*
X0074010Y0056276D01*
X0074012Y0056118D01*
X0074010Y0055960D01*
X0074004Y0055802D01*
X0073994Y0055644D01*
X0073980Y0055486D01*
X0073962Y0055329D01*
X0073941Y0055172D01*
X0073915Y0055016D01*
X0073885Y0054860D01*
X0073852Y0054705D01*
X0073814Y0054552D01*
X0073773Y0054399D01*
X0073728Y0054247D01*
X0073679Y0054096D01*
X0073626Y0053947D01*
X0073570Y0053799D01*
X0073510Y0053653D01*
X0073446Y0053508D01*
X0073378Y0053365D01*
X0073307Y0053223D01*
X0073233Y0053083D01*
X0073155Y0052946D01*
X0073073Y0052810D01*
X0072989Y0052676D01*
X0072900Y0052545D01*
X0072809Y0052416D01*
X0072714Y0052289D01*
X0072617Y0052164D01*
X0072516Y0052042D01*
X0072412Y0051923D01*
X0072305Y0051806D01*
X0072195Y0051692D01*
X0072082Y0051581D01*
X0071967Y0051472D01*
X0071849Y0051367D01*
X0071728Y0051265D01*
X0071605Y0051165D01*
X0071479Y0051069D01*
X0071351Y0050976D01*
X0071221Y0050886D01*
X0071088Y0050800D01*
X0070953Y0050716D01*
X0070817Y0050637D01*
X0070678Y0050560D01*
X0070537Y0050488D01*
X0070395Y0050418D01*
X0070251Y0050353D01*
X0070105Y0050291D01*
X0069958Y0050233D01*
X0069809Y0050178D01*
X0069659Y0050127D01*
X0069508Y0050080D01*
X0069356Y0050037D01*
X0069203Y0049998D01*
X0069048Y0049962D01*
X0068893Y0049931D01*
X0068737Y0049903D01*
X0068581Y0049879D01*
X0068424Y0049859D01*
X0068266Y0049843D01*
X0068109Y0049831D01*
X0067950Y0049823D01*
X0067792Y0049819D01*
X0067634Y0049819D01*
X0067476Y0049823D01*
X0067317Y0049831D01*
X0067160Y0049843D01*
X0067002Y0049859D01*
X0066845Y0049879D01*
X0066689Y0049903D01*
X0066533Y0049931D01*
X0066378Y0049962D01*
X0066223Y0049998D01*
X0066070Y0050037D01*
X0065918Y0050080D01*
X0065767Y0050127D01*
X0065617Y0050178D01*
X0065468Y0050233D01*
X0065321Y0050291D01*
X0065175Y0050353D01*
X0065031Y0050418D01*
X0064889Y0050488D01*
X0064748Y0050560D01*
X0064609Y0050637D01*
X0064473Y0050716D01*
X0064338Y0050800D01*
X0064205Y0050886D01*
X0064075Y0050976D01*
X0063947Y0051069D01*
X0063821Y0051165D01*
X0063698Y0051265D01*
X0063577Y0051367D01*
X0063459Y0051472D01*
X0063344Y0051581D01*
X0063231Y0051692D01*
X0063121Y0051806D01*
X0063014Y0051923D01*
X0062910Y0052042D01*
X0062809Y0052164D01*
X0062712Y0052289D01*
X0062617Y0052416D01*
X0062526Y0052545D01*
X0062437Y0052676D01*
X0062353Y0052810D01*
X0062271Y0052946D01*
X0062193Y0053083D01*
X0062119Y0053223D01*
X0062048Y0053365D01*
X0061980Y0053508D01*
X0061916Y0053653D01*
X0061856Y0053799D01*
X0061800Y0053947D01*
X0061747Y0054096D01*
X0061698Y0054247D01*
X0061653Y0054399D01*
X0061612Y0054552D01*
X0061574Y0054705D01*
X0061541Y0054860D01*
X0061511Y0055016D01*
X0061485Y0055172D01*
X0061464Y0055329D01*
X0061446Y0055486D01*
X0061432Y0055644D01*
X0061422Y0055802D01*
X0061416Y0055960D01*
X0061414Y0056118D01*
X0033855Y0142732D02*
X0033857Y0142890D01*
X0033863Y0143048D01*
X0033873Y0143206D01*
X0033887Y0143364D01*
X0033905Y0143521D01*
X0033926Y0143678D01*
X0033952Y0143834D01*
X0033982Y0143990D01*
X0034015Y0144145D01*
X0034053Y0144298D01*
X0034094Y0144451D01*
X0034139Y0144603D01*
X0034188Y0144754D01*
X0034241Y0144903D01*
X0034297Y0145051D01*
X0034357Y0145197D01*
X0034421Y0145342D01*
X0034489Y0145485D01*
X0034560Y0145627D01*
X0034634Y0145767D01*
X0034712Y0145904D01*
X0034794Y0146040D01*
X0034878Y0146174D01*
X0034967Y0146305D01*
X0035058Y0146434D01*
X0035153Y0146561D01*
X0035250Y0146686D01*
X0035351Y0146808D01*
X0035455Y0146927D01*
X0035562Y0147044D01*
X0035672Y0147158D01*
X0035785Y0147269D01*
X0035900Y0147378D01*
X0036018Y0147483D01*
X0036139Y0147585D01*
X0036262Y0147685D01*
X0036388Y0147781D01*
X0036516Y0147874D01*
X0036646Y0147964D01*
X0036779Y0148050D01*
X0036914Y0148134D01*
X0037050Y0148213D01*
X0037189Y0148290D01*
X0037330Y0148362D01*
X0037472Y0148432D01*
X0037616Y0148497D01*
X0037762Y0148559D01*
X0037909Y0148617D01*
X0038058Y0148672D01*
X0038208Y0148723D01*
X0038359Y0148770D01*
X0038511Y0148813D01*
X0038664Y0148852D01*
X0038819Y0148888D01*
X0038974Y0148919D01*
X0039130Y0148947D01*
X0039286Y0148971D01*
X0039443Y0148991D01*
X0039601Y0149007D01*
X0039758Y0149019D01*
X0039917Y0149027D01*
X0040075Y0149031D01*
X0040233Y0149031D01*
X0040391Y0149027D01*
X0040550Y0149019D01*
X0040707Y0149007D01*
X0040865Y0148991D01*
X0041022Y0148971D01*
X0041178Y0148947D01*
X0041334Y0148919D01*
X0041489Y0148888D01*
X0041644Y0148852D01*
X0041797Y0148813D01*
X0041949Y0148770D01*
X0042100Y0148723D01*
X0042250Y0148672D01*
X0042399Y0148617D01*
X0042546Y0148559D01*
X0042692Y0148497D01*
X0042836Y0148432D01*
X0042978Y0148362D01*
X0043119Y0148290D01*
X0043258Y0148213D01*
X0043394Y0148134D01*
X0043529Y0148050D01*
X0043662Y0147964D01*
X0043792Y0147874D01*
X0043920Y0147781D01*
X0044046Y0147685D01*
X0044169Y0147585D01*
X0044290Y0147483D01*
X0044408Y0147378D01*
X0044523Y0147269D01*
X0044636Y0147158D01*
X0044746Y0147044D01*
X0044853Y0146927D01*
X0044957Y0146808D01*
X0045058Y0146686D01*
X0045155Y0146561D01*
X0045250Y0146434D01*
X0045341Y0146305D01*
X0045430Y0146174D01*
X0045514Y0146040D01*
X0045596Y0145904D01*
X0045674Y0145767D01*
X0045748Y0145627D01*
X0045819Y0145485D01*
X0045887Y0145342D01*
X0045951Y0145197D01*
X0046011Y0145051D01*
X0046067Y0144903D01*
X0046120Y0144754D01*
X0046169Y0144603D01*
X0046214Y0144451D01*
X0046255Y0144298D01*
X0046293Y0144145D01*
X0046326Y0143990D01*
X0046356Y0143834D01*
X0046382Y0143678D01*
X0046403Y0143521D01*
X0046421Y0143364D01*
X0046435Y0143206D01*
X0046445Y0143048D01*
X0046451Y0142890D01*
X0046453Y0142732D01*
X0046451Y0142574D01*
X0046445Y0142416D01*
X0046435Y0142258D01*
X0046421Y0142100D01*
X0046403Y0141943D01*
X0046382Y0141786D01*
X0046356Y0141630D01*
X0046326Y0141474D01*
X0046293Y0141319D01*
X0046255Y0141166D01*
X0046214Y0141013D01*
X0046169Y0140861D01*
X0046120Y0140710D01*
X0046067Y0140561D01*
X0046011Y0140413D01*
X0045951Y0140267D01*
X0045887Y0140122D01*
X0045819Y0139979D01*
X0045748Y0139837D01*
X0045674Y0139697D01*
X0045596Y0139560D01*
X0045514Y0139424D01*
X0045430Y0139290D01*
X0045341Y0139159D01*
X0045250Y0139030D01*
X0045155Y0138903D01*
X0045058Y0138778D01*
X0044957Y0138656D01*
X0044853Y0138537D01*
X0044746Y0138420D01*
X0044636Y0138306D01*
X0044523Y0138195D01*
X0044408Y0138086D01*
X0044290Y0137981D01*
X0044169Y0137879D01*
X0044046Y0137779D01*
X0043920Y0137683D01*
X0043792Y0137590D01*
X0043662Y0137500D01*
X0043529Y0137414D01*
X0043394Y0137330D01*
X0043258Y0137251D01*
X0043119Y0137174D01*
X0042978Y0137102D01*
X0042836Y0137032D01*
X0042692Y0136967D01*
X0042546Y0136905D01*
X0042399Y0136847D01*
X0042250Y0136792D01*
X0042100Y0136741D01*
X0041949Y0136694D01*
X0041797Y0136651D01*
X0041644Y0136612D01*
X0041489Y0136576D01*
X0041334Y0136545D01*
X0041178Y0136517D01*
X0041022Y0136493D01*
X0040865Y0136473D01*
X0040707Y0136457D01*
X0040550Y0136445D01*
X0040391Y0136437D01*
X0040233Y0136433D01*
X0040075Y0136433D01*
X0039917Y0136437D01*
X0039758Y0136445D01*
X0039601Y0136457D01*
X0039443Y0136473D01*
X0039286Y0136493D01*
X0039130Y0136517D01*
X0038974Y0136545D01*
X0038819Y0136576D01*
X0038664Y0136612D01*
X0038511Y0136651D01*
X0038359Y0136694D01*
X0038208Y0136741D01*
X0038058Y0136792D01*
X0037909Y0136847D01*
X0037762Y0136905D01*
X0037616Y0136967D01*
X0037472Y0137032D01*
X0037330Y0137102D01*
X0037189Y0137174D01*
X0037050Y0137251D01*
X0036914Y0137330D01*
X0036779Y0137414D01*
X0036646Y0137500D01*
X0036516Y0137590D01*
X0036388Y0137683D01*
X0036262Y0137779D01*
X0036139Y0137879D01*
X0036018Y0137981D01*
X0035900Y0138086D01*
X0035785Y0138195D01*
X0035672Y0138306D01*
X0035562Y0138420D01*
X0035455Y0138537D01*
X0035351Y0138656D01*
X0035250Y0138778D01*
X0035153Y0138903D01*
X0035058Y0139030D01*
X0034967Y0139159D01*
X0034878Y0139290D01*
X0034794Y0139424D01*
X0034712Y0139560D01*
X0034634Y0139697D01*
X0034560Y0139837D01*
X0034489Y0139979D01*
X0034421Y0140122D01*
X0034357Y0140267D01*
X0034297Y0140413D01*
X0034241Y0140561D01*
X0034188Y0140710D01*
X0034139Y0140861D01*
X0034094Y0141013D01*
X0034053Y0141166D01*
X0034015Y0141319D01*
X0033982Y0141474D01*
X0033952Y0141630D01*
X0033926Y0141786D01*
X0033905Y0141943D01*
X0033887Y0142100D01*
X0033873Y0142258D01*
X0033863Y0142416D01*
X0033857Y0142574D01*
X0033855Y0142732D01*
X0182674Y0028559D02*
X0182676Y0028717D01*
X0182682Y0028875D01*
X0182692Y0029033D01*
X0182706Y0029191D01*
X0182724Y0029348D01*
X0182745Y0029505D01*
X0182771Y0029661D01*
X0182801Y0029817D01*
X0182834Y0029972D01*
X0182872Y0030125D01*
X0182913Y0030278D01*
X0182958Y0030430D01*
X0183007Y0030581D01*
X0183060Y0030730D01*
X0183116Y0030878D01*
X0183176Y0031024D01*
X0183240Y0031169D01*
X0183308Y0031312D01*
X0183379Y0031454D01*
X0183453Y0031594D01*
X0183531Y0031731D01*
X0183613Y0031867D01*
X0183697Y0032001D01*
X0183786Y0032132D01*
X0183877Y0032261D01*
X0183972Y0032388D01*
X0184069Y0032513D01*
X0184170Y0032635D01*
X0184274Y0032754D01*
X0184381Y0032871D01*
X0184491Y0032985D01*
X0184604Y0033096D01*
X0184719Y0033205D01*
X0184837Y0033310D01*
X0184958Y0033412D01*
X0185081Y0033512D01*
X0185207Y0033608D01*
X0185335Y0033701D01*
X0185465Y0033791D01*
X0185598Y0033877D01*
X0185733Y0033961D01*
X0185869Y0034040D01*
X0186008Y0034117D01*
X0186149Y0034189D01*
X0186291Y0034259D01*
X0186435Y0034324D01*
X0186581Y0034386D01*
X0186728Y0034444D01*
X0186877Y0034499D01*
X0187027Y0034550D01*
X0187178Y0034597D01*
X0187330Y0034640D01*
X0187483Y0034679D01*
X0187638Y0034715D01*
X0187793Y0034746D01*
X0187949Y0034774D01*
X0188105Y0034798D01*
X0188262Y0034818D01*
X0188420Y0034834D01*
X0188577Y0034846D01*
X0188736Y0034854D01*
X0188894Y0034858D01*
X0189052Y0034858D01*
X0189210Y0034854D01*
X0189369Y0034846D01*
X0189526Y0034834D01*
X0189684Y0034818D01*
X0189841Y0034798D01*
X0189997Y0034774D01*
X0190153Y0034746D01*
X0190308Y0034715D01*
X0190463Y0034679D01*
X0190616Y0034640D01*
X0190768Y0034597D01*
X0190919Y0034550D01*
X0191069Y0034499D01*
X0191218Y0034444D01*
X0191365Y0034386D01*
X0191511Y0034324D01*
X0191655Y0034259D01*
X0191797Y0034189D01*
X0191938Y0034117D01*
X0192077Y0034040D01*
X0192213Y0033961D01*
X0192348Y0033877D01*
X0192481Y0033791D01*
X0192611Y0033701D01*
X0192739Y0033608D01*
X0192865Y0033512D01*
X0192988Y0033412D01*
X0193109Y0033310D01*
X0193227Y0033205D01*
X0193342Y0033096D01*
X0193455Y0032985D01*
X0193565Y0032871D01*
X0193672Y0032754D01*
X0193776Y0032635D01*
X0193877Y0032513D01*
X0193974Y0032388D01*
X0194069Y0032261D01*
X0194160Y0032132D01*
X0194249Y0032001D01*
X0194333Y0031867D01*
X0194415Y0031731D01*
X0194493Y0031594D01*
X0194567Y0031454D01*
X0194638Y0031312D01*
X0194706Y0031169D01*
X0194770Y0031024D01*
X0194830Y0030878D01*
X0194886Y0030730D01*
X0194939Y0030581D01*
X0194988Y0030430D01*
X0195033Y0030278D01*
X0195074Y0030125D01*
X0195112Y0029972D01*
X0195145Y0029817D01*
X0195175Y0029661D01*
X0195201Y0029505D01*
X0195222Y0029348D01*
X0195240Y0029191D01*
X0195254Y0029033D01*
X0195264Y0028875D01*
X0195270Y0028717D01*
X0195272Y0028559D01*
X0195270Y0028401D01*
X0195264Y0028243D01*
X0195254Y0028085D01*
X0195240Y0027927D01*
X0195222Y0027770D01*
X0195201Y0027613D01*
X0195175Y0027457D01*
X0195145Y0027301D01*
X0195112Y0027146D01*
X0195074Y0026993D01*
X0195033Y0026840D01*
X0194988Y0026688D01*
X0194939Y0026537D01*
X0194886Y0026388D01*
X0194830Y0026240D01*
X0194770Y0026094D01*
X0194706Y0025949D01*
X0194638Y0025806D01*
X0194567Y0025664D01*
X0194493Y0025524D01*
X0194415Y0025387D01*
X0194333Y0025251D01*
X0194249Y0025117D01*
X0194160Y0024986D01*
X0194069Y0024857D01*
X0193974Y0024730D01*
X0193877Y0024605D01*
X0193776Y0024483D01*
X0193672Y0024364D01*
X0193565Y0024247D01*
X0193455Y0024133D01*
X0193342Y0024022D01*
X0193227Y0023913D01*
X0193109Y0023808D01*
X0192988Y0023706D01*
X0192865Y0023606D01*
X0192739Y0023510D01*
X0192611Y0023417D01*
X0192481Y0023327D01*
X0192348Y0023241D01*
X0192213Y0023157D01*
X0192077Y0023078D01*
X0191938Y0023001D01*
X0191797Y0022929D01*
X0191655Y0022859D01*
X0191511Y0022794D01*
X0191365Y0022732D01*
X0191218Y0022674D01*
X0191069Y0022619D01*
X0190919Y0022568D01*
X0190768Y0022521D01*
X0190616Y0022478D01*
X0190463Y0022439D01*
X0190308Y0022403D01*
X0190153Y0022372D01*
X0189997Y0022344D01*
X0189841Y0022320D01*
X0189684Y0022300D01*
X0189526Y0022284D01*
X0189369Y0022272D01*
X0189210Y0022264D01*
X0189052Y0022260D01*
X0188894Y0022260D01*
X0188736Y0022264D01*
X0188577Y0022272D01*
X0188420Y0022284D01*
X0188262Y0022300D01*
X0188105Y0022320D01*
X0187949Y0022344D01*
X0187793Y0022372D01*
X0187638Y0022403D01*
X0187483Y0022439D01*
X0187330Y0022478D01*
X0187178Y0022521D01*
X0187027Y0022568D01*
X0186877Y0022619D01*
X0186728Y0022674D01*
X0186581Y0022732D01*
X0186435Y0022794D01*
X0186291Y0022859D01*
X0186149Y0022929D01*
X0186008Y0023001D01*
X0185869Y0023078D01*
X0185733Y0023157D01*
X0185598Y0023241D01*
X0185465Y0023327D01*
X0185335Y0023417D01*
X0185207Y0023510D01*
X0185081Y0023606D01*
X0184958Y0023706D01*
X0184837Y0023808D01*
X0184719Y0023913D01*
X0184604Y0024022D01*
X0184491Y0024133D01*
X0184381Y0024247D01*
X0184274Y0024364D01*
X0184170Y0024483D01*
X0184069Y0024605D01*
X0183972Y0024730D01*
X0183877Y0024857D01*
X0183786Y0024986D01*
X0183697Y0025117D01*
X0183613Y0025251D01*
X0183531Y0025387D01*
X0183453Y0025524D01*
X0183379Y0025664D01*
X0183308Y0025806D01*
X0183240Y0025949D01*
X0183176Y0026094D01*
X0183116Y0026240D01*
X0183060Y0026388D01*
X0183007Y0026537D01*
X0182958Y0026688D01*
X0182913Y0026840D01*
X0182872Y0026993D01*
X0182834Y0027146D01*
X0182801Y0027301D01*
X0182771Y0027457D01*
X0182745Y0027613D01*
X0182724Y0027770D01*
X0182706Y0027927D01*
X0182692Y0028085D01*
X0182682Y0028243D01*
X0182676Y0028401D01*
X0182674Y0028559D01*
X0331493Y0028559D02*
X0331495Y0028717D01*
X0331501Y0028875D01*
X0331511Y0029033D01*
X0331525Y0029191D01*
X0331543Y0029348D01*
X0331564Y0029505D01*
X0331590Y0029661D01*
X0331620Y0029817D01*
X0331653Y0029972D01*
X0331691Y0030125D01*
X0331732Y0030278D01*
X0331777Y0030430D01*
X0331826Y0030581D01*
X0331879Y0030730D01*
X0331935Y0030878D01*
X0331995Y0031024D01*
X0332059Y0031169D01*
X0332127Y0031312D01*
X0332198Y0031454D01*
X0332272Y0031594D01*
X0332350Y0031731D01*
X0332432Y0031867D01*
X0332516Y0032001D01*
X0332605Y0032132D01*
X0332696Y0032261D01*
X0332791Y0032388D01*
X0332888Y0032513D01*
X0332989Y0032635D01*
X0333093Y0032754D01*
X0333200Y0032871D01*
X0333310Y0032985D01*
X0333423Y0033096D01*
X0333538Y0033205D01*
X0333656Y0033310D01*
X0333777Y0033412D01*
X0333900Y0033512D01*
X0334026Y0033608D01*
X0334154Y0033701D01*
X0334284Y0033791D01*
X0334417Y0033877D01*
X0334552Y0033961D01*
X0334688Y0034040D01*
X0334827Y0034117D01*
X0334968Y0034189D01*
X0335110Y0034259D01*
X0335254Y0034324D01*
X0335400Y0034386D01*
X0335547Y0034444D01*
X0335696Y0034499D01*
X0335846Y0034550D01*
X0335997Y0034597D01*
X0336149Y0034640D01*
X0336302Y0034679D01*
X0336457Y0034715D01*
X0336612Y0034746D01*
X0336768Y0034774D01*
X0336924Y0034798D01*
X0337081Y0034818D01*
X0337239Y0034834D01*
X0337396Y0034846D01*
X0337555Y0034854D01*
X0337713Y0034858D01*
X0337871Y0034858D01*
X0338029Y0034854D01*
X0338188Y0034846D01*
X0338345Y0034834D01*
X0338503Y0034818D01*
X0338660Y0034798D01*
X0338816Y0034774D01*
X0338972Y0034746D01*
X0339127Y0034715D01*
X0339282Y0034679D01*
X0339435Y0034640D01*
X0339587Y0034597D01*
X0339738Y0034550D01*
X0339888Y0034499D01*
X0340037Y0034444D01*
X0340184Y0034386D01*
X0340330Y0034324D01*
X0340474Y0034259D01*
X0340616Y0034189D01*
X0340757Y0034117D01*
X0340896Y0034040D01*
X0341032Y0033961D01*
X0341167Y0033877D01*
X0341300Y0033791D01*
X0341430Y0033701D01*
X0341558Y0033608D01*
X0341684Y0033512D01*
X0341807Y0033412D01*
X0341928Y0033310D01*
X0342046Y0033205D01*
X0342161Y0033096D01*
X0342274Y0032985D01*
X0342384Y0032871D01*
X0342491Y0032754D01*
X0342595Y0032635D01*
X0342696Y0032513D01*
X0342793Y0032388D01*
X0342888Y0032261D01*
X0342979Y0032132D01*
X0343068Y0032001D01*
X0343152Y0031867D01*
X0343234Y0031731D01*
X0343312Y0031594D01*
X0343386Y0031454D01*
X0343457Y0031312D01*
X0343525Y0031169D01*
X0343589Y0031024D01*
X0343649Y0030878D01*
X0343705Y0030730D01*
X0343758Y0030581D01*
X0343807Y0030430D01*
X0343852Y0030278D01*
X0343893Y0030125D01*
X0343931Y0029972D01*
X0343964Y0029817D01*
X0343994Y0029661D01*
X0344020Y0029505D01*
X0344041Y0029348D01*
X0344059Y0029191D01*
X0344073Y0029033D01*
X0344083Y0028875D01*
X0344089Y0028717D01*
X0344091Y0028559D01*
X0344089Y0028401D01*
X0344083Y0028243D01*
X0344073Y0028085D01*
X0344059Y0027927D01*
X0344041Y0027770D01*
X0344020Y0027613D01*
X0343994Y0027457D01*
X0343964Y0027301D01*
X0343931Y0027146D01*
X0343893Y0026993D01*
X0343852Y0026840D01*
X0343807Y0026688D01*
X0343758Y0026537D01*
X0343705Y0026388D01*
X0343649Y0026240D01*
X0343589Y0026094D01*
X0343525Y0025949D01*
X0343457Y0025806D01*
X0343386Y0025664D01*
X0343312Y0025524D01*
X0343234Y0025387D01*
X0343152Y0025251D01*
X0343068Y0025117D01*
X0342979Y0024986D01*
X0342888Y0024857D01*
X0342793Y0024730D01*
X0342696Y0024605D01*
X0342595Y0024483D01*
X0342491Y0024364D01*
X0342384Y0024247D01*
X0342274Y0024133D01*
X0342161Y0024022D01*
X0342046Y0023913D01*
X0341928Y0023808D01*
X0341807Y0023706D01*
X0341684Y0023606D01*
X0341558Y0023510D01*
X0341430Y0023417D01*
X0341300Y0023327D01*
X0341167Y0023241D01*
X0341032Y0023157D01*
X0340896Y0023078D01*
X0340757Y0023001D01*
X0340616Y0022929D01*
X0340474Y0022859D01*
X0340330Y0022794D01*
X0340184Y0022732D01*
X0340037Y0022674D01*
X0339888Y0022619D01*
X0339738Y0022568D01*
X0339587Y0022521D01*
X0339435Y0022478D01*
X0339282Y0022439D01*
X0339127Y0022403D01*
X0338972Y0022372D01*
X0338816Y0022344D01*
X0338660Y0022320D01*
X0338503Y0022300D01*
X0338345Y0022284D01*
X0338188Y0022272D01*
X0338029Y0022264D01*
X0337871Y0022260D01*
X0337713Y0022260D01*
X0337555Y0022264D01*
X0337396Y0022272D01*
X0337239Y0022284D01*
X0337081Y0022300D01*
X0336924Y0022320D01*
X0336768Y0022344D01*
X0336612Y0022372D01*
X0336457Y0022403D01*
X0336302Y0022439D01*
X0336149Y0022478D01*
X0335997Y0022521D01*
X0335846Y0022568D01*
X0335696Y0022619D01*
X0335547Y0022674D01*
X0335400Y0022732D01*
X0335254Y0022794D01*
X0335110Y0022859D01*
X0334968Y0022929D01*
X0334827Y0023001D01*
X0334688Y0023078D01*
X0334552Y0023157D01*
X0334417Y0023241D01*
X0334284Y0023327D01*
X0334154Y0023417D01*
X0334026Y0023510D01*
X0333900Y0023606D01*
X0333777Y0023706D01*
X0333656Y0023808D01*
X0333538Y0023913D01*
X0333423Y0024022D01*
X0333310Y0024133D01*
X0333200Y0024247D01*
X0333093Y0024364D01*
X0332989Y0024483D01*
X0332888Y0024605D01*
X0332791Y0024730D01*
X0332696Y0024857D01*
X0332605Y0024986D01*
X0332516Y0025117D01*
X0332432Y0025251D01*
X0332350Y0025387D01*
X0332272Y0025524D01*
X0332198Y0025664D01*
X0332127Y0025806D01*
X0332059Y0025949D01*
X0331995Y0026094D01*
X0331935Y0026240D01*
X0331879Y0026388D01*
X0331826Y0026537D01*
X0331777Y0026688D01*
X0331732Y0026840D01*
X0331691Y0026993D01*
X0331653Y0027146D01*
X0331620Y0027301D01*
X0331590Y0027457D01*
X0331564Y0027613D01*
X0331543Y0027770D01*
X0331525Y0027927D01*
X0331511Y0028085D01*
X0331501Y0028243D01*
X0331495Y0028401D01*
X0331493Y0028559D01*
X0480312Y0028559D02*
X0480314Y0028717D01*
X0480320Y0028875D01*
X0480330Y0029033D01*
X0480344Y0029191D01*
X0480362Y0029348D01*
X0480383Y0029505D01*
X0480409Y0029661D01*
X0480439Y0029817D01*
X0480472Y0029972D01*
X0480510Y0030125D01*
X0480551Y0030278D01*
X0480596Y0030430D01*
X0480645Y0030581D01*
X0480698Y0030730D01*
X0480754Y0030878D01*
X0480814Y0031024D01*
X0480878Y0031169D01*
X0480946Y0031312D01*
X0481017Y0031454D01*
X0481091Y0031594D01*
X0481169Y0031731D01*
X0481251Y0031867D01*
X0481335Y0032001D01*
X0481424Y0032132D01*
X0481515Y0032261D01*
X0481610Y0032388D01*
X0481707Y0032513D01*
X0481808Y0032635D01*
X0481912Y0032754D01*
X0482019Y0032871D01*
X0482129Y0032985D01*
X0482242Y0033096D01*
X0482357Y0033205D01*
X0482475Y0033310D01*
X0482596Y0033412D01*
X0482719Y0033512D01*
X0482845Y0033608D01*
X0482973Y0033701D01*
X0483103Y0033791D01*
X0483236Y0033877D01*
X0483371Y0033961D01*
X0483507Y0034040D01*
X0483646Y0034117D01*
X0483787Y0034189D01*
X0483929Y0034259D01*
X0484073Y0034324D01*
X0484219Y0034386D01*
X0484366Y0034444D01*
X0484515Y0034499D01*
X0484665Y0034550D01*
X0484816Y0034597D01*
X0484968Y0034640D01*
X0485121Y0034679D01*
X0485276Y0034715D01*
X0485431Y0034746D01*
X0485587Y0034774D01*
X0485743Y0034798D01*
X0485900Y0034818D01*
X0486058Y0034834D01*
X0486215Y0034846D01*
X0486374Y0034854D01*
X0486532Y0034858D01*
X0486690Y0034858D01*
X0486848Y0034854D01*
X0487007Y0034846D01*
X0487164Y0034834D01*
X0487322Y0034818D01*
X0487479Y0034798D01*
X0487635Y0034774D01*
X0487791Y0034746D01*
X0487946Y0034715D01*
X0488101Y0034679D01*
X0488254Y0034640D01*
X0488406Y0034597D01*
X0488557Y0034550D01*
X0488707Y0034499D01*
X0488856Y0034444D01*
X0489003Y0034386D01*
X0489149Y0034324D01*
X0489293Y0034259D01*
X0489435Y0034189D01*
X0489576Y0034117D01*
X0489715Y0034040D01*
X0489851Y0033961D01*
X0489986Y0033877D01*
X0490119Y0033791D01*
X0490249Y0033701D01*
X0490377Y0033608D01*
X0490503Y0033512D01*
X0490626Y0033412D01*
X0490747Y0033310D01*
X0490865Y0033205D01*
X0490980Y0033096D01*
X0491093Y0032985D01*
X0491203Y0032871D01*
X0491310Y0032754D01*
X0491414Y0032635D01*
X0491515Y0032513D01*
X0491612Y0032388D01*
X0491707Y0032261D01*
X0491798Y0032132D01*
X0491887Y0032001D01*
X0491971Y0031867D01*
X0492053Y0031731D01*
X0492131Y0031594D01*
X0492205Y0031454D01*
X0492276Y0031312D01*
X0492344Y0031169D01*
X0492408Y0031024D01*
X0492468Y0030878D01*
X0492524Y0030730D01*
X0492577Y0030581D01*
X0492626Y0030430D01*
X0492671Y0030278D01*
X0492712Y0030125D01*
X0492750Y0029972D01*
X0492783Y0029817D01*
X0492813Y0029661D01*
X0492839Y0029505D01*
X0492860Y0029348D01*
X0492878Y0029191D01*
X0492892Y0029033D01*
X0492902Y0028875D01*
X0492908Y0028717D01*
X0492910Y0028559D01*
X0492908Y0028401D01*
X0492902Y0028243D01*
X0492892Y0028085D01*
X0492878Y0027927D01*
X0492860Y0027770D01*
X0492839Y0027613D01*
X0492813Y0027457D01*
X0492783Y0027301D01*
X0492750Y0027146D01*
X0492712Y0026993D01*
X0492671Y0026840D01*
X0492626Y0026688D01*
X0492577Y0026537D01*
X0492524Y0026388D01*
X0492468Y0026240D01*
X0492408Y0026094D01*
X0492344Y0025949D01*
X0492276Y0025806D01*
X0492205Y0025664D01*
X0492131Y0025524D01*
X0492053Y0025387D01*
X0491971Y0025251D01*
X0491887Y0025117D01*
X0491798Y0024986D01*
X0491707Y0024857D01*
X0491612Y0024730D01*
X0491515Y0024605D01*
X0491414Y0024483D01*
X0491310Y0024364D01*
X0491203Y0024247D01*
X0491093Y0024133D01*
X0490980Y0024022D01*
X0490865Y0023913D01*
X0490747Y0023808D01*
X0490626Y0023706D01*
X0490503Y0023606D01*
X0490377Y0023510D01*
X0490249Y0023417D01*
X0490119Y0023327D01*
X0489986Y0023241D01*
X0489851Y0023157D01*
X0489715Y0023078D01*
X0489576Y0023001D01*
X0489435Y0022929D01*
X0489293Y0022859D01*
X0489149Y0022794D01*
X0489003Y0022732D01*
X0488856Y0022674D01*
X0488707Y0022619D01*
X0488557Y0022568D01*
X0488406Y0022521D01*
X0488254Y0022478D01*
X0488101Y0022439D01*
X0487946Y0022403D01*
X0487791Y0022372D01*
X0487635Y0022344D01*
X0487479Y0022320D01*
X0487322Y0022300D01*
X0487164Y0022284D01*
X0487007Y0022272D01*
X0486848Y0022264D01*
X0486690Y0022260D01*
X0486532Y0022260D01*
X0486374Y0022264D01*
X0486215Y0022272D01*
X0486058Y0022284D01*
X0485900Y0022300D01*
X0485743Y0022320D01*
X0485587Y0022344D01*
X0485431Y0022372D01*
X0485276Y0022403D01*
X0485121Y0022439D01*
X0484968Y0022478D01*
X0484816Y0022521D01*
X0484665Y0022568D01*
X0484515Y0022619D01*
X0484366Y0022674D01*
X0484219Y0022732D01*
X0484073Y0022794D01*
X0483929Y0022859D01*
X0483787Y0022929D01*
X0483646Y0023001D01*
X0483507Y0023078D01*
X0483371Y0023157D01*
X0483236Y0023241D01*
X0483103Y0023327D01*
X0482973Y0023417D01*
X0482845Y0023510D01*
X0482719Y0023606D01*
X0482596Y0023706D01*
X0482475Y0023808D01*
X0482357Y0023913D01*
X0482242Y0024022D01*
X0482129Y0024133D01*
X0482019Y0024247D01*
X0481912Y0024364D01*
X0481808Y0024483D01*
X0481707Y0024605D01*
X0481610Y0024730D01*
X0481515Y0024857D01*
X0481424Y0024986D01*
X0481335Y0025117D01*
X0481251Y0025251D01*
X0481169Y0025387D01*
X0481091Y0025524D01*
X0481017Y0025664D01*
X0480946Y0025806D01*
X0480878Y0025949D01*
X0480814Y0026094D01*
X0480754Y0026240D01*
X0480698Y0026388D01*
X0480645Y0026537D01*
X0480596Y0026688D01*
X0480551Y0026840D01*
X0480510Y0026993D01*
X0480472Y0027146D01*
X0480439Y0027301D01*
X0480409Y0027457D01*
X0480383Y0027613D01*
X0480362Y0027770D01*
X0480344Y0027927D01*
X0480330Y0028085D01*
X0480320Y0028243D01*
X0480314Y0028401D01*
X0480312Y0028559D01*
X0629131Y0028559D02*
X0629133Y0028717D01*
X0629139Y0028875D01*
X0629149Y0029033D01*
X0629163Y0029191D01*
X0629181Y0029348D01*
X0629202Y0029505D01*
X0629228Y0029661D01*
X0629258Y0029817D01*
X0629291Y0029972D01*
X0629329Y0030125D01*
X0629370Y0030278D01*
X0629415Y0030430D01*
X0629464Y0030581D01*
X0629517Y0030730D01*
X0629573Y0030878D01*
X0629633Y0031024D01*
X0629697Y0031169D01*
X0629765Y0031312D01*
X0629836Y0031454D01*
X0629910Y0031594D01*
X0629988Y0031731D01*
X0630070Y0031867D01*
X0630154Y0032001D01*
X0630243Y0032132D01*
X0630334Y0032261D01*
X0630429Y0032388D01*
X0630526Y0032513D01*
X0630627Y0032635D01*
X0630731Y0032754D01*
X0630838Y0032871D01*
X0630948Y0032985D01*
X0631061Y0033096D01*
X0631176Y0033205D01*
X0631294Y0033310D01*
X0631415Y0033412D01*
X0631538Y0033512D01*
X0631664Y0033608D01*
X0631792Y0033701D01*
X0631922Y0033791D01*
X0632055Y0033877D01*
X0632190Y0033961D01*
X0632326Y0034040D01*
X0632465Y0034117D01*
X0632606Y0034189D01*
X0632748Y0034259D01*
X0632892Y0034324D01*
X0633038Y0034386D01*
X0633185Y0034444D01*
X0633334Y0034499D01*
X0633484Y0034550D01*
X0633635Y0034597D01*
X0633787Y0034640D01*
X0633940Y0034679D01*
X0634095Y0034715D01*
X0634250Y0034746D01*
X0634406Y0034774D01*
X0634562Y0034798D01*
X0634719Y0034818D01*
X0634877Y0034834D01*
X0635034Y0034846D01*
X0635193Y0034854D01*
X0635351Y0034858D01*
X0635509Y0034858D01*
X0635667Y0034854D01*
X0635826Y0034846D01*
X0635983Y0034834D01*
X0636141Y0034818D01*
X0636298Y0034798D01*
X0636454Y0034774D01*
X0636610Y0034746D01*
X0636765Y0034715D01*
X0636920Y0034679D01*
X0637073Y0034640D01*
X0637225Y0034597D01*
X0637376Y0034550D01*
X0637526Y0034499D01*
X0637675Y0034444D01*
X0637822Y0034386D01*
X0637968Y0034324D01*
X0638112Y0034259D01*
X0638254Y0034189D01*
X0638395Y0034117D01*
X0638534Y0034040D01*
X0638670Y0033961D01*
X0638805Y0033877D01*
X0638938Y0033791D01*
X0639068Y0033701D01*
X0639196Y0033608D01*
X0639322Y0033512D01*
X0639445Y0033412D01*
X0639566Y0033310D01*
X0639684Y0033205D01*
X0639799Y0033096D01*
X0639912Y0032985D01*
X0640022Y0032871D01*
X0640129Y0032754D01*
X0640233Y0032635D01*
X0640334Y0032513D01*
X0640431Y0032388D01*
X0640526Y0032261D01*
X0640617Y0032132D01*
X0640706Y0032001D01*
X0640790Y0031867D01*
X0640872Y0031731D01*
X0640950Y0031594D01*
X0641024Y0031454D01*
X0641095Y0031312D01*
X0641163Y0031169D01*
X0641227Y0031024D01*
X0641287Y0030878D01*
X0641343Y0030730D01*
X0641396Y0030581D01*
X0641445Y0030430D01*
X0641490Y0030278D01*
X0641531Y0030125D01*
X0641569Y0029972D01*
X0641602Y0029817D01*
X0641632Y0029661D01*
X0641658Y0029505D01*
X0641679Y0029348D01*
X0641697Y0029191D01*
X0641711Y0029033D01*
X0641721Y0028875D01*
X0641727Y0028717D01*
X0641729Y0028559D01*
X0641727Y0028401D01*
X0641721Y0028243D01*
X0641711Y0028085D01*
X0641697Y0027927D01*
X0641679Y0027770D01*
X0641658Y0027613D01*
X0641632Y0027457D01*
X0641602Y0027301D01*
X0641569Y0027146D01*
X0641531Y0026993D01*
X0641490Y0026840D01*
X0641445Y0026688D01*
X0641396Y0026537D01*
X0641343Y0026388D01*
X0641287Y0026240D01*
X0641227Y0026094D01*
X0641163Y0025949D01*
X0641095Y0025806D01*
X0641024Y0025664D01*
X0640950Y0025524D01*
X0640872Y0025387D01*
X0640790Y0025251D01*
X0640706Y0025117D01*
X0640617Y0024986D01*
X0640526Y0024857D01*
X0640431Y0024730D01*
X0640334Y0024605D01*
X0640233Y0024483D01*
X0640129Y0024364D01*
X0640022Y0024247D01*
X0639912Y0024133D01*
X0639799Y0024022D01*
X0639684Y0023913D01*
X0639566Y0023808D01*
X0639445Y0023706D01*
X0639322Y0023606D01*
X0639196Y0023510D01*
X0639068Y0023417D01*
X0638938Y0023327D01*
X0638805Y0023241D01*
X0638670Y0023157D01*
X0638534Y0023078D01*
X0638395Y0023001D01*
X0638254Y0022929D01*
X0638112Y0022859D01*
X0637968Y0022794D01*
X0637822Y0022732D01*
X0637675Y0022674D01*
X0637526Y0022619D01*
X0637376Y0022568D01*
X0637225Y0022521D01*
X0637073Y0022478D01*
X0636920Y0022439D01*
X0636765Y0022403D01*
X0636610Y0022372D01*
X0636454Y0022344D01*
X0636298Y0022320D01*
X0636141Y0022300D01*
X0635983Y0022284D01*
X0635826Y0022272D01*
X0635667Y0022264D01*
X0635509Y0022260D01*
X0635351Y0022260D01*
X0635193Y0022264D01*
X0635034Y0022272D01*
X0634877Y0022284D01*
X0634719Y0022300D01*
X0634562Y0022320D01*
X0634406Y0022344D01*
X0634250Y0022372D01*
X0634095Y0022403D01*
X0633940Y0022439D01*
X0633787Y0022478D01*
X0633635Y0022521D01*
X0633484Y0022568D01*
X0633334Y0022619D01*
X0633185Y0022674D01*
X0633038Y0022732D01*
X0632892Y0022794D01*
X0632748Y0022859D01*
X0632606Y0022929D01*
X0632465Y0023001D01*
X0632326Y0023078D01*
X0632190Y0023157D01*
X0632055Y0023241D01*
X0631922Y0023327D01*
X0631792Y0023417D01*
X0631664Y0023510D01*
X0631538Y0023606D01*
X0631415Y0023706D01*
X0631294Y0023808D01*
X0631176Y0023913D01*
X0631061Y0024022D01*
X0630948Y0024133D01*
X0630838Y0024247D01*
X0630731Y0024364D01*
X0630627Y0024483D01*
X0630526Y0024605D01*
X0630429Y0024730D01*
X0630334Y0024857D01*
X0630243Y0024986D01*
X0630154Y0025117D01*
X0630070Y0025251D01*
X0629988Y0025387D01*
X0629910Y0025524D01*
X0629836Y0025664D01*
X0629765Y0025806D01*
X0629697Y0025949D01*
X0629633Y0026094D01*
X0629573Y0026240D01*
X0629517Y0026388D01*
X0629464Y0026537D01*
X0629415Y0026688D01*
X0629370Y0026840D01*
X0629329Y0026993D01*
X0629291Y0027146D01*
X0629258Y0027301D01*
X0629228Y0027457D01*
X0629202Y0027613D01*
X0629181Y0027770D01*
X0629163Y0027927D01*
X0629149Y0028085D01*
X0629139Y0028243D01*
X0629133Y0028401D01*
X0629131Y0028559D01*
X0750391Y0056118D02*
X0750393Y0056276D01*
X0750399Y0056434D01*
X0750409Y0056592D01*
X0750423Y0056750D01*
X0750441Y0056907D01*
X0750462Y0057064D01*
X0750488Y0057220D01*
X0750518Y0057376D01*
X0750551Y0057531D01*
X0750589Y0057684D01*
X0750630Y0057837D01*
X0750675Y0057989D01*
X0750724Y0058140D01*
X0750777Y0058289D01*
X0750833Y0058437D01*
X0750893Y0058583D01*
X0750957Y0058728D01*
X0751025Y0058871D01*
X0751096Y0059013D01*
X0751170Y0059153D01*
X0751248Y0059290D01*
X0751330Y0059426D01*
X0751414Y0059560D01*
X0751503Y0059691D01*
X0751594Y0059820D01*
X0751689Y0059947D01*
X0751786Y0060072D01*
X0751887Y0060194D01*
X0751991Y0060313D01*
X0752098Y0060430D01*
X0752208Y0060544D01*
X0752321Y0060655D01*
X0752436Y0060764D01*
X0752554Y0060869D01*
X0752675Y0060971D01*
X0752798Y0061071D01*
X0752924Y0061167D01*
X0753052Y0061260D01*
X0753182Y0061350D01*
X0753315Y0061436D01*
X0753450Y0061520D01*
X0753586Y0061599D01*
X0753725Y0061676D01*
X0753866Y0061748D01*
X0754008Y0061818D01*
X0754152Y0061883D01*
X0754298Y0061945D01*
X0754445Y0062003D01*
X0754594Y0062058D01*
X0754744Y0062109D01*
X0754895Y0062156D01*
X0755047Y0062199D01*
X0755200Y0062238D01*
X0755355Y0062274D01*
X0755510Y0062305D01*
X0755666Y0062333D01*
X0755822Y0062357D01*
X0755979Y0062377D01*
X0756137Y0062393D01*
X0756294Y0062405D01*
X0756453Y0062413D01*
X0756611Y0062417D01*
X0756769Y0062417D01*
X0756927Y0062413D01*
X0757086Y0062405D01*
X0757243Y0062393D01*
X0757401Y0062377D01*
X0757558Y0062357D01*
X0757714Y0062333D01*
X0757870Y0062305D01*
X0758025Y0062274D01*
X0758180Y0062238D01*
X0758333Y0062199D01*
X0758485Y0062156D01*
X0758636Y0062109D01*
X0758786Y0062058D01*
X0758935Y0062003D01*
X0759082Y0061945D01*
X0759228Y0061883D01*
X0759372Y0061818D01*
X0759514Y0061748D01*
X0759655Y0061676D01*
X0759794Y0061599D01*
X0759930Y0061520D01*
X0760065Y0061436D01*
X0760198Y0061350D01*
X0760328Y0061260D01*
X0760456Y0061167D01*
X0760582Y0061071D01*
X0760705Y0060971D01*
X0760826Y0060869D01*
X0760944Y0060764D01*
X0761059Y0060655D01*
X0761172Y0060544D01*
X0761282Y0060430D01*
X0761389Y0060313D01*
X0761493Y0060194D01*
X0761594Y0060072D01*
X0761691Y0059947D01*
X0761786Y0059820D01*
X0761877Y0059691D01*
X0761966Y0059560D01*
X0762050Y0059426D01*
X0762132Y0059290D01*
X0762210Y0059153D01*
X0762284Y0059013D01*
X0762355Y0058871D01*
X0762423Y0058728D01*
X0762487Y0058583D01*
X0762547Y0058437D01*
X0762603Y0058289D01*
X0762656Y0058140D01*
X0762705Y0057989D01*
X0762750Y0057837D01*
X0762791Y0057684D01*
X0762829Y0057531D01*
X0762862Y0057376D01*
X0762892Y0057220D01*
X0762918Y0057064D01*
X0762939Y0056907D01*
X0762957Y0056750D01*
X0762971Y0056592D01*
X0762981Y0056434D01*
X0762987Y0056276D01*
X0762989Y0056118D01*
X0762987Y0055960D01*
X0762981Y0055802D01*
X0762971Y0055644D01*
X0762957Y0055486D01*
X0762939Y0055329D01*
X0762918Y0055172D01*
X0762892Y0055016D01*
X0762862Y0054860D01*
X0762829Y0054705D01*
X0762791Y0054552D01*
X0762750Y0054399D01*
X0762705Y0054247D01*
X0762656Y0054096D01*
X0762603Y0053947D01*
X0762547Y0053799D01*
X0762487Y0053653D01*
X0762423Y0053508D01*
X0762355Y0053365D01*
X0762284Y0053223D01*
X0762210Y0053083D01*
X0762132Y0052946D01*
X0762050Y0052810D01*
X0761966Y0052676D01*
X0761877Y0052545D01*
X0761786Y0052416D01*
X0761691Y0052289D01*
X0761594Y0052164D01*
X0761493Y0052042D01*
X0761389Y0051923D01*
X0761282Y0051806D01*
X0761172Y0051692D01*
X0761059Y0051581D01*
X0760944Y0051472D01*
X0760826Y0051367D01*
X0760705Y0051265D01*
X0760582Y0051165D01*
X0760456Y0051069D01*
X0760328Y0050976D01*
X0760198Y0050886D01*
X0760065Y0050800D01*
X0759930Y0050716D01*
X0759794Y0050637D01*
X0759655Y0050560D01*
X0759514Y0050488D01*
X0759372Y0050418D01*
X0759228Y0050353D01*
X0759082Y0050291D01*
X0758935Y0050233D01*
X0758786Y0050178D01*
X0758636Y0050127D01*
X0758485Y0050080D01*
X0758333Y0050037D01*
X0758180Y0049998D01*
X0758025Y0049962D01*
X0757870Y0049931D01*
X0757714Y0049903D01*
X0757558Y0049879D01*
X0757401Y0049859D01*
X0757243Y0049843D01*
X0757086Y0049831D01*
X0756927Y0049823D01*
X0756769Y0049819D01*
X0756611Y0049819D01*
X0756453Y0049823D01*
X0756294Y0049831D01*
X0756137Y0049843D01*
X0755979Y0049859D01*
X0755822Y0049879D01*
X0755666Y0049903D01*
X0755510Y0049931D01*
X0755355Y0049962D01*
X0755200Y0049998D01*
X0755047Y0050037D01*
X0754895Y0050080D01*
X0754744Y0050127D01*
X0754594Y0050178D01*
X0754445Y0050233D01*
X0754298Y0050291D01*
X0754152Y0050353D01*
X0754008Y0050418D01*
X0753866Y0050488D01*
X0753725Y0050560D01*
X0753586Y0050637D01*
X0753450Y0050716D01*
X0753315Y0050800D01*
X0753182Y0050886D01*
X0753052Y0050976D01*
X0752924Y0051069D01*
X0752798Y0051165D01*
X0752675Y0051265D01*
X0752554Y0051367D01*
X0752436Y0051472D01*
X0752321Y0051581D01*
X0752208Y0051692D01*
X0752098Y0051806D01*
X0751991Y0051923D01*
X0751887Y0052042D01*
X0751786Y0052164D01*
X0751689Y0052289D01*
X0751594Y0052416D01*
X0751503Y0052545D01*
X0751414Y0052676D01*
X0751330Y0052810D01*
X0751248Y0052946D01*
X0751170Y0053083D01*
X0751096Y0053223D01*
X0751025Y0053365D01*
X0750957Y0053508D01*
X0750893Y0053653D01*
X0750833Y0053799D01*
X0750777Y0053947D01*
X0750724Y0054096D01*
X0750675Y0054247D01*
X0750630Y0054399D01*
X0750589Y0054552D01*
X0750551Y0054705D01*
X0750518Y0054860D01*
X0750488Y0055016D01*
X0750462Y0055172D01*
X0750441Y0055329D01*
X0750423Y0055486D01*
X0750409Y0055644D01*
X0750399Y0055802D01*
X0750393Y0055960D01*
X0750391Y0056118D01*
X0777950Y0028559D02*
X0777952Y0028717D01*
X0777958Y0028875D01*
X0777968Y0029033D01*
X0777982Y0029191D01*
X0778000Y0029348D01*
X0778021Y0029505D01*
X0778047Y0029661D01*
X0778077Y0029817D01*
X0778110Y0029972D01*
X0778148Y0030125D01*
X0778189Y0030278D01*
X0778234Y0030430D01*
X0778283Y0030581D01*
X0778336Y0030730D01*
X0778392Y0030878D01*
X0778452Y0031024D01*
X0778516Y0031169D01*
X0778584Y0031312D01*
X0778655Y0031454D01*
X0778729Y0031594D01*
X0778807Y0031731D01*
X0778889Y0031867D01*
X0778973Y0032001D01*
X0779062Y0032132D01*
X0779153Y0032261D01*
X0779248Y0032388D01*
X0779345Y0032513D01*
X0779446Y0032635D01*
X0779550Y0032754D01*
X0779657Y0032871D01*
X0779767Y0032985D01*
X0779880Y0033096D01*
X0779995Y0033205D01*
X0780113Y0033310D01*
X0780234Y0033412D01*
X0780357Y0033512D01*
X0780483Y0033608D01*
X0780611Y0033701D01*
X0780741Y0033791D01*
X0780874Y0033877D01*
X0781009Y0033961D01*
X0781145Y0034040D01*
X0781284Y0034117D01*
X0781425Y0034189D01*
X0781567Y0034259D01*
X0781711Y0034324D01*
X0781857Y0034386D01*
X0782004Y0034444D01*
X0782153Y0034499D01*
X0782303Y0034550D01*
X0782454Y0034597D01*
X0782606Y0034640D01*
X0782759Y0034679D01*
X0782914Y0034715D01*
X0783069Y0034746D01*
X0783225Y0034774D01*
X0783381Y0034798D01*
X0783538Y0034818D01*
X0783696Y0034834D01*
X0783853Y0034846D01*
X0784012Y0034854D01*
X0784170Y0034858D01*
X0784328Y0034858D01*
X0784486Y0034854D01*
X0784645Y0034846D01*
X0784802Y0034834D01*
X0784960Y0034818D01*
X0785117Y0034798D01*
X0785273Y0034774D01*
X0785429Y0034746D01*
X0785584Y0034715D01*
X0785739Y0034679D01*
X0785892Y0034640D01*
X0786044Y0034597D01*
X0786195Y0034550D01*
X0786345Y0034499D01*
X0786494Y0034444D01*
X0786641Y0034386D01*
X0786787Y0034324D01*
X0786931Y0034259D01*
X0787073Y0034189D01*
X0787214Y0034117D01*
X0787353Y0034040D01*
X0787489Y0033961D01*
X0787624Y0033877D01*
X0787757Y0033791D01*
X0787887Y0033701D01*
X0788015Y0033608D01*
X0788141Y0033512D01*
X0788264Y0033412D01*
X0788385Y0033310D01*
X0788503Y0033205D01*
X0788618Y0033096D01*
X0788731Y0032985D01*
X0788841Y0032871D01*
X0788948Y0032754D01*
X0789052Y0032635D01*
X0789153Y0032513D01*
X0789250Y0032388D01*
X0789345Y0032261D01*
X0789436Y0032132D01*
X0789525Y0032001D01*
X0789609Y0031867D01*
X0789691Y0031731D01*
X0789769Y0031594D01*
X0789843Y0031454D01*
X0789914Y0031312D01*
X0789982Y0031169D01*
X0790046Y0031024D01*
X0790106Y0030878D01*
X0790162Y0030730D01*
X0790215Y0030581D01*
X0790264Y0030430D01*
X0790309Y0030278D01*
X0790350Y0030125D01*
X0790388Y0029972D01*
X0790421Y0029817D01*
X0790451Y0029661D01*
X0790477Y0029505D01*
X0790498Y0029348D01*
X0790516Y0029191D01*
X0790530Y0029033D01*
X0790540Y0028875D01*
X0790546Y0028717D01*
X0790548Y0028559D01*
X0790546Y0028401D01*
X0790540Y0028243D01*
X0790530Y0028085D01*
X0790516Y0027927D01*
X0790498Y0027770D01*
X0790477Y0027613D01*
X0790451Y0027457D01*
X0790421Y0027301D01*
X0790388Y0027146D01*
X0790350Y0026993D01*
X0790309Y0026840D01*
X0790264Y0026688D01*
X0790215Y0026537D01*
X0790162Y0026388D01*
X0790106Y0026240D01*
X0790046Y0026094D01*
X0789982Y0025949D01*
X0789914Y0025806D01*
X0789843Y0025664D01*
X0789769Y0025524D01*
X0789691Y0025387D01*
X0789609Y0025251D01*
X0789525Y0025117D01*
X0789436Y0024986D01*
X0789345Y0024857D01*
X0789250Y0024730D01*
X0789153Y0024605D01*
X0789052Y0024483D01*
X0788948Y0024364D01*
X0788841Y0024247D01*
X0788731Y0024133D01*
X0788618Y0024022D01*
X0788503Y0023913D01*
X0788385Y0023808D01*
X0788264Y0023706D01*
X0788141Y0023606D01*
X0788015Y0023510D01*
X0787887Y0023417D01*
X0787757Y0023327D01*
X0787624Y0023241D01*
X0787489Y0023157D01*
X0787353Y0023078D01*
X0787214Y0023001D01*
X0787073Y0022929D01*
X0786931Y0022859D01*
X0786787Y0022794D01*
X0786641Y0022732D01*
X0786494Y0022674D01*
X0786345Y0022619D01*
X0786195Y0022568D01*
X0786044Y0022521D01*
X0785892Y0022478D01*
X0785739Y0022439D01*
X0785584Y0022403D01*
X0785429Y0022372D01*
X0785273Y0022344D01*
X0785117Y0022320D01*
X0784960Y0022300D01*
X0784802Y0022284D01*
X0784645Y0022272D01*
X0784486Y0022264D01*
X0784328Y0022260D01*
X0784170Y0022260D01*
X0784012Y0022264D01*
X0783853Y0022272D01*
X0783696Y0022284D01*
X0783538Y0022300D01*
X0783381Y0022320D01*
X0783225Y0022344D01*
X0783069Y0022372D01*
X0782914Y0022403D01*
X0782759Y0022439D01*
X0782606Y0022478D01*
X0782454Y0022521D01*
X0782303Y0022568D01*
X0782153Y0022619D01*
X0782004Y0022674D01*
X0781857Y0022732D01*
X0781711Y0022794D01*
X0781567Y0022859D01*
X0781425Y0022929D01*
X0781284Y0023001D01*
X0781145Y0023078D01*
X0781009Y0023157D01*
X0780874Y0023241D01*
X0780741Y0023327D01*
X0780611Y0023417D01*
X0780483Y0023510D01*
X0780357Y0023606D01*
X0780234Y0023706D01*
X0780113Y0023808D01*
X0779995Y0023913D01*
X0779880Y0024022D01*
X0779767Y0024133D01*
X0779657Y0024247D01*
X0779550Y0024364D01*
X0779446Y0024483D01*
X0779345Y0024605D01*
X0779248Y0024730D01*
X0779153Y0024857D01*
X0779062Y0024986D01*
X0778973Y0025117D01*
X0778889Y0025251D01*
X0778807Y0025387D01*
X0778729Y0025524D01*
X0778655Y0025664D01*
X0778584Y0025806D01*
X0778516Y0025949D01*
X0778452Y0026094D01*
X0778392Y0026240D01*
X0778336Y0026388D01*
X0778283Y0026537D01*
X0778234Y0026688D01*
X0778189Y0026840D01*
X0778148Y0026993D01*
X0778110Y0027146D01*
X0778077Y0027301D01*
X0778047Y0027457D01*
X0778021Y0027613D01*
X0778000Y0027770D01*
X0777982Y0027927D01*
X0777968Y0028085D01*
X0777958Y0028243D01*
X0777952Y0028401D01*
X0777950Y0028559D01*
X0777950Y0142732D02*
X0777952Y0142890D01*
X0777958Y0143048D01*
X0777968Y0143206D01*
X0777982Y0143364D01*
X0778000Y0143521D01*
X0778021Y0143678D01*
X0778047Y0143834D01*
X0778077Y0143990D01*
X0778110Y0144145D01*
X0778148Y0144298D01*
X0778189Y0144451D01*
X0778234Y0144603D01*
X0778283Y0144754D01*
X0778336Y0144903D01*
X0778392Y0145051D01*
X0778452Y0145197D01*
X0778516Y0145342D01*
X0778584Y0145485D01*
X0778655Y0145627D01*
X0778729Y0145767D01*
X0778807Y0145904D01*
X0778889Y0146040D01*
X0778973Y0146174D01*
X0779062Y0146305D01*
X0779153Y0146434D01*
X0779248Y0146561D01*
X0779345Y0146686D01*
X0779446Y0146808D01*
X0779550Y0146927D01*
X0779657Y0147044D01*
X0779767Y0147158D01*
X0779880Y0147269D01*
X0779995Y0147378D01*
X0780113Y0147483D01*
X0780234Y0147585D01*
X0780357Y0147685D01*
X0780483Y0147781D01*
X0780611Y0147874D01*
X0780741Y0147964D01*
X0780874Y0148050D01*
X0781009Y0148134D01*
X0781145Y0148213D01*
X0781284Y0148290D01*
X0781425Y0148362D01*
X0781567Y0148432D01*
X0781711Y0148497D01*
X0781857Y0148559D01*
X0782004Y0148617D01*
X0782153Y0148672D01*
X0782303Y0148723D01*
X0782454Y0148770D01*
X0782606Y0148813D01*
X0782759Y0148852D01*
X0782914Y0148888D01*
X0783069Y0148919D01*
X0783225Y0148947D01*
X0783381Y0148971D01*
X0783538Y0148991D01*
X0783696Y0149007D01*
X0783853Y0149019D01*
X0784012Y0149027D01*
X0784170Y0149031D01*
X0784328Y0149031D01*
X0784486Y0149027D01*
X0784645Y0149019D01*
X0784802Y0149007D01*
X0784960Y0148991D01*
X0785117Y0148971D01*
X0785273Y0148947D01*
X0785429Y0148919D01*
X0785584Y0148888D01*
X0785739Y0148852D01*
X0785892Y0148813D01*
X0786044Y0148770D01*
X0786195Y0148723D01*
X0786345Y0148672D01*
X0786494Y0148617D01*
X0786641Y0148559D01*
X0786787Y0148497D01*
X0786931Y0148432D01*
X0787073Y0148362D01*
X0787214Y0148290D01*
X0787353Y0148213D01*
X0787489Y0148134D01*
X0787624Y0148050D01*
X0787757Y0147964D01*
X0787887Y0147874D01*
X0788015Y0147781D01*
X0788141Y0147685D01*
X0788264Y0147585D01*
X0788385Y0147483D01*
X0788503Y0147378D01*
X0788618Y0147269D01*
X0788731Y0147158D01*
X0788841Y0147044D01*
X0788948Y0146927D01*
X0789052Y0146808D01*
X0789153Y0146686D01*
X0789250Y0146561D01*
X0789345Y0146434D01*
X0789436Y0146305D01*
X0789525Y0146174D01*
X0789609Y0146040D01*
X0789691Y0145904D01*
X0789769Y0145767D01*
X0789843Y0145627D01*
X0789914Y0145485D01*
X0789982Y0145342D01*
X0790046Y0145197D01*
X0790106Y0145051D01*
X0790162Y0144903D01*
X0790215Y0144754D01*
X0790264Y0144603D01*
X0790309Y0144451D01*
X0790350Y0144298D01*
X0790388Y0144145D01*
X0790421Y0143990D01*
X0790451Y0143834D01*
X0790477Y0143678D01*
X0790498Y0143521D01*
X0790516Y0143364D01*
X0790530Y0143206D01*
X0790540Y0143048D01*
X0790546Y0142890D01*
X0790548Y0142732D01*
X0790546Y0142574D01*
X0790540Y0142416D01*
X0790530Y0142258D01*
X0790516Y0142100D01*
X0790498Y0141943D01*
X0790477Y0141786D01*
X0790451Y0141630D01*
X0790421Y0141474D01*
X0790388Y0141319D01*
X0790350Y0141166D01*
X0790309Y0141013D01*
X0790264Y0140861D01*
X0790215Y0140710D01*
X0790162Y0140561D01*
X0790106Y0140413D01*
X0790046Y0140267D01*
X0789982Y0140122D01*
X0789914Y0139979D01*
X0789843Y0139837D01*
X0789769Y0139697D01*
X0789691Y0139560D01*
X0789609Y0139424D01*
X0789525Y0139290D01*
X0789436Y0139159D01*
X0789345Y0139030D01*
X0789250Y0138903D01*
X0789153Y0138778D01*
X0789052Y0138656D01*
X0788948Y0138537D01*
X0788841Y0138420D01*
X0788731Y0138306D01*
X0788618Y0138195D01*
X0788503Y0138086D01*
X0788385Y0137981D01*
X0788264Y0137879D01*
X0788141Y0137779D01*
X0788015Y0137683D01*
X0787887Y0137590D01*
X0787757Y0137500D01*
X0787624Y0137414D01*
X0787489Y0137330D01*
X0787353Y0137251D01*
X0787214Y0137174D01*
X0787073Y0137102D01*
X0786931Y0137032D01*
X0786787Y0136967D01*
X0786641Y0136905D01*
X0786494Y0136847D01*
X0786345Y0136792D01*
X0786195Y0136741D01*
X0786044Y0136694D01*
X0785892Y0136651D01*
X0785739Y0136612D01*
X0785584Y0136576D01*
X0785429Y0136545D01*
X0785273Y0136517D01*
X0785117Y0136493D01*
X0784960Y0136473D01*
X0784802Y0136457D01*
X0784645Y0136445D01*
X0784486Y0136437D01*
X0784328Y0136433D01*
X0784170Y0136433D01*
X0784012Y0136437D01*
X0783853Y0136445D01*
X0783696Y0136457D01*
X0783538Y0136473D01*
X0783381Y0136493D01*
X0783225Y0136517D01*
X0783069Y0136545D01*
X0782914Y0136576D01*
X0782759Y0136612D01*
X0782606Y0136651D01*
X0782454Y0136694D01*
X0782303Y0136741D01*
X0782153Y0136792D01*
X0782004Y0136847D01*
X0781857Y0136905D01*
X0781711Y0136967D01*
X0781567Y0137032D01*
X0781425Y0137102D01*
X0781284Y0137174D01*
X0781145Y0137251D01*
X0781009Y0137330D01*
X0780874Y0137414D01*
X0780741Y0137500D01*
X0780611Y0137590D01*
X0780483Y0137683D01*
X0780357Y0137779D01*
X0780234Y0137879D01*
X0780113Y0137981D01*
X0779995Y0138086D01*
X0779880Y0138195D01*
X0779767Y0138306D01*
X0779657Y0138420D01*
X0779550Y0138537D01*
X0779446Y0138656D01*
X0779345Y0138778D01*
X0779248Y0138903D01*
X0779153Y0139030D01*
X0779062Y0139159D01*
X0778973Y0139290D01*
X0778889Y0139424D01*
X0778807Y0139560D01*
X0778729Y0139697D01*
X0778655Y0139837D01*
X0778584Y0139979D01*
X0778516Y0140122D01*
X0778452Y0140267D01*
X0778392Y0140413D01*
X0778336Y0140561D01*
X0778283Y0140710D01*
X0778234Y0140861D01*
X0778189Y0141013D01*
X0778148Y0141166D01*
X0778110Y0141319D01*
X0778077Y0141474D01*
X0778047Y0141630D01*
X0778021Y0141786D01*
X0778000Y0141943D01*
X0777982Y0142100D01*
X0777968Y0142258D01*
X0777958Y0142416D01*
X0777952Y0142574D01*
X0777950Y0142732D01*
X0777950Y0256906D02*
X0777952Y0257064D01*
X0777958Y0257222D01*
X0777968Y0257380D01*
X0777982Y0257538D01*
X0778000Y0257695D01*
X0778021Y0257852D01*
X0778047Y0258008D01*
X0778077Y0258164D01*
X0778110Y0258319D01*
X0778148Y0258472D01*
X0778189Y0258625D01*
X0778234Y0258777D01*
X0778283Y0258928D01*
X0778336Y0259077D01*
X0778392Y0259225D01*
X0778452Y0259371D01*
X0778516Y0259516D01*
X0778584Y0259659D01*
X0778655Y0259801D01*
X0778729Y0259941D01*
X0778807Y0260078D01*
X0778889Y0260214D01*
X0778973Y0260348D01*
X0779062Y0260479D01*
X0779153Y0260608D01*
X0779248Y0260735D01*
X0779345Y0260860D01*
X0779446Y0260982D01*
X0779550Y0261101D01*
X0779657Y0261218D01*
X0779767Y0261332D01*
X0779880Y0261443D01*
X0779995Y0261552D01*
X0780113Y0261657D01*
X0780234Y0261759D01*
X0780357Y0261859D01*
X0780483Y0261955D01*
X0780611Y0262048D01*
X0780741Y0262138D01*
X0780874Y0262224D01*
X0781009Y0262308D01*
X0781145Y0262387D01*
X0781284Y0262464D01*
X0781425Y0262536D01*
X0781567Y0262606D01*
X0781711Y0262671D01*
X0781857Y0262733D01*
X0782004Y0262791D01*
X0782153Y0262846D01*
X0782303Y0262897D01*
X0782454Y0262944D01*
X0782606Y0262987D01*
X0782759Y0263026D01*
X0782914Y0263062D01*
X0783069Y0263093D01*
X0783225Y0263121D01*
X0783381Y0263145D01*
X0783538Y0263165D01*
X0783696Y0263181D01*
X0783853Y0263193D01*
X0784012Y0263201D01*
X0784170Y0263205D01*
X0784328Y0263205D01*
X0784486Y0263201D01*
X0784645Y0263193D01*
X0784802Y0263181D01*
X0784960Y0263165D01*
X0785117Y0263145D01*
X0785273Y0263121D01*
X0785429Y0263093D01*
X0785584Y0263062D01*
X0785739Y0263026D01*
X0785892Y0262987D01*
X0786044Y0262944D01*
X0786195Y0262897D01*
X0786345Y0262846D01*
X0786494Y0262791D01*
X0786641Y0262733D01*
X0786787Y0262671D01*
X0786931Y0262606D01*
X0787073Y0262536D01*
X0787214Y0262464D01*
X0787353Y0262387D01*
X0787489Y0262308D01*
X0787624Y0262224D01*
X0787757Y0262138D01*
X0787887Y0262048D01*
X0788015Y0261955D01*
X0788141Y0261859D01*
X0788264Y0261759D01*
X0788385Y0261657D01*
X0788503Y0261552D01*
X0788618Y0261443D01*
X0788731Y0261332D01*
X0788841Y0261218D01*
X0788948Y0261101D01*
X0789052Y0260982D01*
X0789153Y0260860D01*
X0789250Y0260735D01*
X0789345Y0260608D01*
X0789436Y0260479D01*
X0789525Y0260348D01*
X0789609Y0260214D01*
X0789691Y0260078D01*
X0789769Y0259941D01*
X0789843Y0259801D01*
X0789914Y0259659D01*
X0789982Y0259516D01*
X0790046Y0259371D01*
X0790106Y0259225D01*
X0790162Y0259077D01*
X0790215Y0258928D01*
X0790264Y0258777D01*
X0790309Y0258625D01*
X0790350Y0258472D01*
X0790388Y0258319D01*
X0790421Y0258164D01*
X0790451Y0258008D01*
X0790477Y0257852D01*
X0790498Y0257695D01*
X0790516Y0257538D01*
X0790530Y0257380D01*
X0790540Y0257222D01*
X0790546Y0257064D01*
X0790548Y0256906D01*
X0790546Y0256748D01*
X0790540Y0256590D01*
X0790530Y0256432D01*
X0790516Y0256274D01*
X0790498Y0256117D01*
X0790477Y0255960D01*
X0790451Y0255804D01*
X0790421Y0255648D01*
X0790388Y0255493D01*
X0790350Y0255340D01*
X0790309Y0255187D01*
X0790264Y0255035D01*
X0790215Y0254884D01*
X0790162Y0254735D01*
X0790106Y0254587D01*
X0790046Y0254441D01*
X0789982Y0254296D01*
X0789914Y0254153D01*
X0789843Y0254011D01*
X0789769Y0253871D01*
X0789691Y0253734D01*
X0789609Y0253598D01*
X0789525Y0253464D01*
X0789436Y0253333D01*
X0789345Y0253204D01*
X0789250Y0253077D01*
X0789153Y0252952D01*
X0789052Y0252830D01*
X0788948Y0252711D01*
X0788841Y0252594D01*
X0788731Y0252480D01*
X0788618Y0252369D01*
X0788503Y0252260D01*
X0788385Y0252155D01*
X0788264Y0252053D01*
X0788141Y0251953D01*
X0788015Y0251857D01*
X0787887Y0251764D01*
X0787757Y0251674D01*
X0787624Y0251588D01*
X0787489Y0251504D01*
X0787353Y0251425D01*
X0787214Y0251348D01*
X0787073Y0251276D01*
X0786931Y0251206D01*
X0786787Y0251141D01*
X0786641Y0251079D01*
X0786494Y0251021D01*
X0786345Y0250966D01*
X0786195Y0250915D01*
X0786044Y0250868D01*
X0785892Y0250825D01*
X0785739Y0250786D01*
X0785584Y0250750D01*
X0785429Y0250719D01*
X0785273Y0250691D01*
X0785117Y0250667D01*
X0784960Y0250647D01*
X0784802Y0250631D01*
X0784645Y0250619D01*
X0784486Y0250611D01*
X0784328Y0250607D01*
X0784170Y0250607D01*
X0784012Y0250611D01*
X0783853Y0250619D01*
X0783696Y0250631D01*
X0783538Y0250647D01*
X0783381Y0250667D01*
X0783225Y0250691D01*
X0783069Y0250719D01*
X0782914Y0250750D01*
X0782759Y0250786D01*
X0782606Y0250825D01*
X0782454Y0250868D01*
X0782303Y0250915D01*
X0782153Y0250966D01*
X0782004Y0251021D01*
X0781857Y0251079D01*
X0781711Y0251141D01*
X0781567Y0251206D01*
X0781425Y0251276D01*
X0781284Y0251348D01*
X0781145Y0251425D01*
X0781009Y0251504D01*
X0780874Y0251588D01*
X0780741Y0251674D01*
X0780611Y0251764D01*
X0780483Y0251857D01*
X0780357Y0251953D01*
X0780234Y0252053D01*
X0780113Y0252155D01*
X0779995Y0252260D01*
X0779880Y0252369D01*
X0779767Y0252480D01*
X0779657Y0252594D01*
X0779550Y0252711D01*
X0779446Y0252830D01*
X0779345Y0252952D01*
X0779248Y0253077D01*
X0779153Y0253204D01*
X0779062Y0253333D01*
X0778973Y0253464D01*
X0778889Y0253598D01*
X0778807Y0253734D01*
X0778729Y0253871D01*
X0778655Y0254011D01*
X0778584Y0254153D01*
X0778516Y0254296D01*
X0778452Y0254441D01*
X0778392Y0254587D01*
X0778336Y0254735D01*
X0778283Y0254884D01*
X0778234Y0255035D01*
X0778189Y0255187D01*
X0778148Y0255340D01*
X0778110Y0255493D01*
X0778077Y0255648D01*
X0778047Y0255804D01*
X0778021Y0255960D01*
X0778000Y0256117D01*
X0777982Y0256274D01*
X0777968Y0256432D01*
X0777958Y0256590D01*
X0777952Y0256748D01*
X0777950Y0256906D01*
X0777950Y0371079D02*
X0777952Y0371237D01*
X0777958Y0371395D01*
X0777968Y0371553D01*
X0777982Y0371711D01*
X0778000Y0371868D01*
X0778021Y0372025D01*
X0778047Y0372181D01*
X0778077Y0372337D01*
X0778110Y0372492D01*
X0778148Y0372645D01*
X0778189Y0372798D01*
X0778234Y0372950D01*
X0778283Y0373101D01*
X0778336Y0373250D01*
X0778392Y0373398D01*
X0778452Y0373544D01*
X0778516Y0373689D01*
X0778584Y0373832D01*
X0778655Y0373974D01*
X0778729Y0374114D01*
X0778807Y0374251D01*
X0778889Y0374387D01*
X0778973Y0374521D01*
X0779062Y0374652D01*
X0779153Y0374781D01*
X0779248Y0374908D01*
X0779345Y0375033D01*
X0779446Y0375155D01*
X0779550Y0375274D01*
X0779657Y0375391D01*
X0779767Y0375505D01*
X0779880Y0375616D01*
X0779995Y0375725D01*
X0780113Y0375830D01*
X0780234Y0375932D01*
X0780357Y0376032D01*
X0780483Y0376128D01*
X0780611Y0376221D01*
X0780741Y0376311D01*
X0780874Y0376397D01*
X0781009Y0376481D01*
X0781145Y0376560D01*
X0781284Y0376637D01*
X0781425Y0376709D01*
X0781567Y0376779D01*
X0781711Y0376844D01*
X0781857Y0376906D01*
X0782004Y0376964D01*
X0782153Y0377019D01*
X0782303Y0377070D01*
X0782454Y0377117D01*
X0782606Y0377160D01*
X0782759Y0377199D01*
X0782914Y0377235D01*
X0783069Y0377266D01*
X0783225Y0377294D01*
X0783381Y0377318D01*
X0783538Y0377338D01*
X0783696Y0377354D01*
X0783853Y0377366D01*
X0784012Y0377374D01*
X0784170Y0377378D01*
X0784328Y0377378D01*
X0784486Y0377374D01*
X0784645Y0377366D01*
X0784802Y0377354D01*
X0784960Y0377338D01*
X0785117Y0377318D01*
X0785273Y0377294D01*
X0785429Y0377266D01*
X0785584Y0377235D01*
X0785739Y0377199D01*
X0785892Y0377160D01*
X0786044Y0377117D01*
X0786195Y0377070D01*
X0786345Y0377019D01*
X0786494Y0376964D01*
X0786641Y0376906D01*
X0786787Y0376844D01*
X0786931Y0376779D01*
X0787073Y0376709D01*
X0787214Y0376637D01*
X0787353Y0376560D01*
X0787489Y0376481D01*
X0787624Y0376397D01*
X0787757Y0376311D01*
X0787887Y0376221D01*
X0788015Y0376128D01*
X0788141Y0376032D01*
X0788264Y0375932D01*
X0788385Y0375830D01*
X0788503Y0375725D01*
X0788618Y0375616D01*
X0788731Y0375505D01*
X0788841Y0375391D01*
X0788948Y0375274D01*
X0789052Y0375155D01*
X0789153Y0375033D01*
X0789250Y0374908D01*
X0789345Y0374781D01*
X0789436Y0374652D01*
X0789525Y0374521D01*
X0789609Y0374387D01*
X0789691Y0374251D01*
X0789769Y0374114D01*
X0789843Y0373974D01*
X0789914Y0373832D01*
X0789982Y0373689D01*
X0790046Y0373544D01*
X0790106Y0373398D01*
X0790162Y0373250D01*
X0790215Y0373101D01*
X0790264Y0372950D01*
X0790309Y0372798D01*
X0790350Y0372645D01*
X0790388Y0372492D01*
X0790421Y0372337D01*
X0790451Y0372181D01*
X0790477Y0372025D01*
X0790498Y0371868D01*
X0790516Y0371711D01*
X0790530Y0371553D01*
X0790540Y0371395D01*
X0790546Y0371237D01*
X0790548Y0371079D01*
X0790546Y0370921D01*
X0790540Y0370763D01*
X0790530Y0370605D01*
X0790516Y0370447D01*
X0790498Y0370290D01*
X0790477Y0370133D01*
X0790451Y0369977D01*
X0790421Y0369821D01*
X0790388Y0369666D01*
X0790350Y0369513D01*
X0790309Y0369360D01*
X0790264Y0369208D01*
X0790215Y0369057D01*
X0790162Y0368908D01*
X0790106Y0368760D01*
X0790046Y0368614D01*
X0789982Y0368469D01*
X0789914Y0368326D01*
X0789843Y0368184D01*
X0789769Y0368044D01*
X0789691Y0367907D01*
X0789609Y0367771D01*
X0789525Y0367637D01*
X0789436Y0367506D01*
X0789345Y0367377D01*
X0789250Y0367250D01*
X0789153Y0367125D01*
X0789052Y0367003D01*
X0788948Y0366884D01*
X0788841Y0366767D01*
X0788731Y0366653D01*
X0788618Y0366542D01*
X0788503Y0366433D01*
X0788385Y0366328D01*
X0788264Y0366226D01*
X0788141Y0366126D01*
X0788015Y0366030D01*
X0787887Y0365937D01*
X0787757Y0365847D01*
X0787624Y0365761D01*
X0787489Y0365677D01*
X0787353Y0365598D01*
X0787214Y0365521D01*
X0787073Y0365449D01*
X0786931Y0365379D01*
X0786787Y0365314D01*
X0786641Y0365252D01*
X0786494Y0365194D01*
X0786345Y0365139D01*
X0786195Y0365088D01*
X0786044Y0365041D01*
X0785892Y0364998D01*
X0785739Y0364959D01*
X0785584Y0364923D01*
X0785429Y0364892D01*
X0785273Y0364864D01*
X0785117Y0364840D01*
X0784960Y0364820D01*
X0784802Y0364804D01*
X0784645Y0364792D01*
X0784486Y0364784D01*
X0784328Y0364780D01*
X0784170Y0364780D01*
X0784012Y0364784D01*
X0783853Y0364792D01*
X0783696Y0364804D01*
X0783538Y0364820D01*
X0783381Y0364840D01*
X0783225Y0364864D01*
X0783069Y0364892D01*
X0782914Y0364923D01*
X0782759Y0364959D01*
X0782606Y0364998D01*
X0782454Y0365041D01*
X0782303Y0365088D01*
X0782153Y0365139D01*
X0782004Y0365194D01*
X0781857Y0365252D01*
X0781711Y0365314D01*
X0781567Y0365379D01*
X0781425Y0365449D01*
X0781284Y0365521D01*
X0781145Y0365598D01*
X0781009Y0365677D01*
X0780874Y0365761D01*
X0780741Y0365847D01*
X0780611Y0365937D01*
X0780483Y0366030D01*
X0780357Y0366126D01*
X0780234Y0366226D01*
X0780113Y0366328D01*
X0779995Y0366433D01*
X0779880Y0366542D01*
X0779767Y0366653D01*
X0779657Y0366767D01*
X0779550Y0366884D01*
X0779446Y0367003D01*
X0779345Y0367125D01*
X0779248Y0367250D01*
X0779153Y0367377D01*
X0779062Y0367506D01*
X0778973Y0367637D01*
X0778889Y0367771D01*
X0778807Y0367907D01*
X0778729Y0368044D01*
X0778655Y0368184D01*
X0778584Y0368326D01*
X0778516Y0368469D01*
X0778452Y0368614D01*
X0778392Y0368760D01*
X0778336Y0368908D01*
X0778283Y0369057D01*
X0778234Y0369208D01*
X0778189Y0369360D01*
X0778148Y0369513D01*
X0778110Y0369666D01*
X0778077Y0369821D01*
X0778047Y0369977D01*
X0778021Y0370133D01*
X0778000Y0370290D01*
X0777982Y0370447D01*
X0777968Y0370605D01*
X0777958Y0370763D01*
X0777952Y0370921D01*
X0777950Y0371079D01*
X0750391Y0457693D02*
X0750393Y0457851D01*
X0750399Y0458009D01*
X0750409Y0458167D01*
X0750423Y0458325D01*
X0750441Y0458482D01*
X0750462Y0458639D01*
X0750488Y0458795D01*
X0750518Y0458951D01*
X0750551Y0459106D01*
X0750589Y0459259D01*
X0750630Y0459412D01*
X0750675Y0459564D01*
X0750724Y0459715D01*
X0750777Y0459864D01*
X0750833Y0460012D01*
X0750893Y0460158D01*
X0750957Y0460303D01*
X0751025Y0460446D01*
X0751096Y0460588D01*
X0751170Y0460728D01*
X0751248Y0460865D01*
X0751330Y0461001D01*
X0751414Y0461135D01*
X0751503Y0461266D01*
X0751594Y0461395D01*
X0751689Y0461522D01*
X0751786Y0461647D01*
X0751887Y0461769D01*
X0751991Y0461888D01*
X0752098Y0462005D01*
X0752208Y0462119D01*
X0752321Y0462230D01*
X0752436Y0462339D01*
X0752554Y0462444D01*
X0752675Y0462546D01*
X0752798Y0462646D01*
X0752924Y0462742D01*
X0753052Y0462835D01*
X0753182Y0462925D01*
X0753315Y0463011D01*
X0753450Y0463095D01*
X0753586Y0463174D01*
X0753725Y0463251D01*
X0753866Y0463323D01*
X0754008Y0463393D01*
X0754152Y0463458D01*
X0754298Y0463520D01*
X0754445Y0463578D01*
X0754594Y0463633D01*
X0754744Y0463684D01*
X0754895Y0463731D01*
X0755047Y0463774D01*
X0755200Y0463813D01*
X0755355Y0463849D01*
X0755510Y0463880D01*
X0755666Y0463908D01*
X0755822Y0463932D01*
X0755979Y0463952D01*
X0756137Y0463968D01*
X0756294Y0463980D01*
X0756453Y0463988D01*
X0756611Y0463992D01*
X0756769Y0463992D01*
X0756927Y0463988D01*
X0757086Y0463980D01*
X0757243Y0463968D01*
X0757401Y0463952D01*
X0757558Y0463932D01*
X0757714Y0463908D01*
X0757870Y0463880D01*
X0758025Y0463849D01*
X0758180Y0463813D01*
X0758333Y0463774D01*
X0758485Y0463731D01*
X0758636Y0463684D01*
X0758786Y0463633D01*
X0758935Y0463578D01*
X0759082Y0463520D01*
X0759228Y0463458D01*
X0759372Y0463393D01*
X0759514Y0463323D01*
X0759655Y0463251D01*
X0759794Y0463174D01*
X0759930Y0463095D01*
X0760065Y0463011D01*
X0760198Y0462925D01*
X0760328Y0462835D01*
X0760456Y0462742D01*
X0760582Y0462646D01*
X0760705Y0462546D01*
X0760826Y0462444D01*
X0760944Y0462339D01*
X0761059Y0462230D01*
X0761172Y0462119D01*
X0761282Y0462005D01*
X0761389Y0461888D01*
X0761493Y0461769D01*
X0761594Y0461647D01*
X0761691Y0461522D01*
X0761786Y0461395D01*
X0761877Y0461266D01*
X0761966Y0461135D01*
X0762050Y0461001D01*
X0762132Y0460865D01*
X0762210Y0460728D01*
X0762284Y0460588D01*
X0762355Y0460446D01*
X0762423Y0460303D01*
X0762487Y0460158D01*
X0762547Y0460012D01*
X0762603Y0459864D01*
X0762656Y0459715D01*
X0762705Y0459564D01*
X0762750Y0459412D01*
X0762791Y0459259D01*
X0762829Y0459106D01*
X0762862Y0458951D01*
X0762892Y0458795D01*
X0762918Y0458639D01*
X0762939Y0458482D01*
X0762957Y0458325D01*
X0762971Y0458167D01*
X0762981Y0458009D01*
X0762987Y0457851D01*
X0762989Y0457693D01*
X0762987Y0457535D01*
X0762981Y0457377D01*
X0762971Y0457219D01*
X0762957Y0457061D01*
X0762939Y0456904D01*
X0762918Y0456747D01*
X0762892Y0456591D01*
X0762862Y0456435D01*
X0762829Y0456280D01*
X0762791Y0456127D01*
X0762750Y0455974D01*
X0762705Y0455822D01*
X0762656Y0455671D01*
X0762603Y0455522D01*
X0762547Y0455374D01*
X0762487Y0455228D01*
X0762423Y0455083D01*
X0762355Y0454940D01*
X0762284Y0454798D01*
X0762210Y0454658D01*
X0762132Y0454521D01*
X0762050Y0454385D01*
X0761966Y0454251D01*
X0761877Y0454120D01*
X0761786Y0453991D01*
X0761691Y0453864D01*
X0761594Y0453739D01*
X0761493Y0453617D01*
X0761389Y0453498D01*
X0761282Y0453381D01*
X0761172Y0453267D01*
X0761059Y0453156D01*
X0760944Y0453047D01*
X0760826Y0452942D01*
X0760705Y0452840D01*
X0760582Y0452740D01*
X0760456Y0452644D01*
X0760328Y0452551D01*
X0760198Y0452461D01*
X0760065Y0452375D01*
X0759930Y0452291D01*
X0759794Y0452212D01*
X0759655Y0452135D01*
X0759514Y0452063D01*
X0759372Y0451993D01*
X0759228Y0451928D01*
X0759082Y0451866D01*
X0758935Y0451808D01*
X0758786Y0451753D01*
X0758636Y0451702D01*
X0758485Y0451655D01*
X0758333Y0451612D01*
X0758180Y0451573D01*
X0758025Y0451537D01*
X0757870Y0451506D01*
X0757714Y0451478D01*
X0757558Y0451454D01*
X0757401Y0451434D01*
X0757243Y0451418D01*
X0757086Y0451406D01*
X0756927Y0451398D01*
X0756769Y0451394D01*
X0756611Y0451394D01*
X0756453Y0451398D01*
X0756294Y0451406D01*
X0756137Y0451418D01*
X0755979Y0451434D01*
X0755822Y0451454D01*
X0755666Y0451478D01*
X0755510Y0451506D01*
X0755355Y0451537D01*
X0755200Y0451573D01*
X0755047Y0451612D01*
X0754895Y0451655D01*
X0754744Y0451702D01*
X0754594Y0451753D01*
X0754445Y0451808D01*
X0754298Y0451866D01*
X0754152Y0451928D01*
X0754008Y0451993D01*
X0753866Y0452063D01*
X0753725Y0452135D01*
X0753586Y0452212D01*
X0753450Y0452291D01*
X0753315Y0452375D01*
X0753182Y0452461D01*
X0753052Y0452551D01*
X0752924Y0452644D01*
X0752798Y0452740D01*
X0752675Y0452840D01*
X0752554Y0452942D01*
X0752436Y0453047D01*
X0752321Y0453156D01*
X0752208Y0453267D01*
X0752098Y0453381D01*
X0751991Y0453498D01*
X0751887Y0453617D01*
X0751786Y0453739D01*
X0751689Y0453864D01*
X0751594Y0453991D01*
X0751503Y0454120D01*
X0751414Y0454251D01*
X0751330Y0454385D01*
X0751248Y0454521D01*
X0751170Y0454658D01*
X0751096Y0454798D01*
X0751025Y0454940D01*
X0750957Y0455083D01*
X0750893Y0455228D01*
X0750833Y0455374D01*
X0750777Y0455522D01*
X0750724Y0455671D01*
X0750675Y0455822D01*
X0750630Y0455974D01*
X0750589Y0456127D01*
X0750551Y0456280D01*
X0750518Y0456435D01*
X0750488Y0456591D01*
X0750462Y0456747D01*
X0750441Y0456904D01*
X0750423Y0457061D01*
X0750409Y0457219D01*
X0750399Y0457377D01*
X0750393Y0457535D01*
X0750391Y0457693D01*
X0777950Y0485252D02*
X0777952Y0485410D01*
X0777958Y0485568D01*
X0777968Y0485726D01*
X0777982Y0485884D01*
X0778000Y0486041D01*
X0778021Y0486198D01*
X0778047Y0486354D01*
X0778077Y0486510D01*
X0778110Y0486665D01*
X0778148Y0486818D01*
X0778189Y0486971D01*
X0778234Y0487123D01*
X0778283Y0487274D01*
X0778336Y0487423D01*
X0778392Y0487571D01*
X0778452Y0487717D01*
X0778516Y0487862D01*
X0778584Y0488005D01*
X0778655Y0488147D01*
X0778729Y0488287D01*
X0778807Y0488424D01*
X0778889Y0488560D01*
X0778973Y0488694D01*
X0779062Y0488825D01*
X0779153Y0488954D01*
X0779248Y0489081D01*
X0779345Y0489206D01*
X0779446Y0489328D01*
X0779550Y0489447D01*
X0779657Y0489564D01*
X0779767Y0489678D01*
X0779880Y0489789D01*
X0779995Y0489898D01*
X0780113Y0490003D01*
X0780234Y0490105D01*
X0780357Y0490205D01*
X0780483Y0490301D01*
X0780611Y0490394D01*
X0780741Y0490484D01*
X0780874Y0490570D01*
X0781009Y0490654D01*
X0781145Y0490733D01*
X0781284Y0490810D01*
X0781425Y0490882D01*
X0781567Y0490952D01*
X0781711Y0491017D01*
X0781857Y0491079D01*
X0782004Y0491137D01*
X0782153Y0491192D01*
X0782303Y0491243D01*
X0782454Y0491290D01*
X0782606Y0491333D01*
X0782759Y0491372D01*
X0782914Y0491408D01*
X0783069Y0491439D01*
X0783225Y0491467D01*
X0783381Y0491491D01*
X0783538Y0491511D01*
X0783696Y0491527D01*
X0783853Y0491539D01*
X0784012Y0491547D01*
X0784170Y0491551D01*
X0784328Y0491551D01*
X0784486Y0491547D01*
X0784645Y0491539D01*
X0784802Y0491527D01*
X0784960Y0491511D01*
X0785117Y0491491D01*
X0785273Y0491467D01*
X0785429Y0491439D01*
X0785584Y0491408D01*
X0785739Y0491372D01*
X0785892Y0491333D01*
X0786044Y0491290D01*
X0786195Y0491243D01*
X0786345Y0491192D01*
X0786494Y0491137D01*
X0786641Y0491079D01*
X0786787Y0491017D01*
X0786931Y0490952D01*
X0787073Y0490882D01*
X0787214Y0490810D01*
X0787353Y0490733D01*
X0787489Y0490654D01*
X0787624Y0490570D01*
X0787757Y0490484D01*
X0787887Y0490394D01*
X0788015Y0490301D01*
X0788141Y0490205D01*
X0788264Y0490105D01*
X0788385Y0490003D01*
X0788503Y0489898D01*
X0788618Y0489789D01*
X0788731Y0489678D01*
X0788841Y0489564D01*
X0788948Y0489447D01*
X0789052Y0489328D01*
X0789153Y0489206D01*
X0789250Y0489081D01*
X0789345Y0488954D01*
X0789436Y0488825D01*
X0789525Y0488694D01*
X0789609Y0488560D01*
X0789691Y0488424D01*
X0789769Y0488287D01*
X0789843Y0488147D01*
X0789914Y0488005D01*
X0789982Y0487862D01*
X0790046Y0487717D01*
X0790106Y0487571D01*
X0790162Y0487423D01*
X0790215Y0487274D01*
X0790264Y0487123D01*
X0790309Y0486971D01*
X0790350Y0486818D01*
X0790388Y0486665D01*
X0790421Y0486510D01*
X0790451Y0486354D01*
X0790477Y0486198D01*
X0790498Y0486041D01*
X0790516Y0485884D01*
X0790530Y0485726D01*
X0790540Y0485568D01*
X0790546Y0485410D01*
X0790548Y0485252D01*
X0790546Y0485094D01*
X0790540Y0484936D01*
X0790530Y0484778D01*
X0790516Y0484620D01*
X0790498Y0484463D01*
X0790477Y0484306D01*
X0790451Y0484150D01*
X0790421Y0483994D01*
X0790388Y0483839D01*
X0790350Y0483686D01*
X0790309Y0483533D01*
X0790264Y0483381D01*
X0790215Y0483230D01*
X0790162Y0483081D01*
X0790106Y0482933D01*
X0790046Y0482787D01*
X0789982Y0482642D01*
X0789914Y0482499D01*
X0789843Y0482357D01*
X0789769Y0482217D01*
X0789691Y0482080D01*
X0789609Y0481944D01*
X0789525Y0481810D01*
X0789436Y0481679D01*
X0789345Y0481550D01*
X0789250Y0481423D01*
X0789153Y0481298D01*
X0789052Y0481176D01*
X0788948Y0481057D01*
X0788841Y0480940D01*
X0788731Y0480826D01*
X0788618Y0480715D01*
X0788503Y0480606D01*
X0788385Y0480501D01*
X0788264Y0480399D01*
X0788141Y0480299D01*
X0788015Y0480203D01*
X0787887Y0480110D01*
X0787757Y0480020D01*
X0787624Y0479934D01*
X0787489Y0479850D01*
X0787353Y0479771D01*
X0787214Y0479694D01*
X0787073Y0479622D01*
X0786931Y0479552D01*
X0786787Y0479487D01*
X0786641Y0479425D01*
X0786494Y0479367D01*
X0786345Y0479312D01*
X0786195Y0479261D01*
X0786044Y0479214D01*
X0785892Y0479171D01*
X0785739Y0479132D01*
X0785584Y0479096D01*
X0785429Y0479065D01*
X0785273Y0479037D01*
X0785117Y0479013D01*
X0784960Y0478993D01*
X0784802Y0478977D01*
X0784645Y0478965D01*
X0784486Y0478957D01*
X0784328Y0478953D01*
X0784170Y0478953D01*
X0784012Y0478957D01*
X0783853Y0478965D01*
X0783696Y0478977D01*
X0783538Y0478993D01*
X0783381Y0479013D01*
X0783225Y0479037D01*
X0783069Y0479065D01*
X0782914Y0479096D01*
X0782759Y0479132D01*
X0782606Y0479171D01*
X0782454Y0479214D01*
X0782303Y0479261D01*
X0782153Y0479312D01*
X0782004Y0479367D01*
X0781857Y0479425D01*
X0781711Y0479487D01*
X0781567Y0479552D01*
X0781425Y0479622D01*
X0781284Y0479694D01*
X0781145Y0479771D01*
X0781009Y0479850D01*
X0780874Y0479934D01*
X0780741Y0480020D01*
X0780611Y0480110D01*
X0780483Y0480203D01*
X0780357Y0480299D01*
X0780234Y0480399D01*
X0780113Y0480501D01*
X0779995Y0480606D01*
X0779880Y0480715D01*
X0779767Y0480826D01*
X0779657Y0480940D01*
X0779550Y0481057D01*
X0779446Y0481176D01*
X0779345Y0481298D01*
X0779248Y0481423D01*
X0779153Y0481550D01*
X0779062Y0481679D01*
X0778973Y0481810D01*
X0778889Y0481944D01*
X0778807Y0482080D01*
X0778729Y0482217D01*
X0778655Y0482357D01*
X0778584Y0482499D01*
X0778516Y0482642D01*
X0778452Y0482787D01*
X0778392Y0482933D01*
X0778336Y0483081D01*
X0778283Y0483230D01*
X0778234Y0483381D01*
X0778189Y0483533D01*
X0778148Y0483686D01*
X0778110Y0483839D01*
X0778077Y0483994D01*
X0778047Y0484150D01*
X0778021Y0484306D01*
X0778000Y0484463D01*
X0777982Y0484620D01*
X0777968Y0484778D01*
X0777958Y0484936D01*
X0777952Y0485094D01*
X0777950Y0485252D01*
X0629131Y0485252D02*
X0629133Y0485410D01*
X0629139Y0485568D01*
X0629149Y0485726D01*
X0629163Y0485884D01*
X0629181Y0486041D01*
X0629202Y0486198D01*
X0629228Y0486354D01*
X0629258Y0486510D01*
X0629291Y0486665D01*
X0629329Y0486818D01*
X0629370Y0486971D01*
X0629415Y0487123D01*
X0629464Y0487274D01*
X0629517Y0487423D01*
X0629573Y0487571D01*
X0629633Y0487717D01*
X0629697Y0487862D01*
X0629765Y0488005D01*
X0629836Y0488147D01*
X0629910Y0488287D01*
X0629988Y0488424D01*
X0630070Y0488560D01*
X0630154Y0488694D01*
X0630243Y0488825D01*
X0630334Y0488954D01*
X0630429Y0489081D01*
X0630526Y0489206D01*
X0630627Y0489328D01*
X0630731Y0489447D01*
X0630838Y0489564D01*
X0630948Y0489678D01*
X0631061Y0489789D01*
X0631176Y0489898D01*
X0631294Y0490003D01*
X0631415Y0490105D01*
X0631538Y0490205D01*
X0631664Y0490301D01*
X0631792Y0490394D01*
X0631922Y0490484D01*
X0632055Y0490570D01*
X0632190Y0490654D01*
X0632326Y0490733D01*
X0632465Y0490810D01*
X0632606Y0490882D01*
X0632748Y0490952D01*
X0632892Y0491017D01*
X0633038Y0491079D01*
X0633185Y0491137D01*
X0633334Y0491192D01*
X0633484Y0491243D01*
X0633635Y0491290D01*
X0633787Y0491333D01*
X0633940Y0491372D01*
X0634095Y0491408D01*
X0634250Y0491439D01*
X0634406Y0491467D01*
X0634562Y0491491D01*
X0634719Y0491511D01*
X0634877Y0491527D01*
X0635034Y0491539D01*
X0635193Y0491547D01*
X0635351Y0491551D01*
X0635509Y0491551D01*
X0635667Y0491547D01*
X0635826Y0491539D01*
X0635983Y0491527D01*
X0636141Y0491511D01*
X0636298Y0491491D01*
X0636454Y0491467D01*
X0636610Y0491439D01*
X0636765Y0491408D01*
X0636920Y0491372D01*
X0637073Y0491333D01*
X0637225Y0491290D01*
X0637376Y0491243D01*
X0637526Y0491192D01*
X0637675Y0491137D01*
X0637822Y0491079D01*
X0637968Y0491017D01*
X0638112Y0490952D01*
X0638254Y0490882D01*
X0638395Y0490810D01*
X0638534Y0490733D01*
X0638670Y0490654D01*
X0638805Y0490570D01*
X0638938Y0490484D01*
X0639068Y0490394D01*
X0639196Y0490301D01*
X0639322Y0490205D01*
X0639445Y0490105D01*
X0639566Y0490003D01*
X0639684Y0489898D01*
X0639799Y0489789D01*
X0639912Y0489678D01*
X0640022Y0489564D01*
X0640129Y0489447D01*
X0640233Y0489328D01*
X0640334Y0489206D01*
X0640431Y0489081D01*
X0640526Y0488954D01*
X0640617Y0488825D01*
X0640706Y0488694D01*
X0640790Y0488560D01*
X0640872Y0488424D01*
X0640950Y0488287D01*
X0641024Y0488147D01*
X0641095Y0488005D01*
X0641163Y0487862D01*
X0641227Y0487717D01*
X0641287Y0487571D01*
X0641343Y0487423D01*
X0641396Y0487274D01*
X0641445Y0487123D01*
X0641490Y0486971D01*
X0641531Y0486818D01*
X0641569Y0486665D01*
X0641602Y0486510D01*
X0641632Y0486354D01*
X0641658Y0486198D01*
X0641679Y0486041D01*
X0641697Y0485884D01*
X0641711Y0485726D01*
X0641721Y0485568D01*
X0641727Y0485410D01*
X0641729Y0485252D01*
X0641727Y0485094D01*
X0641721Y0484936D01*
X0641711Y0484778D01*
X0641697Y0484620D01*
X0641679Y0484463D01*
X0641658Y0484306D01*
X0641632Y0484150D01*
X0641602Y0483994D01*
X0641569Y0483839D01*
X0641531Y0483686D01*
X0641490Y0483533D01*
X0641445Y0483381D01*
X0641396Y0483230D01*
X0641343Y0483081D01*
X0641287Y0482933D01*
X0641227Y0482787D01*
X0641163Y0482642D01*
X0641095Y0482499D01*
X0641024Y0482357D01*
X0640950Y0482217D01*
X0640872Y0482080D01*
X0640790Y0481944D01*
X0640706Y0481810D01*
X0640617Y0481679D01*
X0640526Y0481550D01*
X0640431Y0481423D01*
X0640334Y0481298D01*
X0640233Y0481176D01*
X0640129Y0481057D01*
X0640022Y0480940D01*
X0639912Y0480826D01*
X0639799Y0480715D01*
X0639684Y0480606D01*
X0639566Y0480501D01*
X0639445Y0480399D01*
X0639322Y0480299D01*
X0639196Y0480203D01*
X0639068Y0480110D01*
X0638938Y0480020D01*
X0638805Y0479934D01*
X0638670Y0479850D01*
X0638534Y0479771D01*
X0638395Y0479694D01*
X0638254Y0479622D01*
X0638112Y0479552D01*
X0637968Y0479487D01*
X0637822Y0479425D01*
X0637675Y0479367D01*
X0637526Y0479312D01*
X0637376Y0479261D01*
X0637225Y0479214D01*
X0637073Y0479171D01*
X0636920Y0479132D01*
X0636765Y0479096D01*
X0636610Y0479065D01*
X0636454Y0479037D01*
X0636298Y0479013D01*
X0636141Y0478993D01*
X0635983Y0478977D01*
X0635826Y0478965D01*
X0635667Y0478957D01*
X0635509Y0478953D01*
X0635351Y0478953D01*
X0635193Y0478957D01*
X0635034Y0478965D01*
X0634877Y0478977D01*
X0634719Y0478993D01*
X0634562Y0479013D01*
X0634406Y0479037D01*
X0634250Y0479065D01*
X0634095Y0479096D01*
X0633940Y0479132D01*
X0633787Y0479171D01*
X0633635Y0479214D01*
X0633484Y0479261D01*
X0633334Y0479312D01*
X0633185Y0479367D01*
X0633038Y0479425D01*
X0632892Y0479487D01*
X0632748Y0479552D01*
X0632606Y0479622D01*
X0632465Y0479694D01*
X0632326Y0479771D01*
X0632190Y0479850D01*
X0632055Y0479934D01*
X0631922Y0480020D01*
X0631792Y0480110D01*
X0631664Y0480203D01*
X0631538Y0480299D01*
X0631415Y0480399D01*
X0631294Y0480501D01*
X0631176Y0480606D01*
X0631061Y0480715D01*
X0630948Y0480826D01*
X0630838Y0480940D01*
X0630731Y0481057D01*
X0630627Y0481176D01*
X0630526Y0481298D01*
X0630429Y0481423D01*
X0630334Y0481550D01*
X0630243Y0481679D01*
X0630154Y0481810D01*
X0630070Y0481944D01*
X0629988Y0482080D01*
X0629910Y0482217D01*
X0629836Y0482357D01*
X0629765Y0482499D01*
X0629697Y0482642D01*
X0629633Y0482787D01*
X0629573Y0482933D01*
X0629517Y0483081D01*
X0629464Y0483230D01*
X0629415Y0483381D01*
X0629370Y0483533D01*
X0629329Y0483686D01*
X0629291Y0483839D01*
X0629258Y0483994D01*
X0629228Y0484150D01*
X0629202Y0484306D01*
X0629181Y0484463D01*
X0629163Y0484620D01*
X0629149Y0484778D01*
X0629139Y0484936D01*
X0629133Y0485094D01*
X0629131Y0485252D01*
X0480312Y0485252D02*
X0480314Y0485410D01*
X0480320Y0485568D01*
X0480330Y0485726D01*
X0480344Y0485884D01*
X0480362Y0486041D01*
X0480383Y0486198D01*
X0480409Y0486354D01*
X0480439Y0486510D01*
X0480472Y0486665D01*
X0480510Y0486818D01*
X0480551Y0486971D01*
X0480596Y0487123D01*
X0480645Y0487274D01*
X0480698Y0487423D01*
X0480754Y0487571D01*
X0480814Y0487717D01*
X0480878Y0487862D01*
X0480946Y0488005D01*
X0481017Y0488147D01*
X0481091Y0488287D01*
X0481169Y0488424D01*
X0481251Y0488560D01*
X0481335Y0488694D01*
X0481424Y0488825D01*
X0481515Y0488954D01*
X0481610Y0489081D01*
X0481707Y0489206D01*
X0481808Y0489328D01*
X0481912Y0489447D01*
X0482019Y0489564D01*
X0482129Y0489678D01*
X0482242Y0489789D01*
X0482357Y0489898D01*
X0482475Y0490003D01*
X0482596Y0490105D01*
X0482719Y0490205D01*
X0482845Y0490301D01*
X0482973Y0490394D01*
X0483103Y0490484D01*
X0483236Y0490570D01*
X0483371Y0490654D01*
X0483507Y0490733D01*
X0483646Y0490810D01*
X0483787Y0490882D01*
X0483929Y0490952D01*
X0484073Y0491017D01*
X0484219Y0491079D01*
X0484366Y0491137D01*
X0484515Y0491192D01*
X0484665Y0491243D01*
X0484816Y0491290D01*
X0484968Y0491333D01*
X0485121Y0491372D01*
X0485276Y0491408D01*
X0485431Y0491439D01*
X0485587Y0491467D01*
X0485743Y0491491D01*
X0485900Y0491511D01*
X0486058Y0491527D01*
X0486215Y0491539D01*
X0486374Y0491547D01*
X0486532Y0491551D01*
X0486690Y0491551D01*
X0486848Y0491547D01*
X0487007Y0491539D01*
X0487164Y0491527D01*
X0487322Y0491511D01*
X0487479Y0491491D01*
X0487635Y0491467D01*
X0487791Y0491439D01*
X0487946Y0491408D01*
X0488101Y0491372D01*
X0488254Y0491333D01*
X0488406Y0491290D01*
X0488557Y0491243D01*
X0488707Y0491192D01*
X0488856Y0491137D01*
X0489003Y0491079D01*
X0489149Y0491017D01*
X0489293Y0490952D01*
X0489435Y0490882D01*
X0489576Y0490810D01*
X0489715Y0490733D01*
X0489851Y0490654D01*
X0489986Y0490570D01*
X0490119Y0490484D01*
X0490249Y0490394D01*
X0490377Y0490301D01*
X0490503Y0490205D01*
X0490626Y0490105D01*
X0490747Y0490003D01*
X0490865Y0489898D01*
X0490980Y0489789D01*
X0491093Y0489678D01*
X0491203Y0489564D01*
X0491310Y0489447D01*
X0491414Y0489328D01*
X0491515Y0489206D01*
X0491612Y0489081D01*
X0491707Y0488954D01*
X0491798Y0488825D01*
X0491887Y0488694D01*
X0491971Y0488560D01*
X0492053Y0488424D01*
X0492131Y0488287D01*
X0492205Y0488147D01*
X0492276Y0488005D01*
X0492344Y0487862D01*
X0492408Y0487717D01*
X0492468Y0487571D01*
X0492524Y0487423D01*
X0492577Y0487274D01*
X0492626Y0487123D01*
X0492671Y0486971D01*
X0492712Y0486818D01*
X0492750Y0486665D01*
X0492783Y0486510D01*
X0492813Y0486354D01*
X0492839Y0486198D01*
X0492860Y0486041D01*
X0492878Y0485884D01*
X0492892Y0485726D01*
X0492902Y0485568D01*
X0492908Y0485410D01*
X0492910Y0485252D01*
X0492908Y0485094D01*
X0492902Y0484936D01*
X0492892Y0484778D01*
X0492878Y0484620D01*
X0492860Y0484463D01*
X0492839Y0484306D01*
X0492813Y0484150D01*
X0492783Y0483994D01*
X0492750Y0483839D01*
X0492712Y0483686D01*
X0492671Y0483533D01*
X0492626Y0483381D01*
X0492577Y0483230D01*
X0492524Y0483081D01*
X0492468Y0482933D01*
X0492408Y0482787D01*
X0492344Y0482642D01*
X0492276Y0482499D01*
X0492205Y0482357D01*
X0492131Y0482217D01*
X0492053Y0482080D01*
X0491971Y0481944D01*
X0491887Y0481810D01*
X0491798Y0481679D01*
X0491707Y0481550D01*
X0491612Y0481423D01*
X0491515Y0481298D01*
X0491414Y0481176D01*
X0491310Y0481057D01*
X0491203Y0480940D01*
X0491093Y0480826D01*
X0490980Y0480715D01*
X0490865Y0480606D01*
X0490747Y0480501D01*
X0490626Y0480399D01*
X0490503Y0480299D01*
X0490377Y0480203D01*
X0490249Y0480110D01*
X0490119Y0480020D01*
X0489986Y0479934D01*
X0489851Y0479850D01*
X0489715Y0479771D01*
X0489576Y0479694D01*
X0489435Y0479622D01*
X0489293Y0479552D01*
X0489149Y0479487D01*
X0489003Y0479425D01*
X0488856Y0479367D01*
X0488707Y0479312D01*
X0488557Y0479261D01*
X0488406Y0479214D01*
X0488254Y0479171D01*
X0488101Y0479132D01*
X0487946Y0479096D01*
X0487791Y0479065D01*
X0487635Y0479037D01*
X0487479Y0479013D01*
X0487322Y0478993D01*
X0487164Y0478977D01*
X0487007Y0478965D01*
X0486848Y0478957D01*
X0486690Y0478953D01*
X0486532Y0478953D01*
X0486374Y0478957D01*
X0486215Y0478965D01*
X0486058Y0478977D01*
X0485900Y0478993D01*
X0485743Y0479013D01*
X0485587Y0479037D01*
X0485431Y0479065D01*
X0485276Y0479096D01*
X0485121Y0479132D01*
X0484968Y0479171D01*
X0484816Y0479214D01*
X0484665Y0479261D01*
X0484515Y0479312D01*
X0484366Y0479367D01*
X0484219Y0479425D01*
X0484073Y0479487D01*
X0483929Y0479552D01*
X0483787Y0479622D01*
X0483646Y0479694D01*
X0483507Y0479771D01*
X0483371Y0479850D01*
X0483236Y0479934D01*
X0483103Y0480020D01*
X0482973Y0480110D01*
X0482845Y0480203D01*
X0482719Y0480299D01*
X0482596Y0480399D01*
X0482475Y0480501D01*
X0482357Y0480606D01*
X0482242Y0480715D01*
X0482129Y0480826D01*
X0482019Y0480940D01*
X0481912Y0481057D01*
X0481808Y0481176D01*
X0481707Y0481298D01*
X0481610Y0481423D01*
X0481515Y0481550D01*
X0481424Y0481679D01*
X0481335Y0481810D01*
X0481251Y0481944D01*
X0481169Y0482080D01*
X0481091Y0482217D01*
X0481017Y0482357D01*
X0480946Y0482499D01*
X0480878Y0482642D01*
X0480814Y0482787D01*
X0480754Y0482933D01*
X0480698Y0483081D01*
X0480645Y0483230D01*
X0480596Y0483381D01*
X0480551Y0483533D01*
X0480510Y0483686D01*
X0480472Y0483839D01*
X0480439Y0483994D01*
X0480409Y0484150D01*
X0480383Y0484306D01*
X0480362Y0484463D01*
X0480344Y0484620D01*
X0480330Y0484778D01*
X0480320Y0484936D01*
X0480314Y0485094D01*
X0480312Y0485252D01*
X0331493Y0485252D02*
X0331495Y0485410D01*
X0331501Y0485568D01*
X0331511Y0485726D01*
X0331525Y0485884D01*
X0331543Y0486041D01*
X0331564Y0486198D01*
X0331590Y0486354D01*
X0331620Y0486510D01*
X0331653Y0486665D01*
X0331691Y0486818D01*
X0331732Y0486971D01*
X0331777Y0487123D01*
X0331826Y0487274D01*
X0331879Y0487423D01*
X0331935Y0487571D01*
X0331995Y0487717D01*
X0332059Y0487862D01*
X0332127Y0488005D01*
X0332198Y0488147D01*
X0332272Y0488287D01*
X0332350Y0488424D01*
X0332432Y0488560D01*
X0332516Y0488694D01*
X0332605Y0488825D01*
X0332696Y0488954D01*
X0332791Y0489081D01*
X0332888Y0489206D01*
X0332989Y0489328D01*
X0333093Y0489447D01*
X0333200Y0489564D01*
X0333310Y0489678D01*
X0333423Y0489789D01*
X0333538Y0489898D01*
X0333656Y0490003D01*
X0333777Y0490105D01*
X0333900Y0490205D01*
X0334026Y0490301D01*
X0334154Y0490394D01*
X0334284Y0490484D01*
X0334417Y0490570D01*
X0334552Y0490654D01*
X0334688Y0490733D01*
X0334827Y0490810D01*
X0334968Y0490882D01*
X0335110Y0490952D01*
X0335254Y0491017D01*
X0335400Y0491079D01*
X0335547Y0491137D01*
X0335696Y0491192D01*
X0335846Y0491243D01*
X0335997Y0491290D01*
X0336149Y0491333D01*
X0336302Y0491372D01*
X0336457Y0491408D01*
X0336612Y0491439D01*
X0336768Y0491467D01*
X0336924Y0491491D01*
X0337081Y0491511D01*
X0337239Y0491527D01*
X0337396Y0491539D01*
X0337555Y0491547D01*
X0337713Y0491551D01*
X0337871Y0491551D01*
X0338029Y0491547D01*
X0338188Y0491539D01*
X0338345Y0491527D01*
X0338503Y0491511D01*
X0338660Y0491491D01*
X0338816Y0491467D01*
X0338972Y0491439D01*
X0339127Y0491408D01*
X0339282Y0491372D01*
X0339435Y0491333D01*
X0339587Y0491290D01*
X0339738Y0491243D01*
X0339888Y0491192D01*
X0340037Y0491137D01*
X0340184Y0491079D01*
X0340330Y0491017D01*
X0340474Y0490952D01*
X0340616Y0490882D01*
X0340757Y0490810D01*
X0340896Y0490733D01*
X0341032Y0490654D01*
X0341167Y0490570D01*
X0341300Y0490484D01*
X0341430Y0490394D01*
X0341558Y0490301D01*
X0341684Y0490205D01*
X0341807Y0490105D01*
X0341928Y0490003D01*
X0342046Y0489898D01*
X0342161Y0489789D01*
X0342274Y0489678D01*
X0342384Y0489564D01*
X0342491Y0489447D01*
X0342595Y0489328D01*
X0342696Y0489206D01*
X0342793Y0489081D01*
X0342888Y0488954D01*
X0342979Y0488825D01*
X0343068Y0488694D01*
X0343152Y0488560D01*
X0343234Y0488424D01*
X0343312Y0488287D01*
X0343386Y0488147D01*
X0343457Y0488005D01*
X0343525Y0487862D01*
X0343589Y0487717D01*
X0343649Y0487571D01*
X0343705Y0487423D01*
X0343758Y0487274D01*
X0343807Y0487123D01*
X0343852Y0486971D01*
X0343893Y0486818D01*
X0343931Y0486665D01*
X0343964Y0486510D01*
X0343994Y0486354D01*
X0344020Y0486198D01*
X0344041Y0486041D01*
X0344059Y0485884D01*
X0344073Y0485726D01*
X0344083Y0485568D01*
X0344089Y0485410D01*
X0344091Y0485252D01*
X0344089Y0485094D01*
X0344083Y0484936D01*
X0344073Y0484778D01*
X0344059Y0484620D01*
X0344041Y0484463D01*
X0344020Y0484306D01*
X0343994Y0484150D01*
X0343964Y0483994D01*
X0343931Y0483839D01*
X0343893Y0483686D01*
X0343852Y0483533D01*
X0343807Y0483381D01*
X0343758Y0483230D01*
X0343705Y0483081D01*
X0343649Y0482933D01*
X0343589Y0482787D01*
X0343525Y0482642D01*
X0343457Y0482499D01*
X0343386Y0482357D01*
X0343312Y0482217D01*
X0343234Y0482080D01*
X0343152Y0481944D01*
X0343068Y0481810D01*
X0342979Y0481679D01*
X0342888Y0481550D01*
X0342793Y0481423D01*
X0342696Y0481298D01*
X0342595Y0481176D01*
X0342491Y0481057D01*
X0342384Y0480940D01*
X0342274Y0480826D01*
X0342161Y0480715D01*
X0342046Y0480606D01*
X0341928Y0480501D01*
X0341807Y0480399D01*
X0341684Y0480299D01*
X0341558Y0480203D01*
X0341430Y0480110D01*
X0341300Y0480020D01*
X0341167Y0479934D01*
X0341032Y0479850D01*
X0340896Y0479771D01*
X0340757Y0479694D01*
X0340616Y0479622D01*
X0340474Y0479552D01*
X0340330Y0479487D01*
X0340184Y0479425D01*
X0340037Y0479367D01*
X0339888Y0479312D01*
X0339738Y0479261D01*
X0339587Y0479214D01*
X0339435Y0479171D01*
X0339282Y0479132D01*
X0339127Y0479096D01*
X0338972Y0479065D01*
X0338816Y0479037D01*
X0338660Y0479013D01*
X0338503Y0478993D01*
X0338345Y0478977D01*
X0338188Y0478965D01*
X0338029Y0478957D01*
X0337871Y0478953D01*
X0337713Y0478953D01*
X0337555Y0478957D01*
X0337396Y0478965D01*
X0337239Y0478977D01*
X0337081Y0478993D01*
X0336924Y0479013D01*
X0336768Y0479037D01*
X0336612Y0479065D01*
X0336457Y0479096D01*
X0336302Y0479132D01*
X0336149Y0479171D01*
X0335997Y0479214D01*
X0335846Y0479261D01*
X0335696Y0479312D01*
X0335547Y0479367D01*
X0335400Y0479425D01*
X0335254Y0479487D01*
X0335110Y0479552D01*
X0334968Y0479622D01*
X0334827Y0479694D01*
X0334688Y0479771D01*
X0334552Y0479850D01*
X0334417Y0479934D01*
X0334284Y0480020D01*
X0334154Y0480110D01*
X0334026Y0480203D01*
X0333900Y0480299D01*
X0333777Y0480399D01*
X0333656Y0480501D01*
X0333538Y0480606D01*
X0333423Y0480715D01*
X0333310Y0480826D01*
X0333200Y0480940D01*
X0333093Y0481057D01*
X0332989Y0481176D01*
X0332888Y0481298D01*
X0332791Y0481423D01*
X0332696Y0481550D01*
X0332605Y0481679D01*
X0332516Y0481810D01*
X0332432Y0481944D01*
X0332350Y0482080D01*
X0332272Y0482217D01*
X0332198Y0482357D01*
X0332127Y0482499D01*
X0332059Y0482642D01*
X0331995Y0482787D01*
X0331935Y0482933D01*
X0331879Y0483081D01*
X0331826Y0483230D01*
X0331777Y0483381D01*
X0331732Y0483533D01*
X0331691Y0483686D01*
X0331653Y0483839D01*
X0331620Y0483994D01*
X0331590Y0484150D01*
X0331564Y0484306D01*
X0331543Y0484463D01*
X0331525Y0484620D01*
X0331511Y0484778D01*
X0331501Y0484936D01*
X0331495Y0485094D01*
X0331493Y0485252D01*
X0182674Y0485252D02*
X0182676Y0485410D01*
X0182682Y0485568D01*
X0182692Y0485726D01*
X0182706Y0485884D01*
X0182724Y0486041D01*
X0182745Y0486198D01*
X0182771Y0486354D01*
X0182801Y0486510D01*
X0182834Y0486665D01*
X0182872Y0486818D01*
X0182913Y0486971D01*
X0182958Y0487123D01*
X0183007Y0487274D01*
X0183060Y0487423D01*
X0183116Y0487571D01*
X0183176Y0487717D01*
X0183240Y0487862D01*
X0183308Y0488005D01*
X0183379Y0488147D01*
X0183453Y0488287D01*
X0183531Y0488424D01*
X0183613Y0488560D01*
X0183697Y0488694D01*
X0183786Y0488825D01*
X0183877Y0488954D01*
X0183972Y0489081D01*
X0184069Y0489206D01*
X0184170Y0489328D01*
X0184274Y0489447D01*
X0184381Y0489564D01*
X0184491Y0489678D01*
X0184604Y0489789D01*
X0184719Y0489898D01*
X0184837Y0490003D01*
X0184958Y0490105D01*
X0185081Y0490205D01*
X0185207Y0490301D01*
X0185335Y0490394D01*
X0185465Y0490484D01*
X0185598Y0490570D01*
X0185733Y0490654D01*
X0185869Y0490733D01*
X0186008Y0490810D01*
X0186149Y0490882D01*
X0186291Y0490952D01*
X0186435Y0491017D01*
X0186581Y0491079D01*
X0186728Y0491137D01*
X0186877Y0491192D01*
X0187027Y0491243D01*
X0187178Y0491290D01*
X0187330Y0491333D01*
X0187483Y0491372D01*
X0187638Y0491408D01*
X0187793Y0491439D01*
X0187949Y0491467D01*
X0188105Y0491491D01*
X0188262Y0491511D01*
X0188420Y0491527D01*
X0188577Y0491539D01*
X0188736Y0491547D01*
X0188894Y0491551D01*
X0189052Y0491551D01*
X0189210Y0491547D01*
X0189369Y0491539D01*
X0189526Y0491527D01*
X0189684Y0491511D01*
X0189841Y0491491D01*
X0189997Y0491467D01*
X0190153Y0491439D01*
X0190308Y0491408D01*
X0190463Y0491372D01*
X0190616Y0491333D01*
X0190768Y0491290D01*
X0190919Y0491243D01*
X0191069Y0491192D01*
X0191218Y0491137D01*
X0191365Y0491079D01*
X0191511Y0491017D01*
X0191655Y0490952D01*
X0191797Y0490882D01*
X0191938Y0490810D01*
X0192077Y0490733D01*
X0192213Y0490654D01*
X0192348Y0490570D01*
X0192481Y0490484D01*
X0192611Y0490394D01*
X0192739Y0490301D01*
X0192865Y0490205D01*
X0192988Y0490105D01*
X0193109Y0490003D01*
X0193227Y0489898D01*
X0193342Y0489789D01*
X0193455Y0489678D01*
X0193565Y0489564D01*
X0193672Y0489447D01*
X0193776Y0489328D01*
X0193877Y0489206D01*
X0193974Y0489081D01*
X0194069Y0488954D01*
X0194160Y0488825D01*
X0194249Y0488694D01*
X0194333Y0488560D01*
X0194415Y0488424D01*
X0194493Y0488287D01*
X0194567Y0488147D01*
X0194638Y0488005D01*
X0194706Y0487862D01*
X0194770Y0487717D01*
X0194830Y0487571D01*
X0194886Y0487423D01*
X0194939Y0487274D01*
X0194988Y0487123D01*
X0195033Y0486971D01*
X0195074Y0486818D01*
X0195112Y0486665D01*
X0195145Y0486510D01*
X0195175Y0486354D01*
X0195201Y0486198D01*
X0195222Y0486041D01*
X0195240Y0485884D01*
X0195254Y0485726D01*
X0195264Y0485568D01*
X0195270Y0485410D01*
X0195272Y0485252D01*
X0195270Y0485094D01*
X0195264Y0484936D01*
X0195254Y0484778D01*
X0195240Y0484620D01*
X0195222Y0484463D01*
X0195201Y0484306D01*
X0195175Y0484150D01*
X0195145Y0483994D01*
X0195112Y0483839D01*
X0195074Y0483686D01*
X0195033Y0483533D01*
X0194988Y0483381D01*
X0194939Y0483230D01*
X0194886Y0483081D01*
X0194830Y0482933D01*
X0194770Y0482787D01*
X0194706Y0482642D01*
X0194638Y0482499D01*
X0194567Y0482357D01*
X0194493Y0482217D01*
X0194415Y0482080D01*
X0194333Y0481944D01*
X0194249Y0481810D01*
X0194160Y0481679D01*
X0194069Y0481550D01*
X0193974Y0481423D01*
X0193877Y0481298D01*
X0193776Y0481176D01*
X0193672Y0481057D01*
X0193565Y0480940D01*
X0193455Y0480826D01*
X0193342Y0480715D01*
X0193227Y0480606D01*
X0193109Y0480501D01*
X0192988Y0480399D01*
X0192865Y0480299D01*
X0192739Y0480203D01*
X0192611Y0480110D01*
X0192481Y0480020D01*
X0192348Y0479934D01*
X0192213Y0479850D01*
X0192077Y0479771D01*
X0191938Y0479694D01*
X0191797Y0479622D01*
X0191655Y0479552D01*
X0191511Y0479487D01*
X0191365Y0479425D01*
X0191218Y0479367D01*
X0191069Y0479312D01*
X0190919Y0479261D01*
X0190768Y0479214D01*
X0190616Y0479171D01*
X0190463Y0479132D01*
X0190308Y0479096D01*
X0190153Y0479065D01*
X0189997Y0479037D01*
X0189841Y0479013D01*
X0189684Y0478993D01*
X0189526Y0478977D01*
X0189369Y0478965D01*
X0189210Y0478957D01*
X0189052Y0478953D01*
X0188894Y0478953D01*
X0188736Y0478957D01*
X0188577Y0478965D01*
X0188420Y0478977D01*
X0188262Y0478993D01*
X0188105Y0479013D01*
X0187949Y0479037D01*
X0187793Y0479065D01*
X0187638Y0479096D01*
X0187483Y0479132D01*
X0187330Y0479171D01*
X0187178Y0479214D01*
X0187027Y0479261D01*
X0186877Y0479312D01*
X0186728Y0479367D01*
X0186581Y0479425D01*
X0186435Y0479487D01*
X0186291Y0479552D01*
X0186149Y0479622D01*
X0186008Y0479694D01*
X0185869Y0479771D01*
X0185733Y0479850D01*
X0185598Y0479934D01*
X0185465Y0480020D01*
X0185335Y0480110D01*
X0185207Y0480203D01*
X0185081Y0480299D01*
X0184958Y0480399D01*
X0184837Y0480501D01*
X0184719Y0480606D01*
X0184604Y0480715D01*
X0184491Y0480826D01*
X0184381Y0480940D01*
X0184274Y0481057D01*
X0184170Y0481176D01*
X0184069Y0481298D01*
X0183972Y0481423D01*
X0183877Y0481550D01*
X0183786Y0481679D01*
X0183697Y0481810D01*
X0183613Y0481944D01*
X0183531Y0482080D01*
X0183453Y0482217D01*
X0183379Y0482357D01*
X0183308Y0482499D01*
X0183240Y0482642D01*
X0183176Y0482787D01*
X0183116Y0482933D01*
X0183060Y0483081D01*
X0183007Y0483230D01*
X0182958Y0483381D01*
X0182913Y0483533D01*
X0182872Y0483686D01*
X0182834Y0483839D01*
X0182801Y0483994D01*
X0182771Y0484150D01*
X0182745Y0484306D01*
X0182724Y0484463D01*
X0182706Y0484620D01*
X0182692Y0484778D01*
X0182682Y0484936D01*
X0182676Y0485094D01*
X0182674Y0485252D01*
X0061414Y0457693D02*
X0061416Y0457851D01*
X0061422Y0458009D01*
X0061432Y0458167D01*
X0061446Y0458325D01*
X0061464Y0458482D01*
X0061485Y0458639D01*
X0061511Y0458795D01*
X0061541Y0458951D01*
X0061574Y0459106D01*
X0061612Y0459259D01*
X0061653Y0459412D01*
X0061698Y0459564D01*
X0061747Y0459715D01*
X0061800Y0459864D01*
X0061856Y0460012D01*
X0061916Y0460158D01*
X0061980Y0460303D01*
X0062048Y0460446D01*
X0062119Y0460588D01*
X0062193Y0460728D01*
X0062271Y0460865D01*
X0062353Y0461001D01*
X0062437Y0461135D01*
X0062526Y0461266D01*
X0062617Y0461395D01*
X0062712Y0461522D01*
X0062809Y0461647D01*
X0062910Y0461769D01*
X0063014Y0461888D01*
X0063121Y0462005D01*
X0063231Y0462119D01*
X0063344Y0462230D01*
X0063459Y0462339D01*
X0063577Y0462444D01*
X0063698Y0462546D01*
X0063821Y0462646D01*
X0063947Y0462742D01*
X0064075Y0462835D01*
X0064205Y0462925D01*
X0064338Y0463011D01*
X0064473Y0463095D01*
X0064609Y0463174D01*
X0064748Y0463251D01*
X0064889Y0463323D01*
X0065031Y0463393D01*
X0065175Y0463458D01*
X0065321Y0463520D01*
X0065468Y0463578D01*
X0065617Y0463633D01*
X0065767Y0463684D01*
X0065918Y0463731D01*
X0066070Y0463774D01*
X0066223Y0463813D01*
X0066378Y0463849D01*
X0066533Y0463880D01*
X0066689Y0463908D01*
X0066845Y0463932D01*
X0067002Y0463952D01*
X0067160Y0463968D01*
X0067317Y0463980D01*
X0067476Y0463988D01*
X0067634Y0463992D01*
X0067792Y0463992D01*
X0067950Y0463988D01*
X0068109Y0463980D01*
X0068266Y0463968D01*
X0068424Y0463952D01*
X0068581Y0463932D01*
X0068737Y0463908D01*
X0068893Y0463880D01*
X0069048Y0463849D01*
X0069203Y0463813D01*
X0069356Y0463774D01*
X0069508Y0463731D01*
X0069659Y0463684D01*
X0069809Y0463633D01*
X0069958Y0463578D01*
X0070105Y0463520D01*
X0070251Y0463458D01*
X0070395Y0463393D01*
X0070537Y0463323D01*
X0070678Y0463251D01*
X0070817Y0463174D01*
X0070953Y0463095D01*
X0071088Y0463011D01*
X0071221Y0462925D01*
X0071351Y0462835D01*
X0071479Y0462742D01*
X0071605Y0462646D01*
X0071728Y0462546D01*
X0071849Y0462444D01*
X0071967Y0462339D01*
X0072082Y0462230D01*
X0072195Y0462119D01*
X0072305Y0462005D01*
X0072412Y0461888D01*
X0072516Y0461769D01*
X0072617Y0461647D01*
X0072714Y0461522D01*
X0072809Y0461395D01*
X0072900Y0461266D01*
X0072989Y0461135D01*
X0073073Y0461001D01*
X0073155Y0460865D01*
X0073233Y0460728D01*
X0073307Y0460588D01*
X0073378Y0460446D01*
X0073446Y0460303D01*
X0073510Y0460158D01*
X0073570Y0460012D01*
X0073626Y0459864D01*
X0073679Y0459715D01*
X0073728Y0459564D01*
X0073773Y0459412D01*
X0073814Y0459259D01*
X0073852Y0459106D01*
X0073885Y0458951D01*
X0073915Y0458795D01*
X0073941Y0458639D01*
X0073962Y0458482D01*
X0073980Y0458325D01*
X0073994Y0458167D01*
X0074004Y0458009D01*
X0074010Y0457851D01*
X0074012Y0457693D01*
X0074010Y0457535D01*
X0074004Y0457377D01*
X0073994Y0457219D01*
X0073980Y0457061D01*
X0073962Y0456904D01*
X0073941Y0456747D01*
X0073915Y0456591D01*
X0073885Y0456435D01*
X0073852Y0456280D01*
X0073814Y0456127D01*
X0073773Y0455974D01*
X0073728Y0455822D01*
X0073679Y0455671D01*
X0073626Y0455522D01*
X0073570Y0455374D01*
X0073510Y0455228D01*
X0073446Y0455083D01*
X0073378Y0454940D01*
X0073307Y0454798D01*
X0073233Y0454658D01*
X0073155Y0454521D01*
X0073073Y0454385D01*
X0072989Y0454251D01*
X0072900Y0454120D01*
X0072809Y0453991D01*
X0072714Y0453864D01*
X0072617Y0453739D01*
X0072516Y0453617D01*
X0072412Y0453498D01*
X0072305Y0453381D01*
X0072195Y0453267D01*
X0072082Y0453156D01*
X0071967Y0453047D01*
X0071849Y0452942D01*
X0071728Y0452840D01*
X0071605Y0452740D01*
X0071479Y0452644D01*
X0071351Y0452551D01*
X0071221Y0452461D01*
X0071088Y0452375D01*
X0070953Y0452291D01*
X0070817Y0452212D01*
X0070678Y0452135D01*
X0070537Y0452063D01*
X0070395Y0451993D01*
X0070251Y0451928D01*
X0070105Y0451866D01*
X0069958Y0451808D01*
X0069809Y0451753D01*
X0069659Y0451702D01*
X0069508Y0451655D01*
X0069356Y0451612D01*
X0069203Y0451573D01*
X0069048Y0451537D01*
X0068893Y0451506D01*
X0068737Y0451478D01*
X0068581Y0451454D01*
X0068424Y0451434D01*
X0068266Y0451418D01*
X0068109Y0451406D01*
X0067950Y0451398D01*
X0067792Y0451394D01*
X0067634Y0451394D01*
X0067476Y0451398D01*
X0067317Y0451406D01*
X0067160Y0451418D01*
X0067002Y0451434D01*
X0066845Y0451454D01*
X0066689Y0451478D01*
X0066533Y0451506D01*
X0066378Y0451537D01*
X0066223Y0451573D01*
X0066070Y0451612D01*
X0065918Y0451655D01*
X0065767Y0451702D01*
X0065617Y0451753D01*
X0065468Y0451808D01*
X0065321Y0451866D01*
X0065175Y0451928D01*
X0065031Y0451993D01*
X0064889Y0452063D01*
X0064748Y0452135D01*
X0064609Y0452212D01*
X0064473Y0452291D01*
X0064338Y0452375D01*
X0064205Y0452461D01*
X0064075Y0452551D01*
X0063947Y0452644D01*
X0063821Y0452740D01*
X0063698Y0452840D01*
X0063577Y0452942D01*
X0063459Y0453047D01*
X0063344Y0453156D01*
X0063231Y0453267D01*
X0063121Y0453381D01*
X0063014Y0453498D01*
X0062910Y0453617D01*
X0062809Y0453739D01*
X0062712Y0453864D01*
X0062617Y0453991D01*
X0062526Y0454120D01*
X0062437Y0454251D01*
X0062353Y0454385D01*
X0062271Y0454521D01*
X0062193Y0454658D01*
X0062119Y0454798D01*
X0062048Y0454940D01*
X0061980Y0455083D01*
X0061916Y0455228D01*
X0061856Y0455374D01*
X0061800Y0455522D01*
X0061747Y0455671D01*
X0061698Y0455822D01*
X0061653Y0455974D01*
X0061612Y0456127D01*
X0061574Y0456280D01*
X0061541Y0456435D01*
X0061511Y0456591D01*
X0061485Y0456747D01*
X0061464Y0456904D01*
X0061446Y0457061D01*
X0061432Y0457219D01*
X0061422Y0457377D01*
X0061416Y0457535D01*
X0061414Y0457693D01*
X0033855Y0485252D02*
X0033857Y0485410D01*
X0033863Y0485568D01*
X0033873Y0485726D01*
X0033887Y0485884D01*
X0033905Y0486041D01*
X0033926Y0486198D01*
X0033952Y0486354D01*
X0033982Y0486510D01*
X0034015Y0486665D01*
X0034053Y0486818D01*
X0034094Y0486971D01*
X0034139Y0487123D01*
X0034188Y0487274D01*
X0034241Y0487423D01*
X0034297Y0487571D01*
X0034357Y0487717D01*
X0034421Y0487862D01*
X0034489Y0488005D01*
X0034560Y0488147D01*
X0034634Y0488287D01*
X0034712Y0488424D01*
X0034794Y0488560D01*
X0034878Y0488694D01*
X0034967Y0488825D01*
X0035058Y0488954D01*
X0035153Y0489081D01*
X0035250Y0489206D01*
X0035351Y0489328D01*
X0035455Y0489447D01*
X0035562Y0489564D01*
X0035672Y0489678D01*
X0035785Y0489789D01*
X0035900Y0489898D01*
X0036018Y0490003D01*
X0036139Y0490105D01*
X0036262Y0490205D01*
X0036388Y0490301D01*
X0036516Y0490394D01*
X0036646Y0490484D01*
X0036779Y0490570D01*
X0036914Y0490654D01*
X0037050Y0490733D01*
X0037189Y0490810D01*
X0037330Y0490882D01*
X0037472Y0490952D01*
X0037616Y0491017D01*
X0037762Y0491079D01*
X0037909Y0491137D01*
X0038058Y0491192D01*
X0038208Y0491243D01*
X0038359Y0491290D01*
X0038511Y0491333D01*
X0038664Y0491372D01*
X0038819Y0491408D01*
X0038974Y0491439D01*
X0039130Y0491467D01*
X0039286Y0491491D01*
X0039443Y0491511D01*
X0039601Y0491527D01*
X0039758Y0491539D01*
X0039917Y0491547D01*
X0040075Y0491551D01*
X0040233Y0491551D01*
X0040391Y0491547D01*
X0040550Y0491539D01*
X0040707Y0491527D01*
X0040865Y0491511D01*
X0041022Y0491491D01*
X0041178Y0491467D01*
X0041334Y0491439D01*
X0041489Y0491408D01*
X0041644Y0491372D01*
X0041797Y0491333D01*
X0041949Y0491290D01*
X0042100Y0491243D01*
X0042250Y0491192D01*
X0042399Y0491137D01*
X0042546Y0491079D01*
X0042692Y0491017D01*
X0042836Y0490952D01*
X0042978Y0490882D01*
X0043119Y0490810D01*
X0043258Y0490733D01*
X0043394Y0490654D01*
X0043529Y0490570D01*
X0043662Y0490484D01*
X0043792Y0490394D01*
X0043920Y0490301D01*
X0044046Y0490205D01*
X0044169Y0490105D01*
X0044290Y0490003D01*
X0044408Y0489898D01*
X0044523Y0489789D01*
X0044636Y0489678D01*
X0044746Y0489564D01*
X0044853Y0489447D01*
X0044957Y0489328D01*
X0045058Y0489206D01*
X0045155Y0489081D01*
X0045250Y0488954D01*
X0045341Y0488825D01*
X0045430Y0488694D01*
X0045514Y0488560D01*
X0045596Y0488424D01*
X0045674Y0488287D01*
X0045748Y0488147D01*
X0045819Y0488005D01*
X0045887Y0487862D01*
X0045951Y0487717D01*
X0046011Y0487571D01*
X0046067Y0487423D01*
X0046120Y0487274D01*
X0046169Y0487123D01*
X0046214Y0486971D01*
X0046255Y0486818D01*
X0046293Y0486665D01*
X0046326Y0486510D01*
X0046356Y0486354D01*
X0046382Y0486198D01*
X0046403Y0486041D01*
X0046421Y0485884D01*
X0046435Y0485726D01*
X0046445Y0485568D01*
X0046451Y0485410D01*
X0046453Y0485252D01*
X0046451Y0485094D01*
X0046445Y0484936D01*
X0046435Y0484778D01*
X0046421Y0484620D01*
X0046403Y0484463D01*
X0046382Y0484306D01*
X0046356Y0484150D01*
X0046326Y0483994D01*
X0046293Y0483839D01*
X0046255Y0483686D01*
X0046214Y0483533D01*
X0046169Y0483381D01*
X0046120Y0483230D01*
X0046067Y0483081D01*
X0046011Y0482933D01*
X0045951Y0482787D01*
X0045887Y0482642D01*
X0045819Y0482499D01*
X0045748Y0482357D01*
X0045674Y0482217D01*
X0045596Y0482080D01*
X0045514Y0481944D01*
X0045430Y0481810D01*
X0045341Y0481679D01*
X0045250Y0481550D01*
X0045155Y0481423D01*
X0045058Y0481298D01*
X0044957Y0481176D01*
X0044853Y0481057D01*
X0044746Y0480940D01*
X0044636Y0480826D01*
X0044523Y0480715D01*
X0044408Y0480606D01*
X0044290Y0480501D01*
X0044169Y0480399D01*
X0044046Y0480299D01*
X0043920Y0480203D01*
X0043792Y0480110D01*
X0043662Y0480020D01*
X0043529Y0479934D01*
X0043394Y0479850D01*
X0043258Y0479771D01*
X0043119Y0479694D01*
X0042978Y0479622D01*
X0042836Y0479552D01*
X0042692Y0479487D01*
X0042546Y0479425D01*
X0042399Y0479367D01*
X0042250Y0479312D01*
X0042100Y0479261D01*
X0041949Y0479214D01*
X0041797Y0479171D01*
X0041644Y0479132D01*
X0041489Y0479096D01*
X0041334Y0479065D01*
X0041178Y0479037D01*
X0041022Y0479013D01*
X0040865Y0478993D01*
X0040707Y0478977D01*
X0040550Y0478965D01*
X0040391Y0478957D01*
X0040233Y0478953D01*
X0040075Y0478953D01*
X0039917Y0478957D01*
X0039758Y0478965D01*
X0039601Y0478977D01*
X0039443Y0478993D01*
X0039286Y0479013D01*
X0039130Y0479037D01*
X0038974Y0479065D01*
X0038819Y0479096D01*
X0038664Y0479132D01*
X0038511Y0479171D01*
X0038359Y0479214D01*
X0038208Y0479261D01*
X0038058Y0479312D01*
X0037909Y0479367D01*
X0037762Y0479425D01*
X0037616Y0479487D01*
X0037472Y0479552D01*
X0037330Y0479622D01*
X0037189Y0479694D01*
X0037050Y0479771D01*
X0036914Y0479850D01*
X0036779Y0479934D01*
X0036646Y0480020D01*
X0036516Y0480110D01*
X0036388Y0480203D01*
X0036262Y0480299D01*
X0036139Y0480399D01*
X0036018Y0480501D01*
X0035900Y0480606D01*
X0035785Y0480715D01*
X0035672Y0480826D01*
X0035562Y0480940D01*
X0035455Y0481057D01*
X0035351Y0481176D01*
X0035250Y0481298D01*
X0035153Y0481423D01*
X0035058Y0481550D01*
X0034967Y0481679D01*
X0034878Y0481810D01*
X0034794Y0481944D01*
X0034712Y0482080D01*
X0034634Y0482217D01*
X0034560Y0482357D01*
X0034489Y0482499D01*
X0034421Y0482642D01*
X0034357Y0482787D01*
X0034297Y0482933D01*
X0034241Y0483081D01*
X0034188Y0483230D01*
X0034139Y0483381D01*
X0034094Y0483533D01*
X0034053Y0483686D01*
X0034015Y0483839D01*
X0033982Y0483994D01*
X0033952Y0484150D01*
X0033926Y0484306D01*
X0033905Y0484463D01*
X0033887Y0484620D01*
X0033873Y0484778D01*
X0033863Y0484936D01*
X0033857Y0485094D01*
X0033855Y0485252D01*
X0033855Y0371079D02*
X0033857Y0371237D01*
X0033863Y0371395D01*
X0033873Y0371553D01*
X0033887Y0371711D01*
X0033905Y0371868D01*
X0033926Y0372025D01*
X0033952Y0372181D01*
X0033982Y0372337D01*
X0034015Y0372492D01*
X0034053Y0372645D01*
X0034094Y0372798D01*
X0034139Y0372950D01*
X0034188Y0373101D01*
X0034241Y0373250D01*
X0034297Y0373398D01*
X0034357Y0373544D01*
X0034421Y0373689D01*
X0034489Y0373832D01*
X0034560Y0373974D01*
X0034634Y0374114D01*
X0034712Y0374251D01*
X0034794Y0374387D01*
X0034878Y0374521D01*
X0034967Y0374652D01*
X0035058Y0374781D01*
X0035153Y0374908D01*
X0035250Y0375033D01*
X0035351Y0375155D01*
X0035455Y0375274D01*
X0035562Y0375391D01*
X0035672Y0375505D01*
X0035785Y0375616D01*
X0035900Y0375725D01*
X0036018Y0375830D01*
X0036139Y0375932D01*
X0036262Y0376032D01*
X0036388Y0376128D01*
X0036516Y0376221D01*
X0036646Y0376311D01*
X0036779Y0376397D01*
X0036914Y0376481D01*
X0037050Y0376560D01*
X0037189Y0376637D01*
X0037330Y0376709D01*
X0037472Y0376779D01*
X0037616Y0376844D01*
X0037762Y0376906D01*
X0037909Y0376964D01*
X0038058Y0377019D01*
X0038208Y0377070D01*
X0038359Y0377117D01*
X0038511Y0377160D01*
X0038664Y0377199D01*
X0038819Y0377235D01*
X0038974Y0377266D01*
X0039130Y0377294D01*
X0039286Y0377318D01*
X0039443Y0377338D01*
X0039601Y0377354D01*
X0039758Y0377366D01*
X0039917Y0377374D01*
X0040075Y0377378D01*
X0040233Y0377378D01*
X0040391Y0377374D01*
X0040550Y0377366D01*
X0040707Y0377354D01*
X0040865Y0377338D01*
X0041022Y0377318D01*
X0041178Y0377294D01*
X0041334Y0377266D01*
X0041489Y0377235D01*
X0041644Y0377199D01*
X0041797Y0377160D01*
X0041949Y0377117D01*
X0042100Y0377070D01*
X0042250Y0377019D01*
X0042399Y0376964D01*
X0042546Y0376906D01*
X0042692Y0376844D01*
X0042836Y0376779D01*
X0042978Y0376709D01*
X0043119Y0376637D01*
X0043258Y0376560D01*
X0043394Y0376481D01*
X0043529Y0376397D01*
X0043662Y0376311D01*
X0043792Y0376221D01*
X0043920Y0376128D01*
X0044046Y0376032D01*
X0044169Y0375932D01*
X0044290Y0375830D01*
X0044408Y0375725D01*
X0044523Y0375616D01*
X0044636Y0375505D01*
X0044746Y0375391D01*
X0044853Y0375274D01*
X0044957Y0375155D01*
X0045058Y0375033D01*
X0045155Y0374908D01*
X0045250Y0374781D01*
X0045341Y0374652D01*
X0045430Y0374521D01*
X0045514Y0374387D01*
X0045596Y0374251D01*
X0045674Y0374114D01*
X0045748Y0373974D01*
X0045819Y0373832D01*
X0045887Y0373689D01*
X0045951Y0373544D01*
X0046011Y0373398D01*
X0046067Y0373250D01*
X0046120Y0373101D01*
X0046169Y0372950D01*
X0046214Y0372798D01*
X0046255Y0372645D01*
X0046293Y0372492D01*
X0046326Y0372337D01*
X0046356Y0372181D01*
X0046382Y0372025D01*
X0046403Y0371868D01*
X0046421Y0371711D01*
X0046435Y0371553D01*
X0046445Y0371395D01*
X0046451Y0371237D01*
X0046453Y0371079D01*
X0046451Y0370921D01*
X0046445Y0370763D01*
X0046435Y0370605D01*
X0046421Y0370447D01*
X0046403Y0370290D01*
X0046382Y0370133D01*
X0046356Y0369977D01*
X0046326Y0369821D01*
X0046293Y0369666D01*
X0046255Y0369513D01*
X0046214Y0369360D01*
X0046169Y0369208D01*
X0046120Y0369057D01*
X0046067Y0368908D01*
X0046011Y0368760D01*
X0045951Y0368614D01*
X0045887Y0368469D01*
X0045819Y0368326D01*
X0045748Y0368184D01*
X0045674Y0368044D01*
X0045596Y0367907D01*
X0045514Y0367771D01*
X0045430Y0367637D01*
X0045341Y0367506D01*
X0045250Y0367377D01*
X0045155Y0367250D01*
X0045058Y0367125D01*
X0044957Y0367003D01*
X0044853Y0366884D01*
X0044746Y0366767D01*
X0044636Y0366653D01*
X0044523Y0366542D01*
X0044408Y0366433D01*
X0044290Y0366328D01*
X0044169Y0366226D01*
X0044046Y0366126D01*
X0043920Y0366030D01*
X0043792Y0365937D01*
X0043662Y0365847D01*
X0043529Y0365761D01*
X0043394Y0365677D01*
X0043258Y0365598D01*
X0043119Y0365521D01*
X0042978Y0365449D01*
X0042836Y0365379D01*
X0042692Y0365314D01*
X0042546Y0365252D01*
X0042399Y0365194D01*
X0042250Y0365139D01*
X0042100Y0365088D01*
X0041949Y0365041D01*
X0041797Y0364998D01*
X0041644Y0364959D01*
X0041489Y0364923D01*
X0041334Y0364892D01*
X0041178Y0364864D01*
X0041022Y0364840D01*
X0040865Y0364820D01*
X0040707Y0364804D01*
X0040550Y0364792D01*
X0040391Y0364784D01*
X0040233Y0364780D01*
X0040075Y0364780D01*
X0039917Y0364784D01*
X0039758Y0364792D01*
X0039601Y0364804D01*
X0039443Y0364820D01*
X0039286Y0364840D01*
X0039130Y0364864D01*
X0038974Y0364892D01*
X0038819Y0364923D01*
X0038664Y0364959D01*
X0038511Y0364998D01*
X0038359Y0365041D01*
X0038208Y0365088D01*
X0038058Y0365139D01*
X0037909Y0365194D01*
X0037762Y0365252D01*
X0037616Y0365314D01*
X0037472Y0365379D01*
X0037330Y0365449D01*
X0037189Y0365521D01*
X0037050Y0365598D01*
X0036914Y0365677D01*
X0036779Y0365761D01*
X0036646Y0365847D01*
X0036516Y0365937D01*
X0036388Y0366030D01*
X0036262Y0366126D01*
X0036139Y0366226D01*
X0036018Y0366328D01*
X0035900Y0366433D01*
X0035785Y0366542D01*
X0035672Y0366653D01*
X0035562Y0366767D01*
X0035455Y0366884D01*
X0035351Y0367003D01*
X0035250Y0367125D01*
X0035153Y0367250D01*
X0035058Y0367377D01*
X0034967Y0367506D01*
X0034878Y0367637D01*
X0034794Y0367771D01*
X0034712Y0367907D01*
X0034634Y0368044D01*
X0034560Y0368184D01*
X0034489Y0368326D01*
X0034421Y0368469D01*
X0034357Y0368614D01*
X0034297Y0368760D01*
X0034241Y0368908D01*
X0034188Y0369057D01*
X0034139Y0369208D01*
X0034094Y0369360D01*
X0034053Y0369513D01*
X0034015Y0369666D01*
X0033982Y0369821D01*
X0033952Y0369977D01*
X0033926Y0370133D01*
X0033905Y0370290D01*
X0033887Y0370447D01*
X0033873Y0370605D01*
X0033863Y0370763D01*
X0033857Y0370921D01*
X0033855Y0371079D01*
X0033855Y0256906D02*
X0033857Y0257064D01*
X0033863Y0257222D01*
X0033873Y0257380D01*
X0033887Y0257538D01*
X0033905Y0257695D01*
X0033926Y0257852D01*
X0033952Y0258008D01*
X0033982Y0258164D01*
X0034015Y0258319D01*
X0034053Y0258472D01*
X0034094Y0258625D01*
X0034139Y0258777D01*
X0034188Y0258928D01*
X0034241Y0259077D01*
X0034297Y0259225D01*
X0034357Y0259371D01*
X0034421Y0259516D01*
X0034489Y0259659D01*
X0034560Y0259801D01*
X0034634Y0259941D01*
X0034712Y0260078D01*
X0034794Y0260214D01*
X0034878Y0260348D01*
X0034967Y0260479D01*
X0035058Y0260608D01*
X0035153Y0260735D01*
X0035250Y0260860D01*
X0035351Y0260982D01*
X0035455Y0261101D01*
X0035562Y0261218D01*
X0035672Y0261332D01*
X0035785Y0261443D01*
X0035900Y0261552D01*
X0036018Y0261657D01*
X0036139Y0261759D01*
X0036262Y0261859D01*
X0036388Y0261955D01*
X0036516Y0262048D01*
X0036646Y0262138D01*
X0036779Y0262224D01*
X0036914Y0262308D01*
X0037050Y0262387D01*
X0037189Y0262464D01*
X0037330Y0262536D01*
X0037472Y0262606D01*
X0037616Y0262671D01*
X0037762Y0262733D01*
X0037909Y0262791D01*
X0038058Y0262846D01*
X0038208Y0262897D01*
X0038359Y0262944D01*
X0038511Y0262987D01*
X0038664Y0263026D01*
X0038819Y0263062D01*
X0038974Y0263093D01*
X0039130Y0263121D01*
X0039286Y0263145D01*
X0039443Y0263165D01*
X0039601Y0263181D01*
X0039758Y0263193D01*
X0039917Y0263201D01*
X0040075Y0263205D01*
X0040233Y0263205D01*
X0040391Y0263201D01*
X0040550Y0263193D01*
X0040707Y0263181D01*
X0040865Y0263165D01*
X0041022Y0263145D01*
X0041178Y0263121D01*
X0041334Y0263093D01*
X0041489Y0263062D01*
X0041644Y0263026D01*
X0041797Y0262987D01*
X0041949Y0262944D01*
X0042100Y0262897D01*
X0042250Y0262846D01*
X0042399Y0262791D01*
X0042546Y0262733D01*
X0042692Y0262671D01*
X0042836Y0262606D01*
X0042978Y0262536D01*
X0043119Y0262464D01*
X0043258Y0262387D01*
X0043394Y0262308D01*
X0043529Y0262224D01*
X0043662Y0262138D01*
X0043792Y0262048D01*
X0043920Y0261955D01*
X0044046Y0261859D01*
X0044169Y0261759D01*
X0044290Y0261657D01*
X0044408Y0261552D01*
X0044523Y0261443D01*
X0044636Y0261332D01*
X0044746Y0261218D01*
X0044853Y0261101D01*
X0044957Y0260982D01*
X0045058Y0260860D01*
X0045155Y0260735D01*
X0045250Y0260608D01*
X0045341Y0260479D01*
X0045430Y0260348D01*
X0045514Y0260214D01*
X0045596Y0260078D01*
X0045674Y0259941D01*
X0045748Y0259801D01*
X0045819Y0259659D01*
X0045887Y0259516D01*
X0045951Y0259371D01*
X0046011Y0259225D01*
X0046067Y0259077D01*
X0046120Y0258928D01*
X0046169Y0258777D01*
X0046214Y0258625D01*
X0046255Y0258472D01*
X0046293Y0258319D01*
X0046326Y0258164D01*
X0046356Y0258008D01*
X0046382Y0257852D01*
X0046403Y0257695D01*
X0046421Y0257538D01*
X0046435Y0257380D01*
X0046445Y0257222D01*
X0046451Y0257064D01*
X0046453Y0256906D01*
X0046451Y0256748D01*
X0046445Y0256590D01*
X0046435Y0256432D01*
X0046421Y0256274D01*
X0046403Y0256117D01*
X0046382Y0255960D01*
X0046356Y0255804D01*
X0046326Y0255648D01*
X0046293Y0255493D01*
X0046255Y0255340D01*
X0046214Y0255187D01*
X0046169Y0255035D01*
X0046120Y0254884D01*
X0046067Y0254735D01*
X0046011Y0254587D01*
X0045951Y0254441D01*
X0045887Y0254296D01*
X0045819Y0254153D01*
X0045748Y0254011D01*
X0045674Y0253871D01*
X0045596Y0253734D01*
X0045514Y0253598D01*
X0045430Y0253464D01*
X0045341Y0253333D01*
X0045250Y0253204D01*
X0045155Y0253077D01*
X0045058Y0252952D01*
X0044957Y0252830D01*
X0044853Y0252711D01*
X0044746Y0252594D01*
X0044636Y0252480D01*
X0044523Y0252369D01*
X0044408Y0252260D01*
X0044290Y0252155D01*
X0044169Y0252053D01*
X0044046Y0251953D01*
X0043920Y0251857D01*
X0043792Y0251764D01*
X0043662Y0251674D01*
X0043529Y0251588D01*
X0043394Y0251504D01*
X0043258Y0251425D01*
X0043119Y0251348D01*
X0042978Y0251276D01*
X0042836Y0251206D01*
X0042692Y0251141D01*
X0042546Y0251079D01*
X0042399Y0251021D01*
X0042250Y0250966D01*
X0042100Y0250915D01*
X0041949Y0250868D01*
X0041797Y0250825D01*
X0041644Y0250786D01*
X0041489Y0250750D01*
X0041334Y0250719D01*
X0041178Y0250691D01*
X0041022Y0250667D01*
X0040865Y0250647D01*
X0040707Y0250631D01*
X0040550Y0250619D01*
X0040391Y0250611D01*
X0040233Y0250607D01*
X0040075Y0250607D01*
X0039917Y0250611D01*
X0039758Y0250619D01*
X0039601Y0250631D01*
X0039443Y0250647D01*
X0039286Y0250667D01*
X0039130Y0250691D01*
X0038974Y0250719D01*
X0038819Y0250750D01*
X0038664Y0250786D01*
X0038511Y0250825D01*
X0038359Y0250868D01*
X0038208Y0250915D01*
X0038058Y0250966D01*
X0037909Y0251021D01*
X0037762Y0251079D01*
X0037616Y0251141D01*
X0037472Y0251206D01*
X0037330Y0251276D01*
X0037189Y0251348D01*
X0037050Y0251425D01*
X0036914Y0251504D01*
X0036779Y0251588D01*
X0036646Y0251674D01*
X0036516Y0251764D01*
X0036388Y0251857D01*
X0036262Y0251953D01*
X0036139Y0252053D01*
X0036018Y0252155D01*
X0035900Y0252260D01*
X0035785Y0252369D01*
X0035672Y0252480D01*
X0035562Y0252594D01*
X0035455Y0252711D01*
X0035351Y0252830D01*
X0035250Y0252952D01*
X0035153Y0253077D01*
X0035058Y0253204D01*
X0034967Y0253333D01*
X0034878Y0253464D01*
X0034794Y0253598D01*
X0034712Y0253734D01*
X0034634Y0253871D01*
X0034560Y0254011D01*
X0034489Y0254153D01*
X0034421Y0254296D01*
X0034357Y0254441D01*
X0034297Y0254587D01*
X0034241Y0254735D01*
X0034188Y0254884D01*
X0034139Y0255035D01*
X0034094Y0255187D01*
X0034053Y0255340D01*
X0034015Y0255493D01*
X0033982Y0255648D01*
X0033952Y0255804D01*
X0033926Y0255960D01*
X0033905Y0256117D01*
X0033887Y0256274D01*
X0033873Y0256432D01*
X0033863Y0256590D01*
X0033857Y0256748D01*
X0033855Y0256906D01*
M02*
