%
M48
M72
T01C0.01181
T02C0.01969
T03C0.03200
T04C0.04000
T05C0.04724
T06C0.07600
T07C0.12598
%
T01
X87398Y188008
X98402Y187745
X103402Y192745
X107152Y193682
X111020Y190946
X110902Y200245
X113402Y202745
X108402Y207745
X105902Y205245
X103090Y209932
X102465Y218057
X107083Y223441
X101527Y228682
X101527Y231807
X101527Y234932
X101527Y238057
X95272Y233283
X92152Y228370
X91335Y239189
X83402Y234932
X87398Y249031
X82777Y251807
X90277Y254307
X95272Y249031
X102465Y249620
X109965Y249620
X112465Y252120
X115902Y247432
X118402Y249932
X124027Y248057
X124027Y251807
X133402Y249932
X133402Y256182
X136840Y260245
X139340Y262745
X137152Y265557
X134652Y268057
X133402Y262120
X141840Y259307
X145590Y263682
X142152Y265245
X142152Y271807
X144652Y274307
X145277Y279932
X141527Y279932
X136527Y279932
X137152Y275557
X133402Y275557
X132777Y282745
X131215Y286182
X132465Y292745
X128715Y293370
X137152Y291807
X140902Y289620
X143090Y293370
X148402Y298682
X152152Y297432
X153715Y288995
X166215Y290870
X168715Y293370
X169652Y298682
X172777Y305557
X176527Y305557
X184340Y305870
X188090Y305557
X193090Y308995
X197465Y308995
X204652Y312432
X204652Y315557
X205902Y320557
X207465Y325245
X202777Y328057
X202777Y331182
X210277Y333370
X204652Y338057
X204652Y341182
X204652Y346807
X204652Y349932
X210902Y353057
X218715Y350557
X224340Y355557
X223715Y341495
X224652Y335557
X221527Y335557
X224027Y323057
X217152Y314307
X228402Y305870
X231527Y300557
X228090Y298995
X237465Y300557
X236527Y305557
X242777Y297432
X240277Y292432
X249652Y286807
X244652Y281807
X243090Y278057
X242465Y272120
X241840Y261807
X234965Y258682
X227465Y251182
X242465Y243682
X214965Y228682
X202152Y228370
X198402Y228370
X193715Y227432
X189965Y227432
X185590Y223057
X180902Y228682
X177152Y228682
X184652Y233682
X182152Y236182
X184652Y238682
X174027Y241182
X182152Y246182
X184340Y248995
X177152Y253995
X176527Y259932
X185277Y259932
X185277Y263682
X172465Y265245
X170075Y272654
X175981Y272654
X177152Y278057
X173402Y278057
X165277Y279932
X162777Y274932
X155277Y274932
X155277Y279932
X149027Y279932
X162152Y265245
X154652Y264307
X160277Y259932
X167152Y253995
X163090Y241182
X151215Y240557
X149027Y246182
X143090Y249932
X152777Y252432
X133402Y243370
X138402Y239307
X135902Y236807
X137465Y230870
X139965Y228057
X143402Y232745
X145902Y230245
X132465Y227745
X131527Y223370
X134340Y218682
X139340Y218682
X145277Y218682
X149027Y218682
X154340Y213995
X159027Y212432
X156527Y207432
X152359Y199819
X140548Y199819
X134340Y200245
X127487Y197225
X128737Y189976
X122465Y184932
X139027Y191807
X146453Y188008
X160233Y188008
X170902Y189307
X170902Y200557
X174027Y200557
X177152Y200557
X180277Y200557
X183402Y200557
X186527Y200557
X189652Y200557
X192777Y200557
X195902Y200557
X199027Y200557
X199652Y209932
X193402Y209932
X187777Y209932
X191840Y216807
X194340Y219307
X194340Y236807
X199340Y236807
X203090Y236807
X194340Y246495
X197152Y248682
X199340Y251495
X195590Y255245
X194340Y261807
X204027Y260870
X209027Y263370
X210590Y258370
X204965Y271807
X199340Y273682
X197465Y277432
X194340Y275557
X188090Y281807
X185590Y281807
X185902Y286182
X188090Y292745
X190590Y295245
X193715Y290557
X197777Y292432
X200277Y294932
X196527Y297432
X205277Y305557
X218402Y292432
X221215Y284307
X218402Y275557
X218402Y272432
X223402Y271807
X202777Y279932
X202777Y283057
X202777Y286182
X202777Y289307
X185277Y275557
X185277Y271807
X176215Y291495
X177777Y296807
X181527Y296807
X167777Y307432
X164652Y307432
X161527Y307432
X158402Y307432
X147152Y307432
X144027Y307432
X139652Y307432
X134652Y307432
X131527Y307432
X128402Y307432
X125277Y307432
X114027Y310870
X111527Y315245
X111527Y301807
X99209Y302181
X97241Y292339
X92152Y283682
X84340Y280245
X81840Y272432
X81840Y262745
X97241Y272654
X104340Y271495
X107777Y273057
X107777Y269932
X107777Y262745
X112465Y261807
X116215Y260245
X124027Y266182
X121840Y269932
X123402Y278057
X119027Y280557
X116527Y280557
X111527Y283057
X108715Y285245
X104340Y282745
X107777Y279307
X107777Y276182
X122777Y284307
X147152Y311182
X147777Y327432
X140277Y326807
X160902Y331807
X163715Y329620
X166215Y327120
X174652Y335557
X174965Y340870
X177152Y346182
X182777Y342432
X185590Y353057
X164652Y348057
X164652Y344932
X162152Y342432
X158402Y342432
X153402Y343682
X153402Y349620
X162777Y353057
X167465Y338370
X180902Y326495
X186840Y317120
X236527Y320557
X256215Y327745
X258402Y323995
X264652Y326807
X264652Y330557
X264027Y335557
X261527Y338057
X274652Y336182
X277152Y329307
X273715Y323995
X282777Y333057
X270902Y346807
X270902Y353057
X273402Y355557
X277152Y365557
X277152Y371807
X267152Y378057
X267152Y381807
X267152Y386807
X267152Y390557
X304652Y375557
X315902Y375557
X325902Y375557
X335902Y375557
X345902Y375557
X355902Y375557
X355902Y383057
X345902Y383057
X335902Y383057
X325902Y383057
X315902Y383057
X291840Y363057
X308402Y354307
X320590Y355870
X333402Y354307
X339027Y343057
X354652Y354307
X358402Y354307
X360277Y359932
X365902Y375557
X375902Y375557
X375902Y379307
X375902Y383057
X380902Y378057
X385902Y375557
X390902Y375557
X390902Y379307
X385902Y383057
X395902Y383057
X395902Y375557
X405902Y383057
X425902Y395557
X435902Y395557
X445902Y395557
X455902Y395557
X470902Y395557
X480902Y395557
X490902Y395557
X500902Y395557
X510902Y395557
X520902Y395557
X540902Y383057
X539652Y374932
X542152Y369307
X545902Y363057
X555902Y363057
X559027Y371807
X568402Y373057
X575590Y380245
X570902Y383057
X560902Y383057
X550902Y383057
X525902Y375557
X515902Y375557
X505902Y375557
X495902Y375557
X485902Y375557
X475902Y375557
X464652Y369307
X464965Y365245
X477152Y361495
X484652Y358995
X497152Y361495
X507152Y361495
X517152Y361495
X548402Y355245
X561527Y348995
X569652Y350557
X581527Y354932
X585902Y363057
X582152Y369307
X575902Y363057
X565902Y363057
X580902Y383057
X590902Y383057
X600902Y383057
X598402Y374932
X595902Y363057
X601840Y358057
X605902Y363057
X610902Y370557
X616527Y359307
X616527Y353057
X607152Y344620
X597152Y353057
X630902Y363057
X634965Y365245
X640902Y363057
X646840Y363370
X650902Y363057
X662152Y356807
X654340Y342120
X640277Y349307
X673402Y368995
X686215Y375557
X687152Y363057
X688402Y354307
X688402Y344307
X714652Y324307
X714652Y321182
X714027Y305557
X710902Y305557
X689027Y321182
X664965Y308057
X662465Y310557
X656215Y308057
X659652Y303682
X662777Y303682
X665902Y300557
X671215Y291807
X661527Y289307
X624652Y296182
X580902Y295557
X569965Y306182
X560277Y316182
X552152Y312432
X552152Y308682
X548402Y316807
X540277Y319932
X540277Y328370
X546840Y334307
X518402Y298682
X519652Y286495
X512777Y284307
X509027Y284307
X505902Y284307
X505902Y278682
X505902Y275557
X494340Y265245
X483402Y267745
X479652Y267745
X478402Y262745
X474652Y262745
X474652Y253057
X480590Y244932
X493402Y244620
X484965Y236807
X489652Y224620
X490902Y211495
X456840Y219932
X431215Y227432
X414965Y233057
X410902Y233370
X406527Y236807
X412152Y243682
X415277Y243682
X431527Y252745
X431215Y261495
X436215Y262432
X441527Y267745
X446527Y276807
X435902Y281807
X421840Y280557
X409027Y290557
X405277Y290557
X404965Y294620
X399027Y300557
X389652Y291807
X386527Y291807
X391527Y285557
X391527Y282432
X391527Y279307
X380902Y272432
X377152Y288682
X377152Y294932
X368402Y289307
X364652Y289307
X369652Y303057
X373402Y306182
X377152Y319307
X384027Y322432
X389652Y319307
X397777Y311182
X404340Y313682
X402152Y319307
X413402Y318995
X416527Y316182
X414965Y324307
X421527Y326182
X424652Y326182
X430277Y327432
X430277Y324307
X430902Y319307
X430902Y316182
X430277Y330557
X431215Y336807
X440902Y336807
X446527Y341182
X460902Y336807
X445902Y327745
X436527Y345870
X450590Y353370
X450902Y375557
X440902Y375557
X430902Y375557
X460902Y375557
X480902Y408995
X430902Y408995
X365902Y383057
X380902Y361807
X386840Y361495
X392777Y361495
X396527Y361495
X393402Y357745
X403090Y361807
X404027Y358057
X383402Y354307
X389027Y343057
X393402Y337432
X399027Y343057
X368402Y343057
X364027Y343057
X364652Y319307
X354027Y316182
X352152Y319307
X339652Y319307
X327152Y319307
X314652Y319307
X303402Y319932
X299652Y316182
X295902Y316182
X304965Y326495
X313402Y335557
X318402Y343057
X307777Y343057
X319652Y306182
X319027Y300557
X290902Y303370
X275902Y298370
X266215Y303370
X262152Y304932
X256527Y303057
X252777Y303057
X249652Y303057
X257777Y294932
X256840Y272120
X271527Y257432
X282152Y254307
X285902Y254307
X287777Y244932
X321215Y213995
X348402Y222745
X369652Y218682
X386527Y231807
X390277Y230870
X397777Y223682
X401527Y223682
X410902Y216495
X410902Y193682
X402152Y184932
X393090Y189307
X410902Y171495
X410902Y124307
X406527Y64932
X535590Y124307
X546527Y117432
X552152Y116182
X552152Y111807
X560277Y119620
X525277Y144932
X545902Y164307
X552152Y164307
X552152Y160557
X560277Y168682
X540277Y187432
X539965Y200245
X552152Y209932
X552152Y213682
X546527Y217432
X534652Y216495
X560277Y217745
X552152Y259307
X552152Y263057
X545902Y265557
X560277Y267120
X529652Y259932
X524027Y257432
X524027Y263057
X494652Y291807
X469965Y287120
X469965Y296807
X438402Y298995
X431215Y295557
X419340Y296495
X418402Y263682
X413402Y256807
X434340Y242432
X440590Y239932
X446527Y245870
X458715Y250870
X450277Y259307
X469340Y271182
X365590Y239932
X236840Y213995
X168402Y218682
X166138Y215567
X157152Y218370
X164965Y228057
X168715Y205870
X166138Y201787
X126527Y218057
X117777Y218057
X117777Y221182
X117777Y224307
X117777Y227432
X120277Y232432
X124027Y232432
X115902Y236807
X111527Y240557
X120902Y242432
X113402Y218057
X120277Y205245
X83090Y217745
X70590Y208057
X79652Y346495
X115902Y365557
X124652Y360557
X124652Y357432
X125277Y352432
X128402Y352432
X110902Y374932
X110902Y383057
X110277Y389932
X114652Y389932
X116840Y386807
X164027Y388370
X178715Y383995
X175277Y373057
X201840Y378057
X208090Y375557
X229652Y375557
X232152Y378057
X232152Y381807
X232152Y388057
X232152Y391807
X245277Y363057
X320902Y408995
X264965Y418370
X164652Y447432
X154027Y458682
X150902Y458682
X148090Y447432
X130277Y447432
X114652Y458057
X111527Y458057
X99652Y444932
X96527Y444932
X101840Y438682
X533715Y171495
X676527Y192432
X676527Y195557
X676527Y198682
X676527Y201807
X676527Y206182
X676527Y209307
X676527Y212432
X676527Y215557
X679652Y215557
X682777Y215557
X682777Y192432
X679652Y192432
X727777Y201807
X730902Y201807
X734027Y201807
X732777Y205557
X728402Y205557
X725277Y215245
X740590Y235870
X749027Y255557
X748402Y258057
X752777Y258057
X752777Y255557
X750590Y273682
X738402Y191182
X731527Y363370
X712777Y383057
X709652Y383057
X706527Y383057
X701527Y383057
X698402Y383057
X696215Y392745
X704965Y393682
X697777Y409620
X694652Y418370
X682152Y395557
X658402Y383057
X662152Y376807
X645902Y383057
X635902Y383057
X625902Y383057
X630902Y408995
X591215Y408995
X747152Y414307
X747152Y417432
X747777Y408682
X747777Y405557
X747777Y402432
T02
X764564Y398638
X784249Y398638
X784249Y418323
X764564Y418323
X764564Y438008
X784249Y438008
X784249Y457693
X764564Y477378
X744879Y477378
X725194Y477378
X705509Y477378
X685823Y477378
X666138Y477378
X646453Y477378
X626768Y477378
X607083Y477378
X587398Y477378
X567713Y477378
X548028Y477378
X528343Y477378
X508658Y477378
X508658Y457693
X488973Y457693
X469288Y457693
X449603Y457693
X429918Y457693
X410233Y457693
X390548Y457693
X370863Y457693
X351178Y457693
X331493Y457693
X311808Y457693
X292123Y457693
X272438Y457693
X252753Y457693
X233068Y457693
X213383Y457693
X193698Y457693
X193698Y438008
X174012Y438008
X154327Y418323
X134642Y418323
X114957Y418323
X95272Y398638
X75587Y398638
X55902Y398638
X36217Y398638
X36217Y418323
X55902Y418323
X55902Y438008
X36217Y438008
X36217Y457693
X55902Y457693
X55902Y477378
X75587Y477378
X95272Y477378
X114957Y477378
X134642Y477378
X154327Y477378
X174012Y477378
X213383Y477378
X233068Y477378
X252753Y477378
X272438Y477378
X292123Y477378
X311808Y477378
X331493Y477378
X351178Y477378
X370863Y477378
X390548Y477378
X410233Y477378
X429918Y477378
X449603Y477378
X469288Y477378
X528343Y457693
X548028Y457693
X567713Y457693
X587398Y457693
X607083Y457693
X626768Y457693
X646453Y457693
X666138Y457693
X685823Y457693
X705509Y457693
X725194Y457693
X744879Y457693
X744879Y438008
X725194Y438008
X705509Y438008
X666138Y438008
X646453Y438008
X626768Y438008
X607083Y438008
X587398Y438008
X567713Y438008
X548028Y438008
X528343Y438008
X508658Y438008
X488973Y438008
X469288Y438008
X449603Y438008
X429918Y438008
X410233Y438008
X390548Y438008
X370863Y438008
X351178Y438008
X331493Y438008
X311808Y438008
X292123Y438008
X252753Y438008
X233068Y438008
X213383Y438008
X213383Y418323
X233068Y418323
X233068Y398638
X193698Y418323
X197635Y367142
X189760Y359268
X183855Y359268
X174012Y359268
X164170Y359268
X154327Y363205
X146453Y367142
X134642Y367142
X122831Y367142
X140548Y351394
X144485Y339583
X140548Y335646
X134642Y329740
X124800Y319898
X114957Y329740
X105115Y319898
X95272Y329740
X85430Y339583
X55902Y339583
X36217Y339583
X36217Y359268
X55902Y359268
X55902Y378953
X75587Y378953
X95272Y378953
X124800Y345488
X152359Y333677
X175981Y329740
X193698Y329740
X193698Y319898
X193698Y339583
X197635Y345488
X207477Y357299
X213383Y359268
X223225Y369110
X233068Y359268
X242910Y369110
X292123Y349425
X341335Y308087
X329524Y304150
X329524Y296276
X325587Y288402
X331493Y270685
X341335Y260843
X351178Y270685
X361020Y260843
X370863Y270685
X390548Y260843
X400390Y260843
X349209Y288402
X357083Y296276
X357083Y304150
X311808Y270685
X301965Y260843
X292123Y270685
X282280Y290370
X305902Y288402
X260095Y251782
X262595Y241157
X255095Y238347
X265095Y228347
X262595Y221472
X260720Y210222
X262595Y201787
X275720Y210222
X282280Y201787
X294470Y209597
X301965Y201787
X321650Y201787
X341335Y201787
X341335Y211630
X351178Y211630
X361020Y201787
X370863Y211630
X380705Y201787
X390548Y211630
X400390Y211630
X420075Y211630
X420075Y201787
X429918Y182102
X449603Y182102
X469288Y182102
X488973Y182102
X508658Y182102
X508658Y162417
X488973Y162417
X469288Y162417
X449603Y162417
X429918Y162417
X429918Y142732
X449603Y142732
X469288Y142732
X488973Y142732
X508658Y142732
X508658Y103362
X488973Y103362
X469288Y103362
X449603Y103362
X429918Y103362
X429918Y83677
X449603Y83677
X469288Y83677
X488973Y83677
X508658Y83677
X528343Y83677
X548028Y83677
X567713Y83677
X587398Y83677
X607083Y83677
X626768Y83677
X646453Y83677
X666138Y83677
X685823Y83677
X705509Y83677
X705509Y103362
X725194Y103362
X725194Y123047
X705509Y123047
X705509Y142732
X725194Y142732
X744879Y142732
X744879Y123047
X764564Y103362
X784249Y103362
X784249Y83677
X764564Y83677
X744879Y83677
X744879Y63992
X744879Y44307
X764564Y44307
X784249Y44307
X784249Y63992
X725194Y44307
X705509Y44307
X685823Y44307
X666138Y44307
X646453Y44307
X626768Y44307
X607083Y44307
X587398Y44307
X567713Y44307
X548028Y44307
X528343Y44307
X508658Y44307
X508658Y24622
X528343Y24622
X548028Y24622
X567713Y24622
X587398Y24622
X607083Y24622
X626768Y24622
X646453Y24622
X666138Y24622
X685823Y24622
X705509Y24622
X725194Y24622
X744879Y24622
X764564Y24622
X685823Y63992
X666138Y63992
X646453Y63992
X626768Y63992
X607083Y63992
X587398Y63992
X567713Y63992
X548028Y63992
X528343Y63992
X508658Y63992
X488973Y63992
X469288Y63992
X449603Y63992
X429918Y63992
X429918Y44307
X449603Y44307
X469288Y44307
X469288Y24622
X449603Y24622
X429918Y24622
X410233Y24622
X390548Y24622
X370863Y24622
X351178Y24622
X351178Y44307
X370863Y44307
X390548Y44307
X410233Y44307
X390548Y63992
X370863Y63992
X351178Y63992
X331493Y63992
X311808Y63992
X292123Y63992
X272438Y63992
X252753Y63992
X233068Y63992
X213383Y63992
X213383Y44307
X233068Y44307
X252753Y44307
X272438Y44307
X292123Y44307
X311808Y44307
X311808Y24622
X292123Y24622
X272438Y24622
X252753Y24622
X233068Y24622
X213383Y24622
X193698Y44307
X174012Y44307
X154327Y44307
X134642Y44307
X114957Y44307
X95272Y44307
X75587Y44307
X55902Y44307
X36217Y44307
X36217Y63992
X55902Y63992
X55902Y83677
X36217Y83677
X36217Y103362
X55902Y103362
X36217Y123047
X75587Y123047
X95272Y123047
X95272Y142732
X75587Y142732
X95272Y162417
X114957Y162417
X134642Y162417
X154327Y162417
X174012Y162417
X193698Y162417
X213383Y162417
X233068Y162417
X252753Y162417
X272438Y162417
X292123Y162417
X311808Y162417
X331493Y162417
X351178Y162417
X351178Y142732
X370863Y142732
X370863Y123047
X351178Y123047
X331493Y123047
X311808Y123047
X292123Y123047
X292123Y142732
X311808Y142732
X331493Y142732
X331493Y103362
X311808Y103362
X292123Y103362
X272438Y103362
X252753Y103362
X233068Y103362
X213383Y103362
X193698Y103362
X174012Y103362
X154327Y103362
X134642Y103362
X114957Y103362
X95272Y103362
X75587Y83677
X95272Y63992
X114957Y83677
X134642Y83677
X154327Y83677
X174012Y83677
X193698Y83677
X213383Y83677
X233068Y83677
X252753Y83677
X272438Y83677
X292123Y83677
X311808Y83677
X331493Y83677
X351178Y83677
X370863Y83677
X390548Y83677
X390548Y103362
X370863Y103362
X351178Y103362
X390548Y123047
X390548Y162417
X331493Y221472
X310720Y228347
X292123Y221472
X287595Y235847
X282280Y241157
X301965Y241157
X321650Y241157
X341335Y241157
X243845Y210222
X242910Y201787
X223225Y201787
X224470Y211472
X219470Y222097
X208845Y227097
X226345Y238972
X238220Y236472
X238220Y224597
X209470Y211472
X203540Y201787
X210095Y246472
X227162Y276591
X235036Y276591
X185823Y367142
X174012Y367142
X55902Y319898
X36217Y319898
X36217Y300213
X55902Y300213
X55902Y280528
X36217Y280528
X36217Y241157
X36217Y221472
X55902Y221472
X55902Y201787
X36217Y201787
X36217Y182102
X55902Y182102
X36217Y162417
X114957Y142732
X134642Y142732
X134642Y123047
X114957Y123047
X154327Y123047
X174012Y123047
X193698Y123047
X213383Y123047
X233068Y123047
X252753Y123047
X272438Y123047
X272438Y142732
X252753Y142732
X233068Y142732
X213383Y142732
X193698Y142732
X174012Y142732
X154327Y142732
X154327Y24622
X174012Y24622
X134642Y24622
X114957Y24622
X95272Y24622
X75587Y24622
X55902Y24622
X459446Y280528
X479131Y280528
X488973Y300213
X498816Y310055
X508658Y319898
X518501Y329740
X528343Y339583
X508658Y349425
X498816Y339583
X488973Y329740
X479131Y319898
X469288Y310055
X459446Y300213
X449603Y319898
X420075Y349425
X410233Y349425
X420075Y398638
X539652Y398057
X565277Y397432
X581527Y397432
X598402Y397432
X615277Y397432
X715351Y359268
X744879Y359268
X764564Y359268
X764564Y378953
X744879Y378953
X744879Y339583
X764564Y339583
X784249Y339583
X784249Y319898
X764564Y319898
X744879Y319898
X725194Y319898
X725194Y300213
X744879Y300213
X764564Y300213
X784249Y300213
X784249Y280528
X764564Y280528
X744879Y280528
X725194Y280528
X685823Y280528
X666138Y280528
X666138Y260843
X685823Y260843
X685823Y241157
X666138Y241157
X646453Y241157
X646453Y221472
X666138Y221472
X685823Y221472
X705509Y221472
X666138Y201787
X646453Y201787
X646453Y182102
X666138Y182102
X685823Y182102
X705509Y182102
X725194Y182102
X744879Y182102
X744879Y162417
X725194Y162417
X705509Y162417
X685823Y162417
X666138Y162417
X646453Y162417
X646453Y142732
X646453Y123047
X666138Y123047
X685823Y123047
X685823Y142732
X666138Y142732
X666138Y103362
X685823Y103362
X646453Y103362
X567713Y103362
X548028Y103362
X528343Y103362
X764564Y221472
X784249Y221472
X784249Y201787
X784249Y182102
X784249Y162417
X784249Y123047
X784249Y241157
X764564Y241157
X764564Y260843
X577556Y260843
X567713Y260843
X577556Y280528
X567713Y300213
X557871Y300213
X557871Y290370
X538186Y290370
X528343Y280528
X528343Y270685
X567713Y319898
X577556Y329740
X95272Y457693
T03
X722580Y345990
X732580Y345990
T04
X645902Y404307
X635902Y404307
X625902Y404307
X625902Y414307
X635902Y414307
X645902Y414307
X605902Y414307
X595902Y414307
X585902Y414307
X575902Y414307
X565902Y414307
X555902Y414307
X545902Y414307
X545902Y404307
X555902Y404307
X565902Y404307
X575902Y404307
X585902Y404307
X595902Y404307
X605902Y404307
X525902Y404307
X515902Y404307
X505902Y404307
X495902Y404307
X485902Y404307
X475902Y404307
X475902Y414307
X485902Y414307
X495902Y414307
X505902Y414307
X515902Y414307
X525902Y414307
X455902Y414307
X445902Y414307
X435902Y414307
X425902Y414307
X425902Y404307
X435902Y404307
X445902Y404307
X455902Y404307
X405902Y404307
X395902Y404307
X385902Y404307
X375902Y404307
X365902Y404307
X355902Y404307
X345902Y404307
X335902Y404307
X325902Y404307
X315902Y404307
X315902Y414307
X325902Y414307
X335902Y414307
X345902Y414307
X355902Y414307
X365902Y414307
X375902Y414307
X385902Y414307
X395902Y414307
X405902Y414307
X215627Y401787
X205627Y401787
X205627Y391787
X215627Y391787
X215627Y381787
X205627Y381787
X140705Y374780
X130705Y374780
X76719Y351905
X66719Y351905
X66719Y341905
X76719Y341905
X76719Y331905
X66719Y331905
X66719Y321905
X76719Y321905
X76719Y311905
X66719Y311905
X66719Y301905
X76719Y301905
X76719Y291905
X66719Y291905
X66719Y281905
X76719Y281905
X76719Y271905
X66719Y271905
X66719Y261905
X76719Y261905
X76719Y251905
X66719Y251905
X66719Y241905
X76719Y241905
X76719Y231905
X66719Y231905
X66719Y221905
X76719Y221905
X76719Y211905
X66719Y211905
X66719Y201905
X76719Y201905
X76719Y191905
X66719Y191905
X66719Y181905
X76719Y181905
X76719Y171905
X66719Y171905
X66719Y161905
X76719Y161905
X247831Y223047
X247831Y233047
X247831Y243047
X247831Y253047
X247831Y263047
X247831Y273047
X212398Y282417
X212398Y292417
X436886Y227181
X446886Y237181
X456886Y227181
X734957Y247181
X734957Y257181
X734957Y267181
T05
X91453Y410449
X91453Y420449
T06
X255902Y409307
X280902Y409307
X280902Y434307
X679288Y433756
X679288Y409425
T07
X40154Y28559
X67713Y56118
X188973Y28559
X337792Y28559
X486611Y28559
X635430Y28559
X756690Y56118
X784249Y28559
X784249Y142732
X784249Y256906
X784249Y371079
X756690Y457693
X784249Y485252
X635430Y485252
X486611Y485252
X337792Y485252
X188973Y485252
X67713Y457693
X40154Y485252
X40154Y371079
X40154Y256906
X40154Y142732
M30
